<?xml version="1.0" encoding="utf-8"?>
<!-- Generator: Adobe Illustrator 16.0.0, SVG Export Plug-In . SVG Version: 6.00 Build 0)  -->
<!DOCTYPE svg PUBLIC "-//W3C//DTD SVG 1.1//EN" "http://www.w3.org/Graphics/SVG/1.1/DTD/svg11.dtd">
<svg version="1.1" id="Layer_1" xmlns="http://www.w3.org/2000/svg" xmlns:xlink="http://www.w3.org/1999/xlink" x="0px" y="0px"
	 width="367.198px" height="293.635px" viewBox="122.4 172.681 367.198 293.635"
	 enable-background="new 122.4 172.681 367.198 293.635" xml:space="preserve">
<path fill="#666666" d="M247.07,325.173c-1.487,2.313-3.99,3.592-6.561,3.592c-1.414,0-2.87-0.392-4.155-1.218L125.992,257.26
	c-2.233-1.42-3.592-3.898-3.592-6.549c0-2.65,1.359-5.122,3.592-6.542l110.362-70.288c3.586-2.271,8.415-1.23,10.716,2.375
	c2.295,3.611,1.23,8.409-2.387,10.71l-88.783,56.542c56.598,0,113.183,0,169.775,0c23.286,0,46.573,0,69.859,0
	c53.961,0,93.924,45.025,93.924,97.492c0,20.526,1.433,41.206-4.902,61.035c-8.029,25.129-28.225,46.512-52.533,56.5
	c-25.044,10.294-53.581,7.411-80.117,7.411c-71.733,0-143.459,0-215.186,0c-1.579,0-3.158,0-4.725,0c-9.309,0-9.309-14.425,0-14.425
	c64.56,0,129.126,0,193.68,0c23.286,0,46.573,0,69.859,0c31.054,0,58-18.103,71.886-45.429c10.11-19.89,7.607-43.507,7.607-65.098
	c0-47.277-35.392-83.067-82.773-83.067c-27.001,0-54.003,0-81.004,0c-51.775,0-103.55,0-155.326,0l88.758,56.53
	C248.301,316.764,249.366,321.568,247.07,325.173z"/>
</svg>
