<?xml version="1.0" encoding="utf-8"?>
<!-- Generator: Adobe Illustrator 18.1.0, SVG Export Plug-In . SVG Version: 6.00 Build 0)  -->
<svg version="1.1" id="Layer_1" xmlns="http://www.w3.org/2000/svg" xmlns:xlink="http://www.w3.org/1999/xlink" x="0px" y="0px"
	 viewBox="256 213.3 595.2 595.2" enable-background="new 256 213.3 595.2 595.2" xml:space="preserve">
<path fill="#FFFFFF" d="M553.6,680.4c-6.1,0-11-5-11-11l0,0V352.3c0-6.1,5-11,11-11l0,0c6.1,0,11,5,11,11l0,0v317.2
	c0,3-1.2,5.8-3.2,7.9l0,0C559.4,679.2,556.6,680.4,553.6,680.4L553.6,680.4z"/>
<path fill="#FFFFFF" d="M712.2,521.9H395.1c-6.1,0-11-5-11-11l0,0c0-6.1,5-11,11-11l0,0h317.1c6.1,0,11,5,11,11l0,0
	c0,3-1.2,5.7-3.2,7.7l0,0C717.9,520.6,715.3,521.9,712.2,521.9L712.2,521.9z"/>
</svg>
