<?xml version="1.0" encoding="utf-8"?>
<!-- Generator: Adobe Illustrator 18.1.0, SVG Export Plug-In . SVG Version: 6.00 Build 0)  -->
<svg version="1.1" id="Layer_1" xmlns="http://www.w3.org/2000/svg" xmlns:xlink="http://www.w3.org/1999/xlink" x="0px" y="0px"
	 viewBox="256 90 612.1 612.1" enable-background="new 256 90 612.1 612.1" xml:space="preserve">
<path fill="#FFFFFF" d="M345.6,612.4c-119.5-119.5-119.5-313.2,0-432.8l0,0l8.1,8.1l7.9,7.9c-110.5,110.9-110.5,289.9,0,400.8l0,0
	c110.9,110.5,289.9,110.5,400.8,0l0,0c110.4-110.9,110.4-289.9,0-400.8l0,0c-110.9-110.5-289.9-110.5-400.8,0l0,0l-7.9-7.9l-8.1-8.1
	c119.5-119.5,313.2-119.5,432.8,0l0,0c119.5,119.5,119.5,313.2,0,432.8l0,0C658.9,731.9,465.1,731.9,345.6,612.4L345.6,612.4z"/>
<path fill="#FFFFFF" d="M562,570.3c-6.3,0-11.3-5.1-11.3-11.3l0,0V232.9c0-6.3,5.1-11.3,11.3-11.3l0,0c6.3,0,11.3,5.1,11.3,11.3l0,0
	v326.2c0,3.1-1.2,6-3.3,8.1l0,0C568,569.1,565.1,570.3,562,570.3L562,570.3z"/>
<path fill="#FFFFFF" d="M725.1,407.3H399c-6.3,0-11.3-5.1-11.3-11.3l0,0c0-6.3,5.1-11.3,11.3-11.3l0,0h326.1
	c6.3,0,11.3,5.1,11.3,11.3l0,0c0,3.1-1.2,5.9-3.3,7.9l0,0C731,406,728.3,407.3,725.1,407.3L725.1,407.3z"/>
</svg>
