<?xml version="1.0" encoding="UTF-8" standalone="no"?>
<svg width="110px" height="110px" viewBox="0 0 110 110" version="1.1" xmlns="http://www.w3.org/2000/svg" xmlns:xlink="http://www.w3.org/1999/xlink" xmlns:sketch="http://www.bohemiancoding.com/sketch/ns">
    <!-- Generator: Sketch 3.2.2 (9983) - http://www.bohemiancoding.com/sketch -->
    <title>foursquare</title>
    <desc>Created with Sketch.</desc>
    <defs></defs>
    <g id="Page-1" stroke="none" stroke-width="1" fill="none" fill-rule="evenodd" sketch:type="MSPage">
        <g id="Mobile-Portrait-13" sketch:type="MSArtboardGroup" transform="translate(-801.000000, -304.000000)">
            <g id="foursquare" sketch:type="MSLayerGroup" transform="translate(801.000000, 304.000000)">
                <path d="M55,110 C85.3756612,110 110,85.3756612 110,55 C110,24.6243388 85.3756612,0 55,0 C24.6243388,0 0,24.6243388 0,55 C0,85.3756612 24.6243388,110 55,110 Z" id="Path-4" fill="#F7F7FA" sketch:type="MSShapeGroup"></path>
                <g id="foursquare-F" transform="translate(34.000000, 21.000000)" fill="#F42D64" sketch:type="MSShapeGroup">
                    <path d="M7.43815503,0.118963952 C0.0445221055,0.118963935 0.044522105,5.62145846 0.0445221049,6.54226723 C0.0445221037,19.5020966 0.0445221069,67.0466603 0.0445221069,68.1769485 C0.0445221069,72.7703293 4.58649607,73.1067324 7.4381549,69.8183739 C10.2898137,66.5300154 23.7164345,51.3571396 23.7164345,51.3571396 C25.5457423,49.0449705 26.1606165,49.0449705 29.3241974,49.0449705 L38.1265969,49.0449705 C41.6048295,49.0449705 42.6161324,47.5608963 43.8558516,42.7527199 C44.4373777,40.4973059 50.3256647,10.3685941 50.3256647,10.3685941 C51.9395352,3.74750775 50.5265174,0.118963952 45.5154524,0.118963952 C43.6702008,0.118963952 14.831788,0.11896397 7.43815503,0.118963952 Z M8.17871323,57.7711558 C8.17871323,57.7711558 18.3591346,45.4185083 19.3171118,44.1898283 C21.975782,40.7798776 22.5996251,41.2849982 25.9579016,41.1969418 C25.9579016,41.1969418 31.5905781,41.2849982 33.1788518,41.2849982 C37.0939121,41.2849982 37.0939121,37.358748 37.0939121,37.358748 C37.0939121,37.358748 37.9635336,32.3318119 38.2119155,30.9961554 C38.7820084,27.9305191 34.5865942,28.4717566 34.5865942,28.4717566 C34.5865942,28.4717566 27.3270208,28.3890445 24.7334217,28.4143135 C21.9851076,28.4410899 20.7208289,27.9778995 20.720829,24.6579409 C20.720829,21.3379823 22.2296012,20.6704832 24.9528331,20.6237278 L37.0939112,20.6237278 C41.2447896,20.6237278 40.6682125,19.4052126 41.4666148,16.0062691 C41.4666148,16.0062691 41.8658894,12.9441998 42.2552918,11.3045376 C43.1494224,7.5396095 39.8860197,7.90989364 39.8860197,7.90989364 C38.6833812,7.90989363 15.0754252,7.89043095 12.1449632,7.90989364 C7.68864826,7.93949029 7.68864827,9.07199765 7.68864826,12.9977319 C7.68864826,14.8625386 7.68864826,55.0068376 7.68864826,55.0068376 C7.68864826,55.0068376 7.44685786,58.11719 8.17871323,57.7711558 Z" id="Path-25"></path>
                </g>
            </g>
        </g>
    </g>
</svg>