<?xml version="1.0" encoding="utf-8"?>
<!-- Generator: Adobe Illustrator 18.1.0, SVG Export Plug-In . SVG Version: 6.00 Build 0)  -->
<svg version="1.1" id="Layer_1" xmlns="http://www.w3.org/2000/svg" xmlns:xlink="http://www.w3.org/1999/xlink" x="0px" y="0px"
	 viewBox="0 0 274.9 265.1" enable-background="new 0 0 274.9 265.1" xml:space="preserve">
<path id="Linked_In_22_" opacity="0.1" fill="#666766" d="M11.5,149.7l0.7,4.3c0.2,1,1.1,1.7,2.1,1.5l4.3-0.7c1-0.2,1.7-1.1,1.5-2.1
	l-0.7-4.3c-0.2-1-1.1-1.7-2.1-1.5l-4.3,0.7C12,147.7,11.4,148.7,11.5,149.7z M18.6,152.3l0.2,1.1l-3.6,0.6l-0.2-1.1L18.6,152.3z
	 M14.7,153.5c0.1,0.4-0.1,0.6-0.5,0.7c-0.3,0.1-0.6-0.1-0.7-0.5c-0.1-0.4,0.1-0.6,0.5-0.7C14.3,153,14.6,153.2,14.7,153.5z
	 M17.9,148l0.2,1.1l-2,0.3c-0.5,0.1-0.7,0.3-0.7,0.7c0.1,0.3,0.3,0.5,0.5,0.5c0.1,0,0.2,0,0.3,0l2.1-0.4l0.2,1.1l-2.4,0.4
	c-0.4,0.1-0.8,0.2-1.1,0.2l-0.2-1l0.5-0.1l0,0c-0.3-0.1-0.7-0.4-0.8-1c-0.1-0.7,0.3-1.4,1.3-1.5L17.9,148z"/>
<path id="Linked_In_18_" opacity="0.1" fill="#666766" d="M234.1,211l3.5-3c0.8-0.7,0.9-2,0.2-2.8l-3-3.5c-0.7-0.8-2-0.9-2.8-0.2
	l-3.5,3c-0.8,0.7-0.9,2-0.2,2.8l3,3.5C232.1,211.6,233.3,211.7,234.1,211z M232.6,203.1l0.9-0.8l2.5,2.9l-0.9,0.8L232.6,203.1z
	 M235.9,206c0.3-0.2,0.6-0.2,0.9,0.1c0.2,0.3,0.2,0.6-0.1,0.9c-0.3,0.3-0.6,0.2-0.9,0C235.6,206.7,235.6,206.3,235.9,206z
	 M229.1,206.2l0.9-0.8l1.4,1.6c0.3,0.4,0.7,0.5,1,0.2c0.3-0.2,0.3-0.5,0.2-0.7c0-0.1-0.1-0.2-0.2-0.3l-1.5-1.7l0.9-0.8l1.7,2
	c0.3,0.4,0.6,0.7,0.8,0.9l-0.8,0.7l-0.4-0.4l0,0c0,0.3,0,0.8-0.5,1.3c-0.6,0.5-1.4,0.5-2.1-0.4L229.1,206.2z"/>
<path id="Controller_22_" opacity="0.1" fill="#666766" d="M75.6,53.6c-0.6-0.8-1.8-1-2.6-0.4c-0.5,0.4-0.7,0.9-0.7,1.5l-2,1.5
	c-0.5-0.1-1.1,0-1.6,0.3c-0.8,0.6-1,1.8-0.4,2.6c0.3,0.4,0.6,0.6,1,0.7c0,0.1,0.1,0.3,0.3,0.4c0.6,0.8,2.2,2.4,3,1.8
	c0.8-0.6-0.4-2.6-1-3.4c0,0-0.1-0.1-0.1-0.1c0.1-0.2,0.1-0.4,0.1-0.6l2-1.5c0.2,0.1,0.4,0.1,0.6,0.1c0,0,0,0.1,0.1,0.1
	c0.6,0.8,2.2,2.4,3,1.8c0.8-0.6-0.4-2.6-1-3.4c-0.1-0.2-0.3-0.3-0.4-0.4C76,54.4,75.8,54,75.6,53.6z M68.8,57.3
	c-0.1-0.1-0.1-0.3,0.1-0.4c0.1-0.1,0.3-0.1,0.4,0.1l0.2,0.3c0.1,0.1,0.1,0.3-0.1,0.4c-0.1,0.1-0.3,0.1-0.4-0.1L68.8,57.3z
	 M69.4,58.5l-0.3,0.2c-0.1,0.1-0.3,0.1-0.4-0.1c-0.1-0.1-0.1-0.3,0.1-0.4L69,58c0.1-0.1,0.3-0.1,0.4,0.1
	C69.5,58.2,69.5,58.4,69.4,58.5z M70.5,58.5c0.1,0.1,0.1,0.3-0.1,0.4C70.3,59,70.1,59,70,58.9l-0.2-0.3c-0.1-0.1-0.1-0.3,0.1-0.4
	c0.1-0.1,0.3-0.1,0.4,0.1L70.5,58.5z M70.6,57.6l-0.3,0.2c-0.1,0.1-0.3,0.1-0.4-0.1c-0.1-0.1-0.1-0.3,0.1-0.4l0.3-0.2
	c0.1-0.1,0.3-0.1,0.4,0.1C70.8,57.3,70.8,57.5,70.6,57.6z M73.1,54c0-0.2,0.2-0.4,0.5-0.4c0.2,0,0.4,0.2,0.4,0.5
	c0,0.2-0.2,0.4-0.5,0.4C73.2,54.4,73,54.2,73.1,54z M73.7,55.2c0,0.2-0.2,0.4-0.5,0.4c-0.2,0-0.4-0.2-0.4-0.5c0-0.2,0.2-0.4,0.5-0.4
	C73.6,54.8,73.7,55,73.7,55.2z M75,55.4c0,0.2-0.2,0.4-0.5,0.4c-0.2,0-0.4-0.2-0.4-0.5c0-0.2,0.2-0.4,0.5-0.4
	C74.8,54.9,75,55.1,75,55.4z M75.1,54.2c0,0.2-0.2,0.4-0.5,0.4c-0.2,0-0.4-0.2-0.4-0.5c0-0.2,0.2-0.4,0.5-0.4
	C75,53.8,75.2,54,75.1,54.2z"/>
<path id="Controller_18_" opacity="0.1" fill="#666766" d="M193.5,252.2c0.8,1.5,2.7,2.1,4.3,1.3c0.9-0.5,1.5-1.3,1.6-2.2l3.7-2
	c0.8,0.4,1.9,0.4,2.7-0.1c1.5-0.8,2.1-2.7,1.3-4.3c-0.4-0.7-0.9-1.2-1.5-1.4c0-0.2-0.2-0.5-0.3-0.8c-0.8-1.5-3-4.6-4.5-3.9
	c-1.5,0.8-0.1,4.4,0.7,5.9c0,0.1,0.1,0.1,0.1,0.2c-0.2,0.3-0.3,0.6-0.3,1l-3.7,2c-0.3-0.1-0.7-0.2-1-0.3c0,0-0.1-0.1-0.1-0.2
	c-0.8-1.5-3-4.6-4.5-3.9c-1.5,0.8-0.1,4.4,0.7,5.9c0.2,0.4,0.3,0.6,0.5,0.8C193,250.8,193.1,251.5,193.5,252.2z M205.7,247.8
	c0.1,0.3,0,0.6-0.2,0.7c-0.3,0.1-0.6,0-0.7-0.2l-0.3-0.6c-0.1-0.3,0-0.6,0.2-0.7c0.3-0.1,0.6,0,0.7,0.2L205.7,247.8z M205.1,245.7
	l0.6-0.3c0.3-0.1,0.6,0,0.7,0.2c0.1,0.3,0,0.6-0.2,0.7l-0.6,0.3c-0.3,0.1-0.6,0-0.7-0.2C204.8,246.1,204.9,245.8,205.1,245.7z
	 M203.3,245.4c-0.1-0.3,0-0.6,0.2-0.7c0.3-0.1,0.6,0,0.7,0.2l0.3,0.6c0.1,0.3,0,0.6-0.2,0.7c-0.3,0.1-0.6,0-0.7-0.2L203.3,245.4z
	 M202.8,246.9l0.6-0.3c0.3-0.1,0.6,0,0.7,0.2c0.1,0.3,0,0.6-0.2,0.7l-0.6,0.3c-0.3,0.1-0.6,0-0.7-0.2
	C202.4,247.4,202.5,247.1,202.8,246.9z M197.7,252.3c-0.1,0.4-0.5,0.6-0.9,0.5c-0.4-0.1-0.6-0.5-0.5-0.9c0.1-0.4,0.5-0.6,0.9-0.5
	C197.6,251.5,197.9,251.9,197.7,252.3z M197,250c0.1-0.4,0.5-0.6,0.9-0.5c0.4,0.1,0.6,0.5,0.5,0.9c-0.1,0.4-0.5,0.6-0.9,0.5
	C197.1,250.8,196.9,250.4,197,250z M194.9,249.4c0.1-0.4,0.5-0.6,0.9-0.5c0.4,0.1,0.6,0.5,0.5,0.9c-0.1,0.4-0.5,0.6-0.9,0.5
	C195,250.2,194.8,249.8,194.9,249.4z M194.4,251.2c0.1-0.4,0.5-0.6,0.9-0.5c0.4,0.1,0.6,0.5,0.5,0.9c-0.1,0.4-0.5,0.6-0.9,0.5
	C194.5,252,194.3,251.6,194.4,251.2z"/>
<g id="Milkshake_24_" opacity="0.1">
	<polygon fill="#666766" points="217.5,152.1 217,156.1 218.1,156.2 218.6,151.6 212.2,146.6 214.2,141.9 213.1,141.6 212.9,141.9 
		196.1,136.6 193.3,143 208.8,151.5 208.7,151.9 209.7,152.4 211.7,147.6 	"/>
	
		<rect x="204.7" y="138" transform="matrix(-0.9925 -0.1219 0.1219 -0.9925 390.9668 311.6525)" fill="#666766" width="0.7" height="11.6"/>
	<polygon fill="#666766" points="203.8,137.7 204.5,137.8 203,149.4 202.3,149.3 	"/>
</g>
<g id="Milkshake_23_" opacity="0.1">
	<polygon fill="#666766" points="245.1,26.8 247.1,27.7 247.3,27.1 245.1,26.1 241.4,28.6 239.3,26.8 239,27.3 239.2,27.5 
		233.7,35.2 236.5,37.7 243.4,31.1 243.6,31.3 244,30.9 241.9,29 	"/>
	
		<rect x="238.7" y="28.7" transform="matrix(-0.4161 0.9093 -0.9093 -0.4161 367.1952 -172.0964)" fill="#666766" width="0.4" height="6.3"/>
	
		<rect x="238.2" y="29.5" transform="matrix(-0.4109 0.9117 -0.9117 -0.4109 366.1311 -171.3352)" fill="#666766" width="0.4" height="6.3"/>
</g>
<g id="Milkshake_18_" opacity="0.1">
	<polygon fill="#666766" points="13.7,124.1 12.1,117.9 10.4,118.3 12.3,125.5 24.8,129.1 24.5,137.2 26.3,137.1 26.3,136.5 
		54.4,134.6 54.7,123.4 26.8,119.9 26.8,119.2 25.1,119 24.8,127.3 	"/>
	<polygon fill="#666766" points="39.8,137.8 38.7,138.1 34.1,120.1 35.2,119.9 	"/>
	<polygon fill="#666766" points="42.3,137.4 41.2,137.6 36.6,119.7 37.8,119.4 	"/>
</g>
<g id="Ice_Cream_26_" opacity="0.1">
	<path fill="#666766" d="M189.8,56.5l-0.5-0.3c-0.4,0.1-0.9-0.1-1.2-0.4c-0.3,0.1-0.6,0-0.9-0.2c-0.3-0.2-0.5-0.5-0.6-0.8
		c-0.5-0.1-0.9-0.4-1.1-0.8l-0.3-0.2c0,0-0.1,0-0.1,0L182.4,64L189.8,56.5C189.9,56.5,189.9,56.5,189.8,56.5z"/>
	<path fill="#666766" d="M191.2,55.5l0.1-0.1c0.4-0.3,0.8-0.7,1-1.1c1-1.7,0.4-4-1.3-5c-1.7-1-4-0.4-5,1.3c-0.3,0.4-0.4,0.9-0.5,1.4
		l0,0.2l-0.2,0c-0.1,0-0.2,0.1-0.3,0.2c-0.2,0.3,0,0.7,0.3,0.9c0,0,0.1,0,0.2,0.1l0.2,0.1l0,0l0.3,0.2l0,0.1
		c0.1,0.3,0.5,0.6,0.8,0.6l0.2,0l0,0.3c0,0.2,0.2,0.5,0.4,0.6c0.2,0.1,0.5,0.2,0.7,0.1l0.2-0.1l0.1,0.2c0.2,0.3,0.5,0.4,0.8,0.3
		l0.1,0L190,56l0,0l0.1,0.1c0.1,0,0.1,0.1,0.1,0.1c0.3,0.2,0.7,0.2,0.9-0.1c0.1-0.1,0.1-0.3,0-0.4L191.2,55.5z M187,51.8l-0.1-1.2
		l0.3,0l0.1,1.2L187,51.8z M188.5,50.2l0.9-0.7l0.2,0.2l-0.9,0.7L188.5,50.2z M187.4,53.1l-0.1-0.2l1.1-0.4l0.1,0.2L187.4,53.1z
		 M189.4,52.3l0.4-1.1l0.2,0.1l-0.4,1.1L189.4,52.3z M190.8,50.6l0.1-0.3l1.1,0.3l-0.1,0.3L190.8,50.6z M190.3,54.6l-0.8-0.9
		l0.2-0.2l0.8,0.9L190.3,54.6z M191.3,53.4l0.2-1.2l0.3,0.1l-0.2,1.2L191.3,53.4z"/>
</g>
<g id="Ice_Cream_22_" opacity="0.1">
	<path fill="#666766" d="M81.2,127.3l0,0.3c0.1,0.2,0.1,0.4,0.1,0.6c0.1,0.1,0.1,0.3,0.1,0.5c0,0.2-0.1,0.4-0.2,0.5
		c0.1,0.2,0,0.5-0.2,0.7l0,0.2c0,0,0,0,0,0.1l5.6-0.9L81.2,127.3C81.2,127.3,81.2,127.3,81.2,127.3z"/>
	<path fill="#666766" d="M80.4,126.9L80.4,126.9c-0.3-0.2-0.6-0.3-0.8-0.3c-1.1-0.1-2,0.7-2.1,1.7c-0.1,1.1,0.7,2,1.7,2.1
		c0.3,0,0.5,0,0.8-0.1l0.1,0l0.1,0.1c0,0,0.1,0.1,0.2,0.1c0.2,0,0.3-0.1,0.3-0.3c0,0,0-0.1,0-0.1l0-0.1l0,0l0-0.2l0,0
		c0.1-0.1,0.2-0.3,0.1-0.5l-0.1-0.1l0.1-0.1c0.1-0.1,0.2-0.2,0.2-0.3c0-0.1,0-0.2-0.1-0.3l-0.1-0.1l0.1-0.1c0.1-0.2,0.1-0.4,0-0.5
		l0,0l0-0.3l0,0l0-0.1c0,0,0-0.1,0-0.1c0-0.2-0.1-0.4-0.3-0.4C80.6,126.8,80.5,126.8,80.4,126.9L80.4,126.9z M79.6,129.7L79,130
		l-0.1-0.1l0.6-0.3L79.6,129.7z M78.5,129.4l-0.6-0.3L78,129l0.6,0.3L78.5,129.4z M80.1,129.2l-0.1,0.1l-0.4-0.5l0.1-0.1L80.1,129.2
		z M79.3,128.5l-0.6,0l0-0.1l0.6-0.1L79.3,128.5z M78.2,128.2l-0.1,0l-0.1-0.6l0.1,0L78.2,128.2z M80.2,127.5l-0.3,0.6l-0.1-0.1
		l0.3-0.6L80.2,127.5z M79.4,127.3l-0.6,0.1l0-0.1l0.6-0.1L79.4,127.3z"/>
</g>
<g id="Beer_31_" opacity="0.1">
	<path id="Beer_32_" fill="#666766" d="M124,44.6c-0.7,0.1-1.2,0.4-1.6,0.8l-0.5-2.7c0.4-0.3,0.6-0.8,0.5-1.3
		c-0.1-0.7-0.8-1.1-1.5-1c-0.1,0-0.1,0-0.2,0c-0.2-0.5-0.8-0.8-1.4-0.7c-0.4,0.1-0.7,0.3-0.9,0.7c-0.2-0.1-0.5-0.1-0.8-0.1
		c-0.4,0.1-0.7,0.3-0.9,0.7c-0.3-0.2-0.6-0.2-0.9-0.2c-0.3,0.1-0.6,0.3-0.8,0.5c-0.2-0.6-0.8-1.1-1.4-0.9c-0.6,0.1-1.1,0.7-1,1.3
		c-0.2-0.1-0.4-0.1-0.6,0c-0.3,0.1-0.5,0.2-0.7,0.4c-0.3-0.3-0.7-0.5-1.2-0.4c-0.5,0.1-0.9,0.5-1,1c-0.3-0.2-0.6-0.3-1-0.2
		c-0.7,0.1-1.1,0.8-1,1.5c0.1,0.7,0.8,1.1,1.4,1l3.3,18.1c0.3,1.8,1.7,2.5,3.2,2.2l7.7-1.4c1.4-0.3,2.5-1.7,2.2-3.2l-0.7-3.6
		c0.5,0.2,1.1,0.3,1.8,0.2c2.1-0.4,2.7-2.3,2.3-4.3l-0.9-5.1C127.4,45.8,126.1,44.2,124,44.6z M117.4,42.8
		C117.4,42.8,117.4,42.8,117.4,42.8C117.4,42.8,117.4,42.8,117.4,42.8C117.4,42.8,117.4,42.8,117.4,42.8z M127.1,53.3
		c0.2,1.2,0.2,2.3-1,2.5c-1.2,0.2-1.6-0.7-1.9-2l-0.9-5.1c-0.2-1.2-0.2-2.3,1-2.5c1.2-0.2,1.6,0.7,1.9,2L127.1,53.3z"/>
	<path fill="#666766" d="M120.1,61.8c0.1,0.8-0.4,1.5-1.2,1.7l0,0c-0.8,0.1-1.5-0.4-1.7-1.2l-3-16c-0.1-0.8,0.4-1.5,1.2-1.7l0,0
		c0.8-0.1,1.5,0.4,1.7,1.2L120.1,61.8z"/>
	<path fill="#666766" d="M124,61.1c0.1,0.8-0.4,1.5-1.2,1.7l0,0c-0.8,0.1-1.5-0.4-1.7-1.2l-3-16c-0.1-0.8,0.4-1.5,1.2-1.7l0,0
		c0.8-0.1,1.5,0.4,1.7,1.2L124,61.1z"/>
	<path fill="#666766" d="M116.2,62.5c0.1,0.8-0.4,1.5-1.2,1.7l0,0c-0.8,0.1-1.5-0.4-1.7-1.2l-3-16c-0.1-0.8,0.4-1.5,1.2-1.7l0,0
		c0.8-0.1,1.5,0.4,1.7,1.2L116.2,62.5z"/>
</g>
<g id="Beer_29_" opacity="0.1">
	<path id="Beer_30_" fill="#666766" d="M77,183.8c0.2,0.2,0.5,0.2,0.7,0.2l-0.7,0.9c-0.2,0-0.4,0-0.5,0.2c-0.2,0.2-0.1,0.5,0.1,0.7
		c0,0,0,0,0.1,0c-0.1,0.2,0,0.5,0.2,0.6c0.1,0.1,0.3,0.1,0.5,0.1c0,0.1,0.1,0.2,0.2,0.3c0.1,0.1,0.3,0.1,0.4,0.1
		c0,0.1,0.1,0.2,0.2,0.3c0.1,0.1,0.3,0.1,0.4,0.1c-0.1,0.2-0.1,0.5,0.1,0.7c0.2,0.2,0.5,0.1,0.7-0.1c0,0.1,0.1,0.1,0.1,0.2
		c0.1,0.1,0.2,0.1,0.3,0.1c0,0.2,0.1,0.4,0.2,0.5c0.2,0.1,0.4,0.1,0.6,0c0,0.1,0.1,0.3,0.2,0.4c0.2,0.2,0.5,0.1,0.7-0.1
		c0.2-0.2,0.1-0.5-0.1-0.7l4.4-6c0.4-0.6,0.3-1.2-0.2-1.6l-2.6-1.9c-0.5-0.3-1.2-0.3-1.6,0.2l-0.9,1.2c-0.1-0.2-0.2-0.4-0.4-0.6
		c-0.7-0.5-1.4-0.2-1.9,0.5l-1.2,1.7C76.4,182.5,76.3,183.3,77,183.8z M78.3,186.3C78.3,186.3,78.3,186.3,78.3,186.3
		C78.3,186.3,78.3,186.3,78.3,186.3C78.3,186.3,78.3,186.3,78.3,186.3z M78.7,180.5c0.3-0.4,0.6-0.7,1-0.4c0.4,0.3,0.2,0.7-0.1,1.1
		l-1.2,1.7c-0.3,0.4-0.6,0.7-1,0.4c-0.4-0.3-0.2-0.7,0.1-1.1L78.7,180.5z"/>
	<path fill="#666766" d="M83.2,180.2c0.2-0.3,0.6-0.3,0.8-0.1l0,0c0.3,0.2,0.3,0.6,0.1,0.8l-3.9,5.3c-0.2,0.3-0.6,0.3-0.8,0.1l0,0
		c-0.3-0.2-0.3-0.6-0.1-0.8L83.2,180.2z"/>
	<path fill="#666766" d="M81.9,179.3c0.2-0.3,0.6-0.3,0.8-0.1l0,0c0.3,0.2,0.3,0.6,0.1,0.8l-3.9,5.3c-0.2,0.3-0.6,0.3-0.8,0.1l0,0
		c-0.3-0.2-0.3-0.6-0.1-0.8L81.9,179.3z"/>
	<path fill="#666766" d="M84.4,181.1c0.2-0.3,0.6-0.3,0.8-0.1l0,0c0.3,0.2,0.3,0.6,0.1,0.8l-3.9,5.3c-0.2,0.3-0.6,0.3-0.8,0.1l0,0
		c-0.3-0.2-0.3-0.6-0.1-0.8L84.4,181.1z"/>
</g>
<path opacity="0.1" fill="#666766" d="M116.1,249.5l-4-0.4c-0.9-0.1-1.7,0.6-1.8,1.5l-0.4,4c-0.1,0.9,0.6,1.7,1.5,1.8l4,0.4
	c0.9,0.1,1.7-0.6,1.8-1.5l0.4-4C117.7,250.4,117,249.6,116.1,249.5z M111.7,255.2c-0.4,0-0.7-0.4-0.6-0.8c0-0.4,0.4-0.7,0.8-0.6
	c0.4,0,0.7,0.4,0.6,0.8C112.5,254.9,112.1,255.2,111.7,255.2z M112.1,251.6c-0.4,0-0.7-0.4-0.6-0.8c0-0.4,0.4-0.7,0.8-0.6
	c0.4,0,0.7,0.4,0.6,0.8C112.8,251.4,112.5,251.7,112.1,251.6z M113.7,253.6c-0.4,0-0.7-0.4-0.6-0.8c0-0.4,0.4-0.7,0.8-0.6
	c0.4,0,0.7,0.4,0.6,0.8C114.4,253.3,114.1,253.6,113.7,253.6z M115.3,255.5c-0.4,0-0.7-0.4-0.6-0.8c0-0.4,0.4-0.7,0.8-0.6
	c0.4,0,0.7,0.4,0.6,0.8C116,255.3,115.7,255.6,115.3,255.5z M115.6,252c-0.4,0-0.7-0.4-0.6-0.8c0-0.4,0.4-0.7,0.8-0.6
	c0.4,0,0.7,0.4,0.6,0.8C116.4,251.8,116,252,115.6,252z"/>
<path opacity="0.1" fill="#666766" d="M230.7,97.9l-2.1-3.9c-0.5-0.9-1.6-1.2-2.4-0.8l-3.9,2.1c-0.9,0.5-1.2,1.6-0.8,2.4l2.1,3.9
	c0.5,0.9,1.6,1.2,2.4,0.8l3.9-2.1C230.9,99.9,231.2,98.8,230.7,97.9z M222.8,97.4c-0.2-0.4-0.1-0.9,0.3-1.1c0.4-0.2,0.9-0.1,1.1,0.3
	c0.2,0.4,0.1,0.9-0.3,1.1C223.5,97.9,223,97.7,222.8,97.4z M226.3,95.5c-0.2-0.4-0.1-0.9,0.3-1.1c0.4-0.2,0.9-0.1,1.1,0.3
	c0.2,0.4,0.1,0.9-0.3,1.1C226.9,96.1,226.5,95.9,226.3,95.5z M224.6,100.8c-0.2-0.4-0.1-0.9,0.3-1.1c0.4-0.2,0.9-0.1,1.1,0.3
	c0.2,0.4,0.1,0.9-0.3,1.1C225.3,101.4,224.8,101.2,224.6,100.8z M228.1,99c-0.2-0.4-0.1-0.9,0.3-1.1c0.4-0.2,0.9-0.1,1.1,0.3
	c0.2,0.4,0.1,0.9-0.3,1.1C228.8,99.6,228.3,99.4,228.1,99z"/>
<path opacity="0.1" fill="#666766" d="M34.1,161.2l-0.7-4c-0.2-0.9-1-1.5-1.9-1.3l-4,0.7c-0.9,0.2-1.5,1-1.4,1.9l0.7,4
	c0.2,0.9,1,1.5,1.9,1.4l4-0.7C33.7,163,34.3,162.1,34.1,161.2z M27.3,158.5c-0.1-0.4,0.2-0.8,0.6-0.8c0.4-0.1,0.8,0.2,0.8,0.6
	c0.1,0.4-0.2,0.8-0.6,0.8C27.7,159.2,27.3,158.9,27.3,158.5z M30.8,157.9c-0.1-0.4,0.2-0.8,0.6-0.8c0.4-0.1,0.8,0.2,0.8,0.6
	c0.1,0.4-0.2,0.8-0.6,0.8C31.3,158.5,30.9,158.3,30.8,157.9z M27.9,162.1c-0.1-0.4,0.2-0.8,0.6-0.8c0.4-0.1,0.8,0.2,0.8,0.6
	c0.1,0.4-0.2,0.8-0.6,0.8C28.4,162.7,28,162.5,27.9,162.1z M31.5,161.4c-0.1-0.4,0.2-0.8,0.6-0.8c0.4-0.1,0.8,0.2,0.8,0.6
	c0.1,0.4-0.2,0.8-0.6,0.8C31.9,162.1,31.6,161.8,31.5,161.4z"/>
<path id="Trumpet_16_" opacity="0.1" fill="#666766" d="M266.3,26.5c-0.3,0.3,0.2,0.4,0.5,1.4c0.2,0.6-0.9,1.9-2.4,3.6l-0.2-0.2
	c0-0.1,0-0.1,0-0.2c-0.1-0.1-0.2-0.1-0.3,0l-0.1,0.1l-0.3-0.3l0.1-0.1c0.1-0.1,0.1-0.1,0-0.2c0,0-0.1,0-0.2,0l-0.3,0.3
	c-0.1,0.1-0.1,0.1,0,0.2c0,0,0.1,0,0.2,0l0.1-0.1l0.3,0.3l-0.1,0.1c-0.1,0.1-0.1,0.2,0,0.3c0,0,0.1,0.1,0.2,0l0.2,0.2
	c-0.1,0.1-0.2,0.2-0.2,0.3l-0.2-0.2c0-0.1,0-0.1,0-0.2c-0.1-0.1-0.2-0.1-0.3,0l-0.1,0.1l-0.3-0.3l0.1-0.1c0.1-0.1,0.1-0.1,0-0.2
	c0,0-0.1,0-0.2,0l-0.3,0.3c-0.1,0.1-0.1,0.1,0,0.2c0,0,0.1,0,0.2,0l0.1-0.1l0.3,0.3l-0.1,0.1c-0.1,0.1-0.1,0.2,0,0.3
	c0,0,0.1,0.1,0.2,0l0.2,0.2c-0.1,0.1-0.2,0.2-0.3,0.3l-0.2-0.2c0-0.1,0-0.1,0-0.2c-0.1-0.1-0.2-0.1-0.3,0l-0.1,0.1l-0.3-0.3l0.1-0.1
	c0.1-0.1,0.1-0.1,0-0.2c0,0-0.1,0-0.2,0l-0.3,0.3c-0.1,0.1-0.1,0.1,0,0.2c0,0,0.1,0,0.2,0l0.1-0.1l0.3,0.3l-0.1,0.1
	c-0.1,0.1-0.1,0.2,0,0.3c0,0,0.1,0.1,0.2,0l0.2,0.2c-0.8,0.9-1.7,1.8-2.6,2.7c-0.2,0-0.4,0.1-0.6,0.2c0,0,0,0,0,0
	c-0.3-0.1-0.6,0-0.7,0.1c-0.2,0.2,0.1,0.5,0.4,0.9c0.4,0.4,0.7,0.6,0.9,0.4c0.1-0.1,0.2-0.4,0.1-0.7c0,0,0,0,0,0
	c0.1-0.1,0.2-0.4,0.2-0.6c0.5-0.5,1-1,1.5-1.5c0,0.4,0.2,0.8,0.5,1.2c0.7,0.7,1.8,0.7,2.4,0l0.2-0.2l0.5,0.4c0.1,0.1,0.2,0,0.3-0.1
	c0.1-0.1,0.2-0.3,0.1-0.3l-0.2-0.2l0.3-0.3l0.2,0.2c0,0,0.2,0,0.3-0.2c0.1-0.1,0.2-0.3,0.1-0.3l-0.2-0.2l0.3-0.3l0.2,0.2
	c0.1,0,0.2,0,0.3-0.2c0.1-0.1,0.2-0.3,0.1-0.3l-0.5-0.4l0.7-0.8c0.7-0.7,0.7-1.8,0-2.4c-0.2-0.2-0.5-0.4-0.8-0.5
	c0.8-0.6,1.4-1,1.7-0.9c0.9,0.3,1.2,0.7,1.4,0.5c0.5-0.5-0.5-1.8-1.1-2.4C268,27,266.7,26,266.3,26.5z M263.9,35.9
	c-0.1-0.1-0.1-0.3,0-0.3l0.3-0.3l0.3,0.3l-0.2,0.3c-0.1,0.1-0.1,0.1-0.2,0.1C264,36,263.9,36,263.9,35.9z M267.2,32.8
	c0,0-0.1,0.1-0.1,0.1l-0.7,0.8l-0.3-0.3l0.7-0.8c0.1-0.1,0.3-0.1,0.3,0C267.2,32.6,267.3,32.7,267.2,32.8z M265.9,34.1l-0.3,0.3
	l-0.3-0.3l0.3-0.3L265.9,34.1z M265.1,33.8L265.1,33.8l0.2-0.3l0.1,0.1L265.1,33.8z M265.2,33.4l-0.3,0.3l-0.9-0.9
	c0.1-0.1,0.2-0.2,0.3-0.3L265.2,33.4z M263.5,33.2l0.9,0.9l-0.3,0.3l-0.9-0.9C263.4,33.4,263.4,33.3,263.5,33.2z M264.3,34.5
	l0.3-0.3l0.1,0.1L264.3,34.5L264.3,34.5z M264.9,34.5l0.3,0.3l-0.3,0.3l-0.3-0.3L264.9,34.5z M266.8,32.2c-0.1,0-0.2,0.1-0.2,0.1
	l-0.7,0.8l-1.1-1c0.3-0.3,0.7-0.6,1-0.9L266.8,32.2z M262.5,35.9c-0.4-0.4-0.5-1.1-0.1-1.5c0.1-0.1,0.2-0.2,0.4-0.4l1.1,1.1
	l-0.3,0.3c-0.2,0.2-0.2,0.6,0,0.8c0,0,0,0,0,0C263.2,36.3,262.8,36.2,262.5,35.9z M265.5,35.7l-0.2-0.2l0.3-0.3l0.2,0.2L265.5,35.7z
	 M266.5,34.7l-0.3,0.3l-0.2-0.2l0.3-0.3L266.5,34.7z M267.1,31.2c0.3,0.3,0.4,0.7,0.3,1.1c0,0,0,0,0,0c-0.1-0.1-0.3-0.2-0.4-0.2
	l-1.1-1.1c0.1,0,0.1-0.1,0.2-0.1C266.4,30.8,266.8,30.9,267.1,31.2z"/>
<path id="Trumpet_15_" opacity="0.1" fill="#666766" d="M104,211.1c0.5-0.9-0.7-1-2.2-3.6c-0.8-1.4,1.1-5.8,4.3-11.5l0.6,0.3
	c0,0.2,0.1,0.3,0.2,0.4c0.2,0.1,0.6,0.1,0.7-0.2l0.2-0.4l0.9,0.6l-0.2,0.3c-0.1,0.2-0.1,0.4,0.1,0.5c0.1,0.1,0.4,0,0.5-0.2l0.6-0.9
	c0.1-0.2,0.1-0.4-0.1-0.5c-0.1-0.1-0.4,0-0.5,0.2l-0.2,0.3l-1-0.6l0.2-0.4c0.1-0.2,0.1-0.6-0.2-0.7c-0.2-0.1-0.3-0.1-0.5,0l-0.6-0.4
	c0.2-0.3,0.3-0.6,0.5-0.9l0.6,0.4c0,0.2,0.1,0.3,0.2,0.4c0.2,0.1,0.6,0.1,0.7-0.2l0.2-0.4l1,0.6l-0.2,0.3c-0.1,0.2-0.1,0.4,0,0.5
	c0.2,0.1,0.4,0,0.5-0.2l0.6-0.9c0.1-0.2,0.1-0.4-0.1-0.5c-0.1-0.1-0.4,0-0.5,0.2l-0.2,0.3l-0.9-0.6l0.2-0.4c0.1-0.2,0.1-0.6-0.2-0.7
	c-0.2-0.1-0.3-0.1-0.5,0l-0.7-0.4c0.2-0.3,0.3-0.6,0.5-0.9l0.7,0.4c0,0.2,0.1,0.3,0.2,0.4c0.2,0.1,0.6,0.1,0.7-0.2l0.2-0.4l1,0.6
	l-0.2,0.3c-0.1,0.2-0.1,0.4,0,0.5c0.1,0.1,0.4,0,0.5-0.2l0.6-0.9c0.1-0.2,0.1-0.4-0.1-0.5c-0.1-0.1-0.4,0-0.5,0.2l-0.2,0.3l-1-0.6
	l0.2-0.4c0.1-0.2,0.1-0.6-0.2-0.7c-0.2-0.1-0.3-0.1-0.5,0l-0.7-0.4c1.7-2.9,3.6-5.9,5.4-9c0.5-0.1,1.1-0.5,1.4-1c0,0,0-0.1,0-0.1
	c0.8,0,1.5-0.3,1.8-0.7c0.4-0.7-0.5-1.4-1.7-2.1c-1.2-0.7-2.3-1.2-2.7-0.5c-0.3,0.4-0.2,1.2,0.2,1.9c0,0,0,0-0.1,0.1
	c-0.3,0.4-0.4,1.1-0.2,1.7c-1,1.7-2.1,3.4-3.1,5.1c-0.3-1.2-1-2.2-2.1-2.8c-2.3-1.4-5.2-0.6-6.6,1.6l-0.5,0.8l-1.5-0.9
	c-0.2-0.1-0.5,0.2-0.8,0.6c-0.3,0.5-0.4,0.9-0.2,1l0.6,0.3l-0.5,0.9l-0.6-0.3c-0.2-0.1-0.5,0.2-0.8,0.6c-0.3,0.5-0.4,0.9-0.2,1
	l0.6,0.3l-0.5,0.9l-0.5-0.3c-0.2-0.1-0.5,0.2-0.8,0.6c-0.3,0.5-0.4,0.9-0.2,1l1.5,0.9l-1.5,2.5c-1.4,2.3-0.6,5.2,1.6,6.6
	c0.8,0.5,1.7,0.7,2.6,0.7c-1.8,2.2-3.2,3.5-4,3.4c-2.7-0.3-3.6-1.2-4.2-0.3c-1,1.7,2.5,4.5,4.6,5.7C98.9,211,103,212.8,104,211.1z
	 M104.5,183.9c0.3,0.2,0.4,0.6,0.2,1l-0.6,1l-1.1-0.7l0.5-0.8c0.1-0.2,0.2-0.4,0.4-0.5C104.1,183.8,104.3,183.8,104.5,183.9z
	 M97.2,194.7c0.1-0.1,0.1-0.3,0.2-0.4l1.5-2.5l1.1,0.7l-1.5,2.5c-0.2,0.3-0.6,0.4-0.9,0.2C97.4,195.2,97.3,194.9,97.2,194.7z
	 M100,190.2l0.5-0.9l1.1,0.7l-0.5,0.9L100,190.2z M102.4,190.5l0.3,0.2l-0.5,0.9l-0.3-0.2L102.4,190.5z M102.6,191.8l0.5-0.9l3,1.8
	c-0.2,0.3-0.4,0.6-0.6,0.9L102.6,191.8z M107.1,191.1l-3-1.8l0.5-0.9l3,1.8C107.5,190.5,107.3,190.8,107.1,191.1z M104.2,188.1
	l-0.5,0.9l-0.3-0.2l0.5-0.9L104.2,188.1z M102.6,188.3l-1.1-0.7l0.5-0.9l1.1,0.7L102.6,188.3z M98.8,196.1c0.2-0.1,0.4-0.3,0.5-0.5
	l1.5-2.5l3.6,2.2c-0.7,1.1-1.4,2.1-2.1,3.1L98.8,196.1z M108.1,183.2c1.4,0.9,2,2.6,1.3,4.1c-0.3,0.4-0.5,0.8-0.8,1.2l-3.7-2.3
	l0.6-1c0.5-0.8,0.2-1.8-0.6-2.3c0,0,0,0,0,0C105.9,182.6,107.1,182.6,108.1,183.2z M100.2,185.7l0.6,0.3l-0.5,0.9l-0.6-0.3
	L100.2,185.7z M98.1,189.1l0.5-0.9l0.6,0.3l-0.5,0.9L98.1,189.1z M98.6,198.9c-1.1-0.6-1.6-1.8-1.6-2.9c0,0,0.1,0.1,0.1,0.1
	c0.4,0.2,0.8,0.3,1.3,0.2l3.8,2.3c-0.1,0.2-0.2,0.3-0.4,0.5C100.8,199.6,99.6,199.6,98.6,198.9z"/>
<g id="Telecaster_12_" opacity="0.1">
	<path fill="#666766" d="M220.8,134.6c0.9-0.5,1.7-0.9,2.4-1c0.6-0.1,1.2,0.1,2,0.4c0.7,0.3,1.6,0.6,2.4,0.5c0.9,0,1.7-0.4,1.9-1
		c0.2-0.9-1-1-1.6-1.2c-0.6-0.2-1.3-0.7-1.4-1.6c0-0.4,0.4-0.8,1-1l18.9-1c0.2,0,0.3,0,0.3,0c0.2,0,1.1-0.1,1.7,0.1
		c0.7,0.2,1.4,0.5,1.9,0.5c0.6,0,0.9-0.1,1.2-0.3c0.4-0.2,0.5-0.1,0.7,0c0.1,0.1,0.5,0.4,0.9,0.4c0.4,0,0.7-0.3,0.8-0.7
		c0.1-0.4-0.1-0.7-0.5-0.8l0-0.2c0.1,0,0.1-0.1,0.1-0.2c0-0.1,0-0.3-0.1-0.3l0,0c-0.1,0-0.2,0.1-0.2,0.2c0,0.1,0,0.2,0,0.3l0,0.2
		c-0.1,0-0.5-0.1-0.9-0.2l0-0.2c0.1,0,0.3-0.1,0.3-0.2c0-0.1-0.1-0.3-0.2-0.3l-0.1,0c-0.1,0-0.3,0.1-0.3,0.2c0,0.1,0,0.2,0.1,0.3
		l0,0.2c-0.3-0.1-0.6-0.1-0.9-0.2l0-0.2c0.1,0,0.2-0.1,0.3-0.2c0-0.1,0-0.3-0.2-0.3l-0.1,0c-0.1,0-0.2,0.1-0.3,0.2
		c0,0.1,0,0.2,0.1,0.3l0,0.2c-0.3-0.1-0.6-0.1-0.9-0.2l0-0.2c0.1,0,0.1-0.1,0.1-0.2c0-0.1,0-0.3-0.1-0.3l0,0c-0.1,0-0.1,0.1-0.2,0.2
		c0,0.1,0,0.2,0,0.2l0,0.2c-0.3-0.1-0.6-0.2-0.8-0.2l0-0.2c0.1,0,0.2-0.1,0.3-0.2c0-0.1,0-0.3-0.2-0.3l-0.1,0
		c-0.1,0-0.3,0.1-0.3,0.2c0,0.1,0,0.3,0.2,0.3l0,0.2c-0.3-0.1-0.7-0.2-0.9-0.2l0-0.2h0c0.2,0,0.3,0,0.3-0.2c0-0.1-0.1-0.3-0.2-0.3
		l-0.1,0c-0.2,0-0.3,0-0.4,0.2c0,0.1,0.1,0.3,0.2,0.3l0,0.2c-0.3-0.1-0.5-0.1-0.5-0.1s-0.3-0.1-0.5,0c-0.1,0-0.2,0.1-0.4,0.3
		c0,0.1-0.1,0.2-0.2,0.2c0,0,0,0,0,0c0,0,0,0,0,0c0,0-0.1,0-0.2,0l-17.3,0.4c-0.2-0.1-0.4-0.2-0.4-0.3c0-0.8,0.3-0.7,0.5-1.5
		c0.3-1.2,0.2-1.9-0.4-2.4c-0.7-0.7-2.1-0.7-3.9,0.1c-0.7,0.3-1.4,0.6-2.2,0.6c-0.3,0-1-0.2-1.7-0.5c-1-0.4-1.7-0.8-3.1-1.2
		c-0.3-0.1-2.3-0.4-3.7,0.5c-2,1.2-2,4.3-1.9,6.3c0.1,2,0.1,2.9,0.4,3.7c0.2,0.8,0.6,1.8,1.5,2.4c0.6,0.4,1.4,0.8,2.7,0.8
		C218.2,135.9,220.2,135,220.8,134.6z M219.9,130.4c-0.2-0.1-0.4-0.3-0.3-0.5l0.6-2.3c0.1-0.2,0.3-0.4,0.6-0.3
		c0.2,0.1,0.3,0.3,0.3,0.5l-0.6,2.3C220.3,130.3,220.1,130.5,219.9,130.4z"/>
	<path fill="#666766" d="M226,134c0.6,0.2,1.7,0.3,2.1,0.2c0.5-0.1,1-0.3,1-0.8c0-0.5-0.8-0.5-0.8-0.5s-0.6-0.2-1.2-0.5
		c-0.6-0.3-0.9-0.9-0.9-1.6c0-0.7,0.9-1.2,0.9-1.2l0.9-1.3c0,0,0.2-1-0.2-1.5c-0.2-0.3-0.5-0.5-0.8-0.6c-0.3-0.1-2-1.1-4.5-1
		c-0.7,0-1.1,0.2-1.4,0.2c-0.2,0.1-0.3,0.2-0.3,0.5c0,0.3,0.1,1.1,0.1,1.1s0.2,0,0.3,0c0.1,0,0.2,0,0.2,0.2c0,0.2,0.1,3.2,0.1,3.3
		c0,0.1,0,0.2-0.3,0.2c-0.2,0-0.3,0-0.3,0s0,0.7,0.1,1.4c0,0-0.1,0-0.1,0l-5.4,0.2c-0.4,0-0.7,0.3-0.6,0.7c0,0.4,0.3,0.7,0.7,0.6
		l5.4-0.2c0,0,0.1,0,0.1,0c0,0.2,0,0.3,0,0.3c0,0.2,0.1,0.2,0.2,0.2c0.2-0.1,0.5-0.2,0.8-0.4c0.7-0.3,1.5-0.3,2.1-0.1
		C225,133.6,225.3,133.8,226,134z M224.1,130.2c-0.1,0-0.1-0.1-0.1-0.1c0-0.1-0.1-2.6-0.1-2.7c0-0.1,0.1-0.1,0.1-0.1
		c0.1,0,1.2-0.1,1.3-0.1c0.1,0,0.1,0,0.1,0.1c0,0.1,0.1,2.6,0.1,2.7c0,0.1-0.1,0.1-0.1,0.1C225.4,130.1,224.2,130.2,224.1,130.2z
		 M220.3,133l-0.3,0c-0.2,0-0.2,0-0.2-0.3c0-0.2,0-0.3,0.2-0.3l0.3,0c0.2,0,0.2,0.1,0.2,0.3C220.5,133,220.5,133,220.3,133z
		 M218.8,132.8c0,0.2-0.2,0.4-0.3,0.4c-0.2,0-0.4-0.1-0.4-0.4c0-0.2,0.2-0.4,0.4-0.4C218.6,132.4,218.8,132.6,218.8,132.8z
		 M215.4,133c0-0.2,0.1-0.4,0.3-0.4c0.2,0,0.4,0.1,0.4,0.4c0,0.2-0.1,0.4-0.3,0.4C215.6,133.3,215.4,133.2,215.4,133z"/>
</g>
<g id="Palm_Tree_17_" opacity="0.1">
	<path fill="#666766" d="M142.8,57.7c-1,0-1.5,0.4-2,0.7c0.2-0.3,0.3-0.6,0.3-0.8c0-0.6-1.1-0.2-2.3-0.2c-1.3,0-2.4-0.3-2.3,0.3
		c0,0.1,0.1,0.3,0.2,0.5c-0.6-0.3-1.2-0.4-2.1-0.4c-3.4,0.1-2.9,5.5-5.5,7.3c1.4,0,3.4-3.5,5.5-2.9c-3.2,3.1,0.5,5.4-1.2,8.8
		c2,0.1,3.2-3.9,4.3-6.4c-0.3,5.1,1,15.2,1.4,16.5c1.1,1,3.5,0.8,3.9-0.6c-0.1-1.8-3.7-9.3-3.3-16.9c1.6,3.3,2.1,7.4,4,7.4
		c-1.4-1.7,2.1-6.8-1.1-9.3c1.2-1,3.7,3.9,5.2,3.8C144.7,61.3,144.6,57.7,142.8,57.7z"/>
	<path fill="#666766" d="M139,78.8c-0.4,0-0.8-0.1-1.2-0.2l0.2-0.4c0.7,0.4,1.6,0.2,2.5-0.1c0.9-0.2,1.7-0.4,2.3,0l-0.2,0.4
		c-0.5-0.3-1.2-0.1-2,0.1C140.1,78.7,139.6,78.8,139,78.8z"/>
	<path fill="#666766" d="M138.4,74.4c-0.3,0-0.6,0-0.9-0.2l0.2-0.4c0.5,0.2,1.2,0.1,1.8,0c0.7-0.1,1.4-0.3,1.9,0l-0.2,0.4
		c-0.4-0.2-1-0.1-1.6,0C139.2,74.3,138.7,74.4,138.4,74.4z"/>
	<path fill="#666766" d="M139.1,70c-0.3,0-0.5,0-0.8-0.1c-0.3,0-0.5-0.1-0.8,0l-0.1-0.4c0.4-0.1,0.6,0,0.9,0c0.4,0,0.8,0.1,1.6-0.1
		l0.1,0.4C139.7,70,139.4,70,139.1,70z"/>
	<path fill="#666766" d="M137.5,65.7l-0.1-0.4c0.2,0,1.8-0.3,2.4,0l-0.2,0.4C139.2,65.4,137.9,65.6,137.5,65.7z"/>
</g>
<path id="Link_Icon_18_" opacity="0.1" fill="#666766" d="M89.6,69l1.2,1.4c0.6,0.8,1.7,1,2.5,0.6l1,1.3c-0.6,0.8-0.6,1.8,0.1,2.6
	l1.2,1.4c0.7,0.9,2.1,1,3,0.3c0.9-0.7,1-2.1,0.3-3l-1.2-1.4c-0.6-0.8-1.7-1-2.5-0.6l-1-1.3c0.6-0.8,0.6-1.8-0.1-2.6l-1.2-1.4
	c-0.7-0.9-2.1-1-3-0.3C89,66.8,88.9,68.1,89.6,69z M96.9,72.8l1.2,1.4c0.4,0.5,0.3,1.2-0.1,1.5c-0.5,0.4-1.2,0.3-1.5-0.1l-1.2-1.4
	c-0.3-0.3-0.3-0.8-0.2-1.1l0.7,0.8c0.2,0.2,0.5,0.2,0.7,0.1c0.2-0.2,0.2-0.5,0.1-0.7l-0.7-0.8C96.2,72.3,96.6,72.4,96.9,72.8z
	 M92.1,66.9l1.2,1.4c0.3,0.3,0.3,0.8,0.2,1.1l-0.7-0.8c-0.2-0.2-0.5-0.2-0.7-0.1c-0.2,0.2-0.2,0.5-0.1,0.7l0.7,0.8
	c-0.4,0.1-0.8,0-1.1-0.4l-1.2-1.4c-0.4-0.5-0.3-1.2,0.1-1.5C91,66.4,91.7,66.5,92.1,66.9z"/>
<path id="Link_Icon_17_" opacity="0.1" fill="#666766" d="M39.1,211.6l-1.1,1.1c-0.6,0.6-0.7,1.6-0.3,2.3l-1,1
	c-0.7-0.4-1.6-0.3-2.3,0.3l-1.1,1.1c-0.7,0.7-0.7,1.9,0,2.6c0.7,0.7,1.9,0.7,2.6,0l1.1-1.1c0.6-0.6,0.7-1.6,0.3-2.3l1-1
	c0.7,0.4,1.7,0.3,2.3-0.3l1.1-1.1c0.7-0.7,0.7-1.9,0-2.6C41,210.8,39.8,210.8,39.1,211.6z M36.4,218.2l-1.1,1.1
	c-0.4,0.4-1,0.4-1.4,0c-0.4-0.4-0.4-1,0-1.4l1.1-1.1c0.3-0.3,0.6-0.3,1-0.2l-0.7,0.7c-0.2,0.2-0.2,0.5,0,0.6c0.2,0.2,0.5,0.2,0.6,0
	l0.7-0.7C36.7,217.6,36.6,218,36.4,218.2z M41,213.5l-1.1,1.1c-0.3,0.3-0.6,0.3-1,0.2l0.7-0.7c0.2-0.2,0.2-0.5,0-0.6
	c-0.2-0.2-0.5-0.2-0.6,0l-0.7,0.7c-0.1-0.3,0-0.7,0.2-1l1.1-1.1c0.4-0.4,1-0.4,1.4,0C41.4,212.6,41.4,213.2,41,213.5z"/>
<g id="Instagram_18_" opacity="0.1">
	<path fill="#666766" d="M227,182l4.8-7.9l-4.3-2.6l0.5-0.9l4.3,2.6c0.1-0.2,0.2-0.4,0.2-0.6l-4.2-2.6l0.5-0.9l3.9,2.4
		c0-0.3,0-0.5,0-0.8l-3.6-2.2l0.5-0.9l2.9,1.8c-0.3-1.5-1.3-2.9-2.7-3.8l-1.1-0.7l-3.2,5.2c0.6,1.6,0.5,3.5-0.5,5
		c-1,1.6-2.6,2.5-4.3,2.7l-3.2,5.2l1.1,0.7C221.6,185.6,225.3,184.8,227,182z M221,182.5c-0.1-0.1-0.1-0.2-0.1-0.3l1.3-2.2
		c0.1-0.1,0.2-0.1,0.3-0.1l2.2,1.3c0.1,0.1,0.1,0.2,0.1,0.3l-1.3,2.2c-0.1,0.1-0.2,0.1-0.3,0.1L221,182.5z"/>
	<path fill="#666766" d="M216.5,170c1.3-2.1,4.1-2.8,6.2-1.5c2.1,1.3,2.8,4.1,1.5,6.2c-1.3,2.1-4.1,2.8-6.2,1.5
		C215.9,174.8,215.2,172.1,216.5,170z M223.3,174.1c1-1.6,0.5-3.8-1.1-4.8c-1.6-1-3.8-0.5-4.8,1.2c-1,1.6-0.5,3.8,1.2,4.8
		C220.2,176.3,222.3,175.8,223.3,174.1z"/>
	<path fill="#666766" d="M219.8,178c-0.8-0.1-1.7-0.3-2.4-0.8c-2.7-1.7-3.6-5.2-1.9-7.9c1.7-2.7,5.2-3.6,7.9-1.9
		c0.8,0.5,1.4,1.1,1.8,1.8l2.9-4.7l-6.2-3.8c-2.8-1.7-6.4-0.8-8.1,1.9l-5,8.2c-1.7,2.8-0.8,6.4,1.9,8.1l6.2,3.8L219.8,178z"/>
</g>
<g id="Instagram_12_" opacity="0.1">
	<path fill="#666766" d="M142.3,16.1l-4-0.1l0,2.2l-0.4,0l0-2.2c-0.1,0-0.2,0-0.3,0l0,2.1l-0.4,0l0-2c-0.1,0-0.2,0.1-0.3,0.1l0,1.8
		l-0.4,0l0-1.5c-0.5,0.5-0.8,1.1-0.8,1.8l0,0.5l2.6,0c0.5-0.6,1.2-0.9,2-0.9c0.8,0,1.5,0.4,1.9,1l2.6,0.1l0-0.5
		C144.9,17.3,143.7,16.1,142.3,16.1z M143.8,18.2c0,0.1,0,0.1-0.1,0.1l-1.1,0c-0.1,0-0.1-0.1-0.1-0.1l0-1.1c0-0.1,0-0.1,0.1-0.1
		l1.1,0c0.1,0,0.1,0,0.1,0.1L143.8,18.2z"/>
	<path fill="#666766" d="M140.2,22.6c-1.1,0-1.9-0.9-1.9-2c0-1.1,0.9-1.9,2-1.9c1.1,0,1.9,0.9,1.9,2
		C142.1,21.7,141.2,22.6,140.2,22.6z M140.2,19.1c-0.8,0-1.5,0.6-1.5,1.5c0,0.8,0.6,1.5,1.5,1.5c0.8,0,1.5-0.6,1.5-1.5
		C141.7,19.8,141.1,19.1,140.2,19.1z"/>
	<path fill="#666766" d="M142.4,19.6c0.2,0.3,0.2,0.7,0.2,1.1c0,1.4-1.2,2.5-2.5,2.4c-1.4,0-2.5-1.2-2.4-2.5c0-0.4,0.1-0.8,0.3-1.1
		l-2.4,0l-0.1,3.1c0,1.4,1.1,2.6,2.5,2.6l4.1,0.1c1.4,0,2.6-1.1,2.6-2.5l0.1-3.1L142.4,19.6z"/>
</g>
<path opacity="0.1" fill="#666766" d="M266,256.6c1.3-1.6,1.1-4.1-0.6-5.4c-1.3-1.1-3.1-1.1-4.5-0.2c0,0,0,0,0,0
	c0.6,0.7,1.1,1.5,1.7,2.2c0.7,0.1,1.4,0.6,0.9,1.3c-0.1,0.2-0.4,0.3-0.5,0.1c-0.3-0.2-0.5-0.5-0.7-0.8c-0.1,0-0.2,0-0.2,0
	c-0.5,0-0.6,0.4-0.5,0.8c0.2,0.7,1.1,1.5,1.8,1.3c0.8-0.1,1.6-1.2,1.4-2.1c-0.1-0.3-0.3-0.5-0.5-0.7c-0.4-0.3-0.6-0.3-1.1-0.1
	c-0.4,0.2-0.7-0.5-0.3-0.7c1.2-0.6,2.6,0.5,2.6,1.8c0,1.4-1.4,2.8-2.8,2.4c-1.2-0.3-2.7-2-1.5-3.2c0.1-0.1,0.3-0.2,0.5-0.3
	c-0.5-0.6-0.9-1.2-1.4-1.8c0,0,0,0,0,0c-0.1,0.1-0.2,0.2-0.4,0.4c-1.3,1.6-1.1,4.1,0.6,5.4C262.3,258.5,264.7,258.2,266,256.6z"/>
<path opacity="0.1" fill="#666766" d="M39.1,1.4c-1.7,1-2.3,3.1-1.3,4.8c0.8,1.3,2.3,2,3.8,1.7c0,0,0,0,0-0.1
	c-0.2-0.8-0.5-1.6-0.7-2.4c-0.6-0.4-1-1-0.4-1.4c0.2-0.1,0.4-0.1,0.5,0.1c0.1,0.3,0.3,0.6,0.4,0.9c0.1,0,0.1,0.1,0.2,0.1
	c0.4,0.1,0.6-0.2,0.7-0.6c0.1-0.7-0.4-1.6-1.1-1.8c-0.8-0.2-1.8,0.5-1.9,1.3c0,0.3,0.1,0.5,0.2,0.7c0.2,0.4,0.4,0.5,0.9,0.5
	c0.4,0,0.4,0.6,0,0.7C39,6,38.2,4.6,38.6,3.6c0.5-1.2,2.2-1.9,3.2-1.1c0.9,0.7,1.6,2.7,0.2,3.3c-0.1,0.1-0.3,0.1-0.5,0.1
	c0.2,0.7,0.4,1.3,0.6,2c0,0,0,0,0,0c0.1-0.1,0.3-0.1,0.4-0.2c1.7-1,2.3-3.1,1.3-4.8C42.9,1,40.7,0.5,39.1,1.4z"/>
<path id="Spotify_26_" opacity="0.1" fill="#666766" d="M167.7,43.5c-0.9-1.5-2.8-2-4.3-1.1c-1.5,0.9-2,2.8-1.1,4.3
	c0.9,1.5,2.8,2,4.3,1.1C168.1,46.9,168.6,45,167.7,43.5z M164.2,47.1c-0.1,0-0.2-0.1-0.3-0.1c0,0,0-0.1,0-0.1c0-0.4-0.1-0.8-0.2-1.2
	c-0.1-0.4-0.3-0.8-0.6-1.1c-0.1-0.1-0.1-0.3,0-0.4c0.1-0.1,0.3-0.1,0.4,0c0.3,0.4,0.5,0.8,0.7,1.3c0.2,0.5,0.3,0.9,0.3,1.4
	C164.5,47,164.3,47.1,164.2,47.1z M165.4,47.2c-0.1,0-0.2-0.1-0.3-0.1c0,0,0-0.1,0-0.1c0-0.6-0.1-1.2-0.3-1.7
	c-0.2-0.6-0.5-1.1-0.9-1.5c-0.1-0.1-0.1-0.3,0-0.4c0.1-0.1,0.3-0.1,0.4,0c0.4,0.5,0.7,1.1,0.9,1.7c0.2,0.6,0.3,1.3,0.4,1.9
	C165.7,47.1,165.6,47.2,165.4,47.2z M166.3,46.9c0,0,0-0.1,0-0.1c0-0.7-0.1-1.4-0.4-2c-0.2-0.7-0.6-1.3-1-1.8
	c-0.1-0.1-0.1-0.3,0-0.4c0.1-0.1,0.3-0.1,0.4,0c0.5,0.6,0.8,1.2,1.1,2c0.3,0.7,0.4,1.5,0.4,2.2c0,0.2-0.1,0.3-0.3,0.3
	C166.5,47.1,166.4,47,166.3,46.9z"/>
<path id="Spotify_25_" opacity="0.1" fill="#666766" d="M81,215.5c1.5-2,1.1-4.9-0.9-6.4c-2-1.5-4.9-1.1-6.4,0.9
	c-1.5,2-1.1,4.9,0.9,6.4C76.7,217.9,79.5,217.5,81,215.5z M74.3,212.7c-0.1-0.1,0-0.3,0.1-0.4c0-0.1,0.1-0.1,0.2-0.1
	c0.6-0.2,1.1-0.6,1.5-1c0.5-0.4,0.8-0.9,1.1-1.4c0.1-0.2,0.4-0.3,0.6-0.2c0.2,0.1,0.3,0.4,0.2,0.6c-0.3,0.6-0.8,1.2-1.3,1.6
	c-0.5,0.5-1.1,0.8-1.8,1.1C74.6,213,74.3,212.9,74.3,212.7z M74.8,214.4c-0.1-0.1,0-0.3,0.1-0.4c0-0.1,0.1-0.1,0.2-0.1
	c0.8-0.3,1.5-0.8,2.2-1.4c0.6-0.6,1.2-1.2,1.6-2c0.1-0.2,0.4-0.3,0.6-0.2c0.2,0.1,0.3,0.4,0.2,0.6c-0.5,0.8-1.1,1.6-1.8,2.2
	c-0.7,0.6-1.5,1.1-2.4,1.5C75.1,214.7,74.9,214.6,74.8,214.4z M75.6,215.5c0-0.1,0.1-0.1,0.2-0.1c0.9-0.4,1.8-0.9,2.5-1.6
	c0.7-0.7,1.4-1.4,1.9-2.3c0.1-0.2,0.4-0.3,0.6-0.2c0.2,0.1,0.3,0.4,0.2,0.6c-0.5,0.9-1.2,1.8-2,2.5c-0.8,0.7-1.7,1.3-2.7,1.7
	c-0.2,0.1-0.5,0-0.6-0.2C75.5,215.8,75.6,215.6,75.6,215.5z"/>
<path id="Spotify_20_" opacity="0.1" fill="#666766" d="M227.2,236.7c-1.1,0.4-1.6,1.6-1.3,2.6c0.4,1.1,1.6,1.6,2.6,1.3
	c1.1-0.4,1.6-1.6,1.3-2.6C229.5,236.9,228.3,236.3,227.2,236.7z M229.1,239.5c0,0.1-0.1,0.1-0.1,0.1c0,0-0.1,0-0.1,0
	c-0.3,0-0.5,0-0.8,0c-0.3,0-0.5,0.1-0.8,0.3c-0.1,0-0.2,0-0.3-0.1c0-0.1,0-0.2,0.1-0.3c0.3-0.1,0.6-0.2,0.9-0.3c0.3,0,0.6,0,0.9,0
	C229,239.3,229.1,239.4,229.1,239.5z M229.3,238.7c0,0.1-0.1,0.1-0.1,0.2c0,0-0.1,0-0.1,0c-0.4-0.1-0.8-0.1-1.2,0
	c-0.4,0.1-0.8,0.2-1.1,0.4c-0.1,0-0.2,0-0.3-0.1c0-0.1,0-0.2,0.1-0.3c0.4-0.2,0.8-0.3,1.2-0.4c0.4-0.1,0.9-0.1,1.3,0
	C229.3,238.5,229.3,238.6,229.3,238.7z M229.3,238.1C229.2,238.1,229.2,238.1,229.3,238.1c-0.5-0.1-1-0.1-1.4,0
	c-0.4,0.1-0.9,0.2-1.3,0.4c-0.1,0-0.2,0-0.3-0.1c0-0.1,0-0.2,0.1-0.3c0.4-0.2,0.9-0.4,1.4-0.5c0.5-0.1,1-0.1,1.5,0
	c0.1,0,0.2,0.1,0.2,0.2C229.4,238,229.3,238.1,229.3,238.1z"/>
<g id="Pie_Chart_18_" opacity="0.1">
	<path fill="#666766" d="M116.5,81c-0.3-3.8-3.7-6.7-7.5-6.4l0.6,7L116.5,81z"/>
	<path fill="#666766" d="M108.3,75.5c-3.8,0.3-6.7,3.7-6.4,7.5c0.3,3.8,3.7,6.7,7.5,6.4c2-0.2,3.8-1.2,4.9-2.7l-5.5-4.3L108.3,75.5z
		"/>
	<path fill="#666766" d="M115.6,86.6c1-1.3,1.6-3,1.4-4.9l-7,0.6L115.6,86.6z"/>
</g>
<g id="Pie_Chart_13_" opacity="0.1">
	<path fill="#666766" d="M160.2,245.4c1.1-1.6,0.7-3.8-0.8-4.9l-2,2.9L160.2,245.4z"/>
	<path fill="#666766" d="M158.8,240.6c-1.6-1.1-3.8-0.7-4.9,0.8c-1.1,1.6-0.7,3.8,0.8,4.9c0.8,0.6,1.8,0.8,2.8,0.6l-0.7-3.4
		L158.8,240.6z"/>
	<path fill="#666766" d="M158.1,247.2c0.8-0.2,1.6-0.7,2.1-1.4l-2.9-2L158.1,247.2z"/>
</g>
<g id="Bar_Chart_18_" opacity="0.1">
	
		<rect x="70.4" y="113.5" transform="matrix(0.282 -0.9594 0.9594 0.282 -61.6641 154.5102)" fill="#666766" width="4.1" height="9.8"/>
	
		<rect x="68.8" y="104.9" transform="matrix(0.2827 -0.9592 0.9592 0.2827 -57.5073 148.8805)" fill="#666766" width="4.1" height="16"/>
	
		<rect x="71.5" y="102" transform="matrix(0.2815 -0.9596 0.9596 0.2815 -51.3683 148.6314)" fill="#666766" width="4.1" height="13.1"/>
	
		<rect x="75.4" y="100.6" transform="matrix(0.2815 -0.9596 0.9596 0.2815 -44.8127 149.4698)" fill="#666766" width="4.1" height="8"/>
</g>
<g id="Bar_Chart_14_" opacity="0.1">
	
		<rect x="192.9" y="152.8" transform="matrix(-0.6231 0.7821 -0.7821 -0.6231 434.5277 98.9043)" fill="#666766" width="1.1" height="2.6"/>
	
		<rect x="192.7" y="153.5" transform="matrix(-0.6221 0.783 -0.783 -0.6221 435.3932 101.1981)" fill="#666766" width="1.1" height="4.3"/>
	
		<rect x="191.6" y="154.7" transform="matrix(-0.6221 0.7829 -0.7829 -0.6221 434.1982 103.3512)" fill="#666766" width="1.1" height="3.5"/>
	
		<rect x="190.3" y="156" transform="matrix(-0.6219 0.7831 -0.7831 -0.6219 432.4656 105.3177)" fill="#666766" width="1.1" height="2.1"/>
</g>
<path id="Smile_12_" opacity="0.1" fill="#666766" d="M84.1,232.4c1.8,0.8,3.9-0.1,4.7-1.9c0.8-1.8-0.1-3.9-1.9-4.7
	c-1.8-0.8-3.9,0.1-4.7,1.9C81.5,229.5,82.3,231.6,84.1,232.4z M83.6,230.3c-0.4-0.2-0.6-0.6-0.4-1c0.2-0.4,0.6-0.6,1-0.4
	c0.4,0.2,0.6,0.6,0.4,1C84.4,230.3,84,230.5,83.6,230.3z M86,231.4c-0.4-0.2-0.6-0.6-0.4-1c0.2-0.4,0.6-0.6,1-0.4
	c0.4,0.2,0.6,0.6,0.4,1C86.9,231.4,86.4,231.5,86,231.4z M86.7,226.4c1.1,0.5,1.8,1.5,1.8,2.7c0,0.4-0.1,0.8-0.2,1.2l-0.5-0.2
	c0.1-0.3,0.2-0.6,0.2-0.9c0-0.9-0.6-1.8-1.4-2.1c-0.9-0.4-1.9-0.2-2.5,0.5c-0.2,0.2-0.4,0.5-0.5,0.8l-0.5-0.2c0.2-0.4,0.4-0.7,0.7-1
	C84.4,226.2,85.6,226,86.7,226.4z"/>
<path id="Smile_11_" opacity="0.1" fill="#666766" d="M241.2,71.6c-1.8-2.6-5.3-3.3-7.9-1.6c-2.6,1.8-3.3,5.3-1.6,7.9
	c1.8,2.6,5.3,3.3,7.9,1.6C242.2,77.8,242.9,74.3,241.2,71.6z M240.1,74.9c0.4,0.6,0.2,1.3-0.3,1.7c-0.6,0.4-1.3,0.2-1.7-0.3
	c-0.4-0.6-0.2-1.3,0.3-1.7C239,74.1,239.7,74.3,240.1,74.9z M237.8,71.4c0.4,0.6,0.2,1.3-0.3,1.7c-0.6,0.4-1.3,0.2-1.7-0.3
	c-0.4-0.6-0.2-1.3,0.3-1.7C236.7,70.7,237.4,70.8,237.8,71.4z M232.6,77.4c-1-1.5-1-3.5,0-5.1c0.3-0.5,0.8-1,1.3-1.3l0.5,0.7
	c-0.4,0.3-0.8,0.6-1.1,1.1c-0.8,1.3-0.8,2.9,0,4.1c0.8,1.3,2.3,1.9,3.8,1.6c0.5-0.1,1-0.3,1.4-0.6l0.5,0.7c-0.5,0.3-1.1,0.6-1.7,0.7
	C235.5,79.7,233.6,78.9,232.6,77.4z"/>
<path id="Star_22_" opacity="0.1" fill="#666766" d="M101.2,8.2c0.1-0.4,5.2-1.6,5.2-1.6s1.3-5.1,1.7-5.2c0.4-0.1,3.1,4.5,3.1,4.5
	s5.3-0.4,5.5,0c0.2,0.4-3.3,4.3-3.3,4.3s2.1,4.9,1.7,5.2c-0.4,0.3-5.1-1.8-5.1-1.8s-4,3.4-4.4,3.2c-0.4-0.2,0.1-5.5,0.1-5.5
	S101.1,8.6,101.2,8.2z"/>
<path id="Star_17_" opacity="0.1" fill="#666766" d="M152.7,218.6c0.1-0.2,3.1,0.2,3.1,0.2s1.7-2.5,2-2.5c0.2,0,0.8,3.1,0.8,3.1
	s2.9,0.8,2.9,1.1c0,0.3-2.7,1.7-2.7,1.7s0.1,3.1-0.2,3.1c-0.3,0.1-2.4-2-2.4-2s-2.9,1-3,0.8c-0.2-0.2,1.2-2.9,1.2-2.9
	S152.6,218.9,152.7,218.6z"/>
<g id="_x40__18_" opacity="0.1">
	<path fill="#666766" d="M1.9,89.9c-4,4.1-1,10.7,3.9,12.4c5,1.7,11.1-2.6,9.8-8c-0.2-0.8-1.6-0.7-1.4,0.2c1.1,4.6-3.4,7.4-7.5,6.7
		c-4.3-0.7-6.6-6-4.3-9.6c1.8-2.9,5.7-3.5,8.5-1.7c0.6,0.4,1.1,0.8,1.5,1.3c0.9,1,0,2.1-1.3,1.6c-1.6-0.6-3-1.7-4.7-2.1
		c-0.8-0.2-1,0.8-0.5,1.2c-1.4,0.5-2.2,1.8-2,3.4c0.3,2.1,2.7,3.5,4.7,3.4c2.1-0.1,3.8-1.7,3.3-3.8c0-0.2-0.1-0.5-0.2-0.7
		c0.5,0,1-0.1,1.5-0.3c1.6-0.7,1.2-2.4,0.4-3.5C10.7,86.5,5,86.7,1.9,89.9z M10.4,94.9c0.7,1.4-0.6,2.4-1.8,2.5
		c-1.4,0.1-2.9-0.7-3.4-2c-0.4-1.2,0.5-2,1.5-2.3c0.1,0,0.1,0,0.2,0C8.1,93,9.8,93.8,10.4,94.9z"/>
</g>
<g id="_x40__14_" opacity="0.1">
	<path fill="#666766" d="M258.9,168.9c1.6-2,0.1-4.8-2.2-5.4c-2.3-0.6-4.9,1.5-4.1,4c0.1,0.4,0.7,0.3,0.6-0.1
		c-0.7-2,1.3-3.4,3.1-3.3c2,0.2,3.2,2.4,2.3,4.1c-0.7,1.4-2.4,1.8-3.7,1.1c-0.3-0.1-0.5-0.3-0.7-0.5c-0.4-0.4-0.1-0.9,0.5-0.8
		c0.8,0.2,1.4,0.6,2.2,0.8c0.3,0.1,0.4-0.4,0.2-0.6c0.6-0.3,0.9-0.9,0.8-1.6c-0.2-0.9-1.3-1.5-2.2-1.4c-0.9,0.1-1.6,0.9-1.3,1.8
		c0,0.1,0.1,0.2,0.1,0.3c-0.2,0-0.4,0.1-0.6,0.2c-0.7,0.4-0.5,1.1,0,1.6C255.1,170.7,257.6,170.4,258.9,168.9z M254.9,167
		c-0.4-0.6,0.2-1.1,0.7-1.2c0.6-0.1,1.3,0.2,1.6,0.8c0.2,0.5-0.1,0.9-0.6,1.1c0,0-0.1,0-0.1,0C256,167.7,255.2,167.4,254.9,167z"/>
</g>
<g id="Paperclip_34_" opacity="0.1">
	<path fill="#666766" d="M208.2,27.4c0.8,0.6,1,1.7,0.5,2.6l-3.8,5.4c-0.5,0.7-1.4,0.8-2,0.4c-0.7-0.5-0.8-1.4-0.4-2l3.4-4.9
		c0.3-0.5,1-0.6,1.5-0.3c0.5,0.3,0.6,1,0.3,1.5l-2.3,3.3l-0.4-0.3l2.3-3.3c0.2-0.2,0.1-0.6-0.1-0.7c-0.2-0.2-0.6-0.1-0.7,0.1
		l-3.4,4.9c-0.3,0.4-0.2,1,0.2,1.3c0.4,0.3,1,0.2,1.3-0.2l3.8-5.4c0.4-0.6,0.3-1.4-0.3-1.9c-0.6-0.4-1.4-0.3-1.9,0.3l-2.5,3.6
		l-0.4-0.3l2.5-3.6C206.2,27,207.4,26.8,208.2,27.4z"/>
</g>
<g id="Paperclip_33_" opacity="0.1">
	<path fill="#666766" d="M186.3,203.4c-1.2,0.6-2.7,0-3.2-1.2l-3.6-8c-0.4-1,0-2.1,1-2.6c1-0.4,2.1,0,2.6,1l3.3,7.2
		c0.3,0.7,0,1.5-0.7,1.8c-0.7,0.3-1.5,0-1.8-0.7l-2.2-4.9l0.6-0.3l2.2,4.9c0.2,0.4,0.6,0.5,0.9,0.4c0.4-0.2,0.5-0.6,0.4-0.9
		l-3.3-7.2c-0.3-0.6-1-0.9-1.6-0.6c-0.6,0.3-0.9,1-0.6,1.6l3.6,8c0.4,0.9,1.4,1.3,2.3,0.9c0.9-0.4,1.3-1.4,0.9-2.3l-2.4-5.3l0.6-0.3
		l2.4,5.3C188.1,201.4,187.5,202.8,186.3,203.4z"/>
</g>
<path id="Heart_18_" opacity="0.1" fill="#666766" d="M55.2,96.5c4.1,2,4,7.9,4,7.9s-4.6,3.7-8.7,1.6c-2.6-1.3-2.9-4.5,0.5-5.6
	C49.9,97.1,52.6,95.2,55.2,96.5z"/>
<path id="Heart_13_" opacity="0.1" fill="#666766" d="M141.7,5.7c0.1,3-3.2,4.7-3.2,4.7s-3.5-1.4-3.6-4.4c-0.1-1.9,1.6-3,3.3-1.4
	C139.7,2.9,141.6,3.8,141.7,5.7z"/>
<path opacity="0.1" fill="#666766" d="M274.6,92.4c-1.2-0.3-2.3-0.8-3.5-1.2c0.2-0.5,0.4-1,0.6-1.5c0.3-0.6,0.5-1.3,0.9-1.8
	c0.3-0.4-0.3-0.9-0.6-0.5c-0.8,1.1-1.2,2.5-1.7,3.7c0,0-0.1,0-0.1,0.1c-0.3-0.7-0.5-1.4-0.9-2c-0.3-0.4-0.9,0.1-0.6,0.5
	c0.4,0.6,0.6,1.2,0.8,1.9c-0.2,0.1-0.4,0.2-0.6,0.3c-0.3-0.6-0.5-1.3-0.8-1.9c-0.2-0.5-0.9-0.2-0.7,0.3c0.2,0.7,0.5,1.3,0.8,1.9
	c-0.8,0.3-1.5,0.6-2.3,0.9c-0.5,0.2-0.2,0.9,0.3,0.7c0.8-0.3,1.5-0.6,2.3-0.9c0.3,0.7,0.6,1.4,0.8,2.1c0.2,0.5,0.9,0.2,0.7-0.3
	c-0.2-0.7-0.5-1.4-0.8-2.1c0.2-0.1,0.4-0.2,0.6-0.3c0.3,0.7,0.6,1.3,0.8,2c0.2,0.5,0.9,0.2,0.7-0.3c-0.2-0.7-0.5-1.4-0.8-2
	c0,0,0.1,0,0.1,0c1.3,0.4,2.6,1,3.9,1.3C274.9,93.3,275.1,92.5,274.6,92.4z"/>
<path opacity="0.1" fill="#666766" d="M19.7,175.6c0.9,0.2,1.7,0.5,2.6,0.7c-0.1,0.4-0.3,0.7-0.4,1.1c-0.2,0.5-0.3,1-0.6,1.4
	c-0.2,0.3,0.3,0.6,0.5,0.3c0.5-0.8,0.7-1.9,1.1-2.8c0,0,0.1,0,0.1,0c0.2,0.5,0.4,1,0.8,1.4c0.2,0.3,0.7-0.1,0.4-0.4
	c-0.3-0.4-0.5-0.9-0.7-1.3c0.1-0.1,0.3-0.1,0.4-0.2c0.2,0.4,0.5,0.9,0.6,1.4c0.1,0.4,0.7,0.1,0.5-0.2c-0.2-0.5-0.4-0.9-0.6-1.4
	c0.5-0.3,1.1-0.5,1.6-0.7c0.3-0.1,0.1-0.7-0.2-0.5c-0.6,0.2-1.1,0.5-1.6,0.7c-0.2-0.5-0.5-1-0.7-1.5c-0.1-0.3-0.7-0.1-0.5,0.2
	c0.2,0.5,0.4,1,0.7,1.5c-0.1,0.1-0.3,0.1-0.4,0.2c-0.2-0.5-0.5-0.9-0.7-1.4c-0.1-0.3-0.7-0.1-0.5,0.2c0.2,0.5,0.4,1,0.7,1.4
	c0,0-0.1,0-0.1,0c-1-0.2-1.9-0.6-2.9-0.8C19.4,174.9,19.3,175.5,19.7,175.6z"/>
<path opacity="0.1" fill="#666766" d="M82.6,37.3c-0.6-0.8-1.2-1.6-1.8-2.3c0.3-0.1,0.6,0,0.8,0.2c0.3,0.4,1-0.1,0.6-0.5
	c-0.5-0.6-1.2-0.7-1.9-0.4c-0.1-0.1-0.2-0.3-0.3-0.4c-0.3-0.4-0.9,0.1-0.6,0.5c0.1,0.1,0.2,0.2,0.2,0.3c-0.1,0.1-0.2,0.2-0.3,0.2
	c-0.1-0.1-0.2-0.2-0.2-0.3c-0.3-0.4-0.9,0.1-0.6,0.5c0.1,0.2,0.2,0.3,0.4,0.5c-0.6,1-0.6,2.3,0.9,3c0.5,0.2,0.9,0.2,1.4,0.1
	c0.6,0.8,1.1,1.5,1.7,2.3c-0.6,0.1-1.2,0-1.5-0.6c-0.2-0.4-0.9,0-0.6,0.5c0.6,1,1.6,1.2,2.6,0.8c0.1,0.1,0.2,0.3,0.3,0.4
	c0.3,0.4,0.9-0.1,0.6-0.5c-0.1-0.1-0.2-0.2-0.2-0.3c0.1-0.1,0.2-0.1,0.3-0.2c0.1,0.1,0.2,0.2,0.2,0.3c0.3,0.4,0.9,0,0.6-0.5
	c-0.1-0.1-0.2-0.3-0.3-0.4c0.4-0.5,0.6-1,0.6-1.5C85.5,37.4,83.8,37,82.6,37.3z M80.2,35.3c0.6,0.8,1.1,1.5,1.7,2.3
	c-0.1,0-0.3,0.1-0.4,0.1c-0.5-0.7-1.1-1.4-1.6-2.1C80,35.5,80.1,35.4,80.2,35.3z M79.3,36.9c0-0.2,0-0.4,0.1-0.6
	c0.4,0.6,0.8,1.1,1.2,1.7C80,38,79.5,37.8,79.3,36.9z M83.7,40.7c-0.6-0.8-1.1-1.5-1.7-2.3c0.1,0,0.2-0.1,0.4-0.2
	c0.6,0.7,1.1,1.5,1.6,2.2C83.9,40.6,83.8,40.6,83.7,40.7z M84.8,39c0,0.3,0,0.6-0.2,0.9c-0.5-0.6-0.9-1.2-1.4-1.9
	C83.9,37.9,84.6,38.1,84.8,39z"/>
<path opacity="0.1" fill="#666766" d="M69.8,136.5c0.2,0.9-0.4,1.9-0.4,2.7c-0.1,0.5,0.1,1,0.3,1.5c-1-0.2-1.9-0.8-3-0.7
	c0-0.4-0.1-0.8-0.1-1.2c0-0.7-1.1-0.6-1,0.1c0,0.4,0.1,0.9,0.1,1.3c-0.9,0.4-1.6,1-2.6,1.2c-1.4,0.3-1.7-1.4-1.3-2.2
	c0.3-0.6,0.8-1,1.3-1.3c0.6-0.3,0-1.2-0.6-0.9c-1.7,1-3.1,3.6-0.8,4.9c1.2,0.7,2.2,0.4,3.3-0.2c0.3-0.2,0.6-0.3,0.8-0.4
	c0,0.3,0.1,0.6,0.1,0.9c0,0.7,1.1,0.6,1-0.1c0-0.4-0.1-0.7-0.1-1.1c0.6,0,1.1,0.1,1.9,0.4c0.7,0.3,1.3,0.4,2.1,0.4
	c0.4,0,0.6-0.5,0.4-0.8c-1.4-1.7,0.2-3.1-0.3-4.9C70.6,135.5,69.6,135.8,69.8,136.5z"/>
<path opacity="0.1" fill="#666766" d="M72.7,256.9c0.7,0.2,1.2,0.9,1.8,1.3c0.4,0.2,0.8,0.3,1.1,0.3c-0.6,0.6-1.2,1.1-1.6,1.9
	c-0.3-0.1-0.6-0.2-0.9-0.4c-0.5-0.2-0.8,0.6-0.3,0.8c0.3,0.1,0.7,0.3,1,0.4c-0.1,0.8,0.1,1.5-0.1,2.3c-0.3,1.1-1.6,0.7-2.1,0.1
	c-0.3-0.4-0.4-0.9-0.4-1.4c0-0.5-0.9-0.4-0.8,0.1c0.1,1.6,1.4,3.5,3.2,2.4c1-0.6,1.1-1.4,1-2.5c0-0.3,0-0.5,0-0.7
	c0.2,0.1,0.4,0.2,0.7,0.3c0.5,0.2,0.8-0.6,0.3-0.8c-0.3-0.1-0.5-0.2-0.8-0.3c0.2-0.4,0.5-0.8,0.9-1.2c0.4-0.4,0.8-0.8,1.1-1.3
	c0.1-0.3-0.1-0.6-0.4-0.6c-1.8,0.4-2.2-1.3-3.6-1.6C72.3,256,72.2,256.8,72.7,256.9z"/>
<g id="Email_22_" opacity="0.1">
	<path fill="#666766" d="M179.2,216.7l-2.6,5.1c0.1,0,0.3,0,0.4,0l7.4-3c0.1-0.1,0.2-0.2,0.3-0.3L179.2,216.7z"/>
	<path fill="#666766" d="M178.9,216.1l5.7,1.9c0,0,0,0,0-0.1l-2-5c-0.1-0.3-0.5-0.5-0.8-0.3l-7.4,3c-0.3,0.1-0.5,0.5-0.3,0.8l2,5
		c0,0,0,0,0,0.1L178.9,216.1z"/>
</g>
<g id="Email_16_" opacity="0.1">
	<path fill="#666766" d="M142.9,94.4l7.9-7.4c-0.2-0.1-0.4-0.2-0.7-0.2l-15,0.5c-0.3,0-0.5,0.1-0.7,0.3L142.9,94.4z"/>
	<path fill="#666766" d="M143,95.5l-8.9-7.1c0,0,0,0.1,0,0.1l0.4,10c0,0.6,0.6,1.1,1.2,1.1l15-0.5c0.6,0,1.1-0.6,1.1-1.2l-0.4-10
		c0-0.1,0-0.1,0-0.1L143,95.5z"/>
</g>
<path opacity="0.1" fill="#666766" d="M225.9,147.6c-0.3,1.1,0.3,2.3,1.5,2.6l5.6,1.6c1.1,0.3,2.3-0.3,2.6-1.5
	c0.3-1.1-0.3-2.3-1.5-2.6l-5.6-1.6C227.4,145.8,226.2,146.5,225.9,147.6z M226.3,147.7c0.3-0.9,1.2-1.4,2-1.1l2.8,0.8l-0.9,3.2
	l-2.8-0.8C226.6,149.5,226.1,148.6,226.3,147.7z"/>
<path opacity="0.1" fill="#666766" d="M117.1,214.1c-1.4-1.1-3.4-0.9-4.5,0.5l-4.3,5.4l0.4-2c0.4-1.7-0.7-3.4-2.4-3.8
	c-1.1-0.2-2.2,0.1-3,0.9c-0.4,0.4-0.7,1-0.9,1.6l-1.9,8.6c-0.4,1.7,0.7,3.4,2.4,3.8c1.1,0.2,2.2-0.1,3-0.9c0.4-0.4,0.7-1,0.8-1.6
	l0.3-1.1c0.1,0.2,0.3,0.4,0.5,0.5c1.3,1,3.1,0.9,4.3-0.2c0.1-0.1,0.2-0.2,0.2-0.3l5.5-6.8c0.5-0.7,0.8-1.5,0.7-2.3
	C118.2,215.4,117.8,214.7,117.1,214.1z M103.2,216.8c0.1-0.5,0.3-0.9,0.7-1.2c0.6-0.6,1.5-0.9,2.3-0.7c1.3,0.3,2.2,1.6,1.9,3
	l-0.7,3.4l-0.1,0.1c-0.9-1.1-3.6-1.8-4.8-1.1L103.2,216.8z M114.4,221.5l-2.8,3.6c-0.9,1.1-2.4,1.2-3.5,0.4
	c-1.1-0.9-1.2-2.4-0.4-3.5l2.8-3.5C112.2,218.9,113.6,219.8,114.4,221.5z"/>
<path opacity="0.1" fill="#666766" d="M220.2,7.7c0.3-1-0.2-2.1-1.2-2.4L215.2,4l1.2-0.2c1-0.1,1.8-1.1,1.6-2.2
	c-0.1-0.7-0.5-1.2-1.1-1.5C216.6,0,216.2,0,215.8,0l-5.2,0.7c-1,0.1-1.8,1.1-1.6,2.1c0.1,0.7,0.5,1.2,1.1,1.5
	c0.3,0.2,0.7,0.2,1.1,0.2l0.7-0.1c-0.1,0.1-0.1,0.2-0.2,0.4c-0.3,0.9,0.1,1.9,1,2.3c0.1,0,0.1,0.1,0.2,0.1l5,1.7
	c0.5,0.2,1,0.1,1.5-0.1C219.7,8.6,220.1,8.2,220.2,7.7z M215.9,0.4c0.3,0,0.6,0,0.8,0.1c0.5,0.2,0.8,0.6,0.8,1.1
	c0.1,0.8-0.5,1.6-1.3,1.7l-2,0.3l-0.1,0c0.4-0.7,0.3-2.4-0.4-2.9L215.9,0.4z M215.6,7.7L213,6.8c-0.8-0.3-1.2-1.1-0.9-1.9
	c0.3-0.8,1.1-1.2,1.9-0.9l2.6,0.9C216.6,5.9,216.4,6.9,215.6,7.7z"/>
<g id="Battery_22_" opacity="0.1">
	<path fill="#666766" d="M199.3,113.1c-0.7-1.6-0.9-3.2-0.6-4.1l-12,5.2c-0.8,0.4-0.8,2.3,0.1,4.4c0.9,2,2.3,3.4,3.1,3l12-5.2
		C201,116,200,114.8,199.3,113.1z M187.8,118.3l-0.2-0.4l2-0.9l0.2,0.4L187.8,118.3z"/>
	<g>
		<path fill="#666766" d="M207.7,109.4c-0.3-0.6-0.6-0.9-0.7-0.9c-0.1,0-0.1,0.5,0.1,1.1c0.3,0.6,0.6,0.9,0.7,0.9
			C207.9,110.5,208,110.1,207.7,109.4z"/>
		<path fill="#666766" d="M204.7,110.8c-0.8-1.7-0.9-3.4-0.4-4.2l-4.9,2.1c-0.6,0.4-0.6,2.2,0.3,4.3c0.9,2.1,2.2,3.2,2.9,3.1
			l4.9-2.1C206.6,113.7,205.5,112.5,204.7,110.8z M202.5,112.9l-0.3-0.8l-0.8,0.4l-0.2-0.4l0.8-0.3l-0.3-0.8l0.4-0.2l0.4,0.8
			l0.8-0.4l0.2,0.4l-0.8,0.4l0.4,0.8L202.5,112.9z"/>
		<path fill="#666766" d="M206.1,110.1c0.3,0.6,0.6,0.9,0.7,0.9l0.5-0.2c-0.2-0.2-0.5-0.5-0.6-0.9c-0.2-0.4-0.3-0.7-0.2-1.1L206,109
			C205.9,109.1,205.9,109.5,206.1,110.1z"/>
		<path fill="#666766" d="M205.1,110.6c0.9,2.1,2.2,3.2,2.8,2.9c0.5-0.2,0.6-1.3,0.3-2.7c0,0.1-0.1,0.1-0.2,0.1l-1,0.4
			c-0.5,0.2-1-0.4-1.3-1.1c-0.3-0.7-0.4-1.5,0.1-1.7l1-0.5c0.1,0,0.1,0,0.2,0c-0.8-1.2-1.7-1.8-2.1-1.6
			C204.3,106.8,204.2,108.5,205.1,110.6z"/>
	</g>
</g>
<g id="Battery_17_" opacity="0.1">
	<path fill="#666766" d="M29.7,246.2c0.7,0.6,1.1,1.2,1.1,1.7l4.1-4.8c0.3-0.3-0.1-1.2-0.9-1.9c-0.8-0.7-1.7-1-2-0.7l-4.1,4.8
		C28.3,245.3,29,245.6,29.7,246.2z M33.6,241.5l0.2,0.1l-0.7,0.8l-0.2-0.1L33.6,241.5z"/>
	<g>
		<path fill="#666766" d="M26.8,249.5c0.2,0.2,0.5,0.3,0.5,0.2c0,0-0.1-0.2-0.3-0.4c-0.2-0.2-0.5-0.3-0.5-0.2
			C26.5,249.1,26.6,249.3,26.8,249.5z"/>
		<path fill="#666766" d="M27.8,248.3c0.7,0.6,1.1,1.3,1.1,1.7l1.7-1.9c0.1-0.3-0.2-1.1-1-1.8c-0.8-0.7-1.6-1-1.9-0.8l-1.7,1.9
			C26.4,247.4,27.2,247.7,27.8,248.3z M28.3,246.9l0.3,0.3l0.3-0.3l0.2,0.1l-0.3,0.3l0.3,0.3l-0.1,0.2l-0.3-0.3l-0.3,0.3l-0.2-0.1
			l0.3-0.3l-0.3-0.3L28.3,246.9z"/>
		<path fill="#666766" d="M27.3,248.9c-0.2-0.2-0.5-0.3-0.5-0.2l-0.2,0.2c0.1,0,0.3,0.1,0.5,0.3c0.1,0.1,0.3,0.3,0.3,0.4l0.2-0.2
			C27.7,249.3,27.6,249.1,27.3,248.9z"/>
		<path fill="#666766" d="M27.7,248.5c-0.8-0.7-1.6-0.9-1.8-0.7c-0.2,0.2,0,0.7,0.4,1.2c0,0,0-0.1,0-0.1l0.4-0.4
			c0.2-0.2,0.5,0,0.8,0.2c0.3,0.2,0.5,0.6,0.3,0.8l-0.4,0.4c0,0,0,0-0.1,0.1c0.6,0.4,1.1,0.4,1.3,0.3
			C28.9,250,28.5,249.2,27.7,248.5z"/>
	</g>
</g>
<path id="Phone_26_" opacity="0.1" fill="#666766" d="M44.7,52.7l-2,2.3c-0.4,0.4-0.3,1,0.1,1.4l5.1,4.5c0.4,0.4,1,0.3,1.4-0.1
	l2-2.3c0.4-0.4,0.3-1-0.1-1.4L46,52.6C45.6,52.3,45,52.3,44.7,52.7z M49.8,59.3c-0.1,0.1-0.3,0.2-0.5,0c-0.1-0.1-0.2-0.3,0-0.5
	c0.1-0.1,0.3-0.2,0.5,0C49.9,58.9,49.9,59.2,49.8,59.3z M49.9,56.7c0.2,0.2,0.2,0.5,0,0.7l-2,2.3c-0.2,0.2-0.5,0.2-0.7,0L43,56
	c-0.2-0.2-0.2-0.5,0-0.7l2-2.3c0.2-0.2,0.5-0.2,0.7,0L49.9,56.7z"/>
<path id="Phone_25_" opacity="0.1" fill="#666766" d="M86.8,219.4l2.6,1.5c0.5,0.3,1,0.1,1.3-0.4l3.2-5.8c0.2-0.4,0.1-1-0.4-1.3
	l-2.6-1.5c-0.4-0.3-1-0.1-1.3,0.4l-3.2,5.8C86.1,218.6,86.3,219.2,86.8,219.4z M92,213.1c0.2,0.1,0.2,0.3,0.1,0.5
	c-0.1,0.2-0.3,0.2-0.5,0.1c-0.2-0.1-0.2-0.3-0.1-0.5C91.6,213.1,91.8,213,92,213.1z M89.4,213.5c0.1-0.2,0.4-0.3,0.7-0.2l2.6,1.5
	c0.2,0.1,0.3,0.4,0.2,0.7l-2.7,4.8c-0.1,0.2-0.5,0.3-0.7,0.2L87,219c-0.2-0.1-0.3-0.4-0.2-0.7L89.4,213.5z"/>
<path id="Phone_20_" opacity="0.1" fill="#666766" d="M218.3,70.1l-8.3-6.7c-1.4-1.2-3.5-0.9-4.7,0.5l-15,18.4
	c-1.2,1.4-0.9,3.5,0.5,4.7l8.3,6.7c1.4,1.2,3.5,0.9,4.7-0.5l15-18.4C219.9,73.3,219.7,71.2,218.3,70.1z M196,88.9
	c-0.5-0.4-0.6-1.2-0.2-1.7c0.4-0.5,1.2-0.6,1.7-0.2c0.5,0.4,0.6,1.2,0.2,1.7C197.3,89.3,196.6,89.4,196,88.9z M205.2,89.1
	c-0.6,0.8-1.8,0.9-2.6,0.3l-8.3-6.7c-0.8-0.6-0.9-1.8-0.3-2.6l12.4-15.3c0.6-0.8,1.8-0.9,2.6-0.3l8.3,6.7c0.8,0.6,0.9,1.8,0.3,2.6
	L205.2,89.1z"/>
<path opacity="0.1" fill="#666766" d="M240.8,186.5c0.3,0.4,0.8,0.6,1.3,0.4l0,0c0.9,0.5,2.2,0.1,2.7-0.8l0.6-1.2
	c0.5-0.9,0.1-2.2-0.8-2.7l0,0c-0.1-0.5-0.5-0.9-1-0.9c0,0.2,0,0.5,0,0.8c-0.1,0-0.3,0-0.5,0c-0.2-0.4-0.5-0.7-0.9-0.9
	c-0.5-0.3-1.2-0.3-1.7-0.2l-0.5-0.7l-0.3,0.2l0.4,0.6c-0.5,0.2-0.8,0.6-1.1,1c-0.3,0.5-0.3,1-0.3,1.5l-0.7-0.1l0,0.4l0.8,0.1
	c0.2,0.5,0.6,1,1.1,1.3c0.4,0.2,0.9,0.3,1.3,0.3c0.1,0.1,0.2,0.3,0.3,0.4C241.3,186.2,241,186.3,240.8,186.5z M239.2,183.7l1.9-0.6
	l1.3,0.7l-0.1,0.2l-1.2-0.6l-1.8,0.5L239.2,183.7z M242.5,185.4c-0.2,0.1-0.4,0.3-0.7,0.4c-0.1-0.1-0.1-0.2-0.2-0.2
	c0.6-0.2,1.2-0.6,1.5-1.2c0.3-0.6,0.4-1.3,0.2-1.9c0.1,0,0.2,0,0.3,0c0,0.3,0,0.5,0,0.8c0.4,0,0.8-0.3,0.9-0.7
	c0.6,0.4,0.8,1.4,0.5,2l-0.6,1.2c-0.3,0.7-1.3,1-2,0.7C242.7,186.2,242.7,185.8,242.5,185.4z"/>
<path opacity="0.1" fill="#666766" d="M171.4,65.1c1.1-1.4,1-3.3-0.2-4.6l0-0.1c0.6-3.5-2.2-7.3-5.7-7.9l-4.7-0.7
	c-3.5-0.6-7.3,2.2-7.9,5.7l0,0c-1.6,0.8-2.3,2.6-1.7,4.3c0.8-0.3,1.7-0.6,2.6-1c0.2,0.5,0.3,1,0.5,1.5c-1,1.1-1.7,2.5-2,4.2
	c-0.3,2.1,0.2,4.2,1.3,5.9l-1.6,2.4l1.2,0.8l1.3-2c1.2,1.3,2.8,2.2,4.7,2.4c1.9,0.3,3.7-0.1,5.2-0.9l0.6,2.4l1.4-0.4l-0.7-2.8
	c1.6-1.2,2.7-3,3-5.2c0.3-1.6,0-3.2-0.6-4.6c0.3-0.4,0.7-0.9,1-1.3C170,63.9,170.8,64.5,171.4,65.1z M164.2,73.6l-4-5.7l0.8-5
	l0.9,0.2l-0.7,4.7l3.8,5.4L164.2,73.6z M166,60.7c0.6,0.5,1.4,1.1,2.1,1.7c-0.2,0.3-0.4,0.5-0.6,0.8c-1.2-1.8-3.2-3.2-5.6-3.6
	c-2.4-0.4-4.6,0.3-6.4,1.7c-0.1-0.3-0.2-0.7-0.3-1c0.9-0.3,1.8-0.7,2.5-0.9c-0.5-1.4-1.8-2.2-3.2-2.2c0.7-2.5,3.6-4.4,6.1-4l4.7,0.7
	c2.5,0.4,4.6,3.1,4.6,5.7C168.5,59.1,167,59.5,166,60.7z"/>
<g id="Lightbulb_16_" opacity="0.1">
	<path fill="#666766" d="M41.5,179.6l-5.3,1.5l0.2,0.7l5.3-1.5C41.6,180.1,41.6,179.8,41.5,179.6z"/>
	<path fill="#666766" d="M41.5,176.6l-5.6-0.6l-0.1,0.7l5.6,0.6C41.4,177.1,41.5,176.9,41.5,176.6z"/>
	<path fill="#666766" d="M43,182.7c-0.1-0.1-0.1-0.2-0.2-0.3l-4.3,3.4l0.4,0.6l4.3-3.4C43.1,182.9,43,182.8,43,182.7z"/>
	<path fill="#666766" d="M45,184.5l-2.7,4.8l0.6,0.4l2.7-4.8C45.4,184.7,45.2,184.6,45,184.5z"/>
	<path fill="#666766" d="M49.5,170.5c0.2,0,0.5-0.1,0.7-0.1l0.7-5.7l-0.7-0.1L49.5,170.5z"/>
	<path fill="#666766" d="M47.8,185.4l-0.6,5.6l0.7,0.1l0.6-5.6C48.3,185.5,48.1,185.5,47.8,185.4z"/>
	<path fill="#666766" d="M50.8,185.2l1.5,5.5l0.7-0.2l-1.6-5.5C51.2,185.1,51,185.2,50.8,185.2z"/>
	<path fill="#666766" d="M46.8,171c0.2-0.1,0.5-0.1,0.7-0.2l-1.6-5.9l-0.7,0.2L46.8,171z"/>
	<path fill="#666766" d="M53.4,183.9l3.7,4.6l0.6-0.4l-3.7-4.6C53.7,183.6,53.6,183.7,53.4,183.9z"/>
	<path fill="#666766" d="M44.2,172.3c0.2-0.1,0.4-0.3,0.6-0.4l-3.7-4.6l-0.6,0.4L44.2,172.3z"/>
	<path fill="#666766" d="M55.2,181.7l5.3,3l0.4-0.6l-5.3-3C55.4,181.3,55.3,181.5,55.2,181.7z"/>
	<path fill="#666766" d="M42.7,173.9l-5-2.8l-0.3,0.6l5,2.8C42.4,174.3,42.6,174.1,42.7,173.9z"/>
	<path fill="#666766" d="M56.3,179.1l5.9,0.7l0.1-0.7l-5.7-0.7C56.5,178.6,56.4,178.8,56.3,179.1z"/>
	<path fill="#666766" d="M54.4,170.7l2.8,3.5c0.1,0.1,0.3,0.1,0.4,0c0.1-0.1,0.1-0.3,0-0.4l-2.8-3.5c-0.1-0.1-0.3-0.1-0.4,0
		C54.4,170.4,54.3,170.6,54.4,170.7z"/>
	<path fill="#666766" d="M56.7,175c-1.5,1.6-1.5,5.6-4,7.5c-2.5,2-6.2,1.6-8.2-0.9c-2-2.5-1.6-6.2,0.9-8.2c2.5-2,6.4-1.1,8.3-2.2
		c0.1-0.1,0.3-0.2,0.4,0c0.2,0.2,2.5,3.2,2.7,3.4C56.9,174.7,56.7,174.9,56.7,175z"/>
	<path fill="#666766" d="M55.3,170.1l2.8,3.5c0.1,0.1,0.3,0.1,0.4,0c0.1-0.1,0.1-0.3,0-0.4l-2.8-3.5c-0.1-0.1-0.3-0.1-0.4,0
		C55.2,169.8,55.2,169.9,55.3,170.1z"/>
	<path fill="#666766" d="M56.1,169.4l2.8,3.5c0.1,0.1,0.3,0.1,0.4,0c0.1-0.1,0.1-0.3,0-0.4l-2.8-3.5c-0.1-0.1-0.3-0.1-0.4,0
		C56,169.1,56,169.3,56.1,169.4z"/>
	<path fill="#666766" d="M57,168.7l2.8,3.5c0.1,0.1,0.3,0.1,0.4,0c0.1-0.1,0.1-0.3,0-0.4l-2.8-3.5c-0.1-0.1-0.3-0.1-0.4,0
		C56.9,168.4,56.9,168.6,57,168.7z"/>
	<path fill="#666766" d="M46,176.4l0.2,0.3l0,0.4c0.2,0,0.3,0.1,0.4,0.2c0.2,0.2,0.3,0.5,0.3,0.7l-0.1,0.4l0.4,0
		c0.2,0,0.5,0.2,0.7,0.5c0.2,0.2,0.2,0.5,0.2,0.6l-0.1,0.4l0.4,0c0.2,0,0.5,0.2,0.6,0.4c0.2,0.2,0.2,0.4,0.2,0.5l0.3,0.1l0.3,0.2
		l4.8-6.1l1.9-1.5l-1.6-2l-1.9,1.5L46,176.4z M49.5,179.8c-0.2-0.3-0.5-0.5-0.8-0.6c0-0.3-0.1-0.6-0.3-0.8c-0.2-0.3-0.5-0.6-0.9-0.7
		c0-0.3-0.2-0.7-0.4-0.9c0,0-0.1-0.1-0.1-0.1l6.1-2.8l0.8,1l-4.1,5.2c0-0.1-0.1-0.1-0.1-0.2C49.6,179.9,49.5,179.9,49.5,179.8z
		 M54.8,172.6l0.7,0.8l-1.1,0.9l-0.7-0.8L54.8,172.6z"/>
	<path fill="#666766" d="M57.8,168.2c0.1-0.1,0.8,0.5,1.6,1.4c0.7,0.9,1.2,1.7,1,1.8C59.9,170.9,58.2,168.7,57.8,168.2z"/>
</g>
<g id="Lightbulb_15_" opacity="0.1">
	<path fill="#666766" d="M218.9,105.4l2,0l0-0.3l-2,0C218.9,105.2,218.9,105.3,218.9,105.4z"/>
	<path fill="#666766" d="M218.6,106.4l1.9,0.7l0.1-0.2l-1.9-0.7C218.7,106.3,218.6,106.3,218.6,106.4z"/>
	<path fill="#666766" d="M218.6,104.2c0,0,0,0.1,0,0.1l1.8-0.8l-0.1-0.2l-1.8,0.8C218.6,104.1,218.6,104.1,218.6,104.2z"/>
	<path fill="#666766" d="M218.1,103.4l1.4-1.4l-0.2-0.2l-1.4,1.4C218,103.2,218,103.3,218.1,103.4z"/>
	<path fill="#666766" d="M215.2,107.8c-0.1,0-0.2,0-0.3,0l-0.7,1.9l0.2,0.1L215.2,107.8z"/>
	<path fill="#666766" d="M217.2,102.8l0.7-1.9l-0.2-0.1l-0.7,1.9C217,102.7,217.1,102.7,217.2,102.8z"/>
	<path fill="#666766" d="M216.1,102.6l0-2.1l-0.3,0l0,2.1C216,102.6,216,102.6,216.1,102.6z"/>
	<path fill="#666766" d="M216.2,107.9c-0.1,0-0.2,0-0.3,0l0,2.2l0.3,0L216.2,107.9z"/>
	<path fill="#666766" d="M215.1,102.8l-0.9-1.9L214,101l0.9,2C214.9,102.9,215,102.8,215.1,102.8z"/>
	<path fill="#666766" d="M217.3,107.7c-0.1,0-0.2,0.1-0.2,0.1l0.9,2l0.2-0.1L217.3,107.7z"/>
	<path fill="#666766" d="M214.3,103.4l-1.6-1.5l-0.2,0.2l1.6,1.5C214.1,103.5,214.2,103.5,214.3,103.4z"/>
	<path fill="#666766" d="M217.9,107.3l1.5,1.4l0.2-0.2l-1.5-1.4C218,107.2,218,107.2,217.9,107.3z"/>
	<path fill="#666766" d="M213.6,104.2l-2-0.8l-0.1,0.2l1.9,0.7C213.5,104.4,213.6,104.3,213.6,104.2z"/>
	<path fill="#666766" d="M213.5,107.3l-0.7-1.5c0,0-0.1-0.1-0.1,0c0,0-0.1,0.1,0,0.1l0.7,1.5c0,0,0.1,0.1,0.1,0
		C213.5,107.4,213.5,107.4,213.5,107.3z"/>
	<path fill="#666766" d="M213.1,105.6c0.7-0.4,1-1.8,2.1-2.3c1.1-0.5,2.3,0,2.8,1.1c0.5,1.1,0,2.3-1.1,2.8c-1.1,0.5-2.3-0.2-3.1,0
		c0,0-0.1,0-0.2-0.1c0-0.1-0.6-1.3-0.6-1.4C213,105.7,213.1,105.6,213.1,105.6z"/>
	<path fill="#666766" d="M213.2,107.5l-0.7-1.5c0-0.1-0.1-0.1-0.1,0c-0.1,0-0.1,0.1,0,0.1l0.7,1.5c0,0.1,0.1,0.1,0.1,0.1
		C213.2,107.6,213.2,107.5,213.2,107.5z"/>
	<path fill="#666766" d="M212.8,107.6l-0.7-1.5c0-0.1-0.1-0.1-0.1-0.1c-0.1,0-0.1,0.1,0,0.1l0.7,1.5c0,0,0.1,0.1,0.1,0.1
		C212.8,107.7,212.8,107.7,212.8,107.6z"/>
	<path fill="#666766" d="M212.5,107.8l-0.7-1.5c0,0-0.1-0.1-0.1,0c0,0-0.1,0.1,0,0.1l0.7,1.5c0,0,0.1,0.1,0.1,0
		C212.5,107.9,212.5,107.8,212.5,107.8z"/>
	<path fill="#666766" d="M217,106.1l0-0.1l0-0.1c-0.1,0-0.1-0.1-0.1-0.1c-0.1-0.1-0.1-0.2,0-0.3l0.1-0.1l-0.1,0
		c-0.1,0-0.1-0.1-0.2-0.2c0-0.1,0-0.2,0-0.2l0.1-0.1l-0.1,0c-0.1,0-0.2-0.1-0.2-0.2c0-0.1,0-0.2,0-0.2l-0.1-0.1l-0.1-0.1l-2.2,1.7
		l-0.8,0.4l0.4,0.8l0.8-0.4L217,106.1z M216.1,104.6c0,0.1,0.1,0.2,0.2,0.3c0,0.1,0,0.2,0,0.3c0.1,0.1,0.1,0.2,0.2,0.3
		c0,0.1,0,0.2,0.1,0.4c0,0,0,0,0,0.1l-2.4,0.4l-0.2-0.4l1.9-1.5C216,104.5,216,104.5,216.1,104.6
		C216.1,104.5,216.1,104.6,216.1,104.6z M213.6,106.6l-0.2-0.4l0.5-0.2l0.2,0.4L213.6,106.6z"/>
	<path fill="#666766" d="M212.1,107.9c-0.1,0-0.2-0.3-0.4-0.6c-0.2-0.4-0.3-0.7-0.2-0.7C211.6,106.8,212,107.7,212.1,107.9z"/>
</g>
<path opacity="0.1" fill="#666766" d="M81.2,75.2c-0.7,0.8-1.2,1.6-1.5,2.6l-4.8-1l-0.8-1.7l0,0c0.7-1,1-1.9,0.7-2.2
	c-0.3-0.3-1,0.7-1.9,1.8c-0.9,1.1-1.7,2-1.3,2.3c0.3,0.2,1-0.2,1.7-1l0.5,1.1l-5.9,5.9l-1.4-2.5L68,79l-0.9-0.8l-2.2,2.3l2.7,4.6
	c0.1,0.1,0.2,0.3,0.4,0.6c0.3,0.5,0.9,1.4,1.4,2.4c-0.8,0.3-1.5,0.8-2.1,1.4c-2.3,2.4-2.3,6.2,0,8.5c2.4,2.3,6.2,2.3,8.5,0
	c2.3-2.4,2.3-6.2,0-8.5c-1.4-1.4-3.4-2-5.2-1.7c-0.3-0.7-0.7-1.3-1-1.8l8.8,1.4c0.1,0.3,0.2,0.7,0.5,0.9c0.7,0.7,1.8,0.7,2.5,0
	c0.6-0.6,0.7-1.5,0.2-2.2l0.9-1.2c2.4,1.4,5.5,1.1,7.5-0.9c2.4-2.4,2.4-6.3,0-8.6C87.5,72.7,83.6,72.8,81.2,75.2z M74.9,90.2
	c1.9,1.9,1.9,4.9,0,6.8c-1.9,1.9-4.9,1.9-6.8,0c-1.9-1.9-1.9-4.9,0-6.8c0.5-0.5,1.1-0.9,1.8-1.1c0.5,1.2,1,2.6,1,4
	c-0.3,0.3-0.3,0.8,0,1.1c0.3,0.3,0.8,0.3,1.1,0c0.3-0.3,0.3-0.8,0-1.1c-0.1-1.5-0.5-3-1-4.3C72.4,88.7,73.9,89.2,74.9,90.2z
	 M74.4,78.3l4.3,7.5c-0.1,0.1-0.1,0.2-0.2,0.3l-9.8-1.5c0,0,0,0,0-0.1l-0.2-0.3L74.4,78.3z M80.6,85.2c-0.3-0.1-0.5-0.1-0.8,0
	l-4.1-7l3.8,0.8c-0.1,1.7,0.4,3.5,1.8,4.9c0.1,0.1,0.1,0.1,0.2,0.2L80.6,85.2z M82.1,82.9c-1-1-1.5-2.4-1.4-3.8l3.7,0.7L82.1,82.9
	C82.2,83,82.1,83,82.1,82.9z M89.1,82.9c-1.6,1.6-4,1.9-5.9,0.8l2.5-3.5c0.2,0,0.3-0.1,0.5-0.2c0.3-0.3,0.3-0.8,0-1.1
	c-0.3-0.3-0.7-0.3-1.1-0.1L80.9,78c0.2-0.7,0.6-1.4,1.2-2c1.9-1.9,5-1.9,6.9,0C90.9,77.9,91,81,89.1,82.9z"/>
<path opacity="0.1" fill="#666766" d="M182.5,180.8c0.4-0.3,0.6-0.6,0.8-1l1.9,0.7l0.2,0.8h0c-0.4,0.4-0.6,0.7-0.4,0.8
	c0.1,0.1,0.5-0.2,0.9-0.6c0.5-0.4,0.8-0.7,0.7-0.9c-0.1-0.1-0.4,0-0.8,0.3l-0.1-0.5l2.9-2l0.4,1.1l-0.8,0.6l0.3,0.4l1.1-0.8
	l-0.8-2.1c0-0.1-0.1-0.2-0.1-0.3c-0.1-0.2-0.3-0.6-0.4-1.1c0.3-0.1,0.7-0.2,1-0.4c1.1-0.8,1.4-2.4,0.6-3.5c-0.8-1.1-2.4-1.4-3.5-0.6
	c-1.1,0.8-1.4,2.4-0.6,3.5c0.5,0.7,1.3,1.1,2,1.1c0.1,0.3,0.2,0.6,0.3,0.8l-3.5-1.2c0-0.1,0-0.3-0.1-0.4c-0.2-0.3-0.7-0.4-1-0.2
	c-0.3,0.2-0.4,0.6-0.2,0.9l-0.5,0.4c-0.9-0.8-2.2-0.8-3.2-0.1c-1.2,0.8-1.4,2.4-0.6,3.6C179.8,181.4,181.4,181.6,182.5,180.8z
	 M186.2,175c-0.6-0.9-0.4-2.2,0.5-2.8c0.9-0.6,2.2-0.4,2.8,0.5c0.6,0.9,0.4,2.2-0.5,2.8c-0.2,0.2-0.5,0.3-0.8,0.3
	c-0.1-0.5-0.2-1.2-0.1-1.7c0.1-0.1,0.2-0.3,0.1-0.5c-0.1-0.2-0.3-0.2-0.5-0.1c-0.1,0.1-0.2,0.3-0.1,0.5c-0.1,0.6,0,1.3,0.1,1.8
	C187.2,175.8,186.6,175.5,186.2,175z M185.6,180l-1.3-3.4c0,0,0.1-0.1,0.1-0.1l4,1.3c0,0,0,0,0,0l0,0.1L185.6,180z M183.6,176.7
	c0.1,0,0.2,0.1,0.3,0.1l1.2,3.2l-1.5-0.6c0.2-0.7,0.1-1.5-0.4-2.1c0,0,0-0.1-0.1-0.1L183.6,176.7z M182.7,177.5
	c0.4,0.5,0.5,1.1,0.3,1.7l-1.5-0.6L182.7,177.5C182.7,177.5,182.7,177.5,182.7,177.5z M179.9,177.1c0.8-0.5,1.8-0.5,2.5,0.1
	l-1.3,1.2c-0.1,0-0.1,0-0.2,0.1c-0.2,0.1-0.2,0.3-0.1,0.5c0.1,0.1,0.3,0.2,0.4,0.1l1.7,0.6c-0.1,0.3-0.4,0.5-0.6,0.7
	c-0.9,0.7-2.2,0.4-2.9-0.5C178.7,179,178.9,177.7,179.9,177.1z"/>
<g opacity="0.1">
	<path fill="#666766" d="M194.8,189c-0.4,0.2-0.5,0.8-0.3,1.1l15,23.6c0.2,0.4,0.8,0.5,1.1,0.3c0.4-0.2,0.5-0.8,0.3-1.1l-15-23.6
		C195.7,188.9,195.2,188.8,194.8,189z"/>
	<path fill="#666766" d="M197.6,187.2c-0.4,0.2-0.5,0.8-0.3,1.1l15,23.6c0.2,0.4,0.8,0.5,1.1,0.3c0.4-0.2,0.5-0.7,0.3-1.1l-15-23.6
		C198.5,187.1,198,187,197.6,187.2z"/>
	<path fill="#666766" d="M207.3,213.5l-10.2-16.3c0.3-0.2,0.4-0.4,0.4-0.4c0-0.1-0.2,0-0.4,0.1c0-0.1,0-0.1,0-0.2
		c-0.1-0.1-0.2-0.1-0.3-0.2c0-0.1,0-0.2,0-0.3c-0.1-0.1-0.2-0.1-0.3-0.2c0-0.1,0-0.2,0-0.3c-0.1-0.1-0.2-0.1-0.3-0.2
		c0-0.1,0-0.2,0-0.3c-0.1-0.1-0.2-0.1-0.3-0.2c0-0.1,0-0.2,0-0.3c0-0.1-0.1-0.1-0.1-0.1c0.1-0.1,0.2-0.2,0.2-0.3
		c-0.1-0.1-0.4,0-0.7,0.2c-0.4-0.1-0.8-0.1-1.1,0.1c-0.7,0.5-0.6,1.5-0.5,2.2c0.1,0.7,0.3,1.4,0.7,2c0.4,0.7,0.4,1.6,0.8,2.3
		c0.3,0.6,0.9,1.5,1.7,1.5c0.6,0,1-0.9,0.9-1.4c-0.1-0.8-0.7-1.4-1.2-2c-0.7-0.9-2.8-2.9-1.8-4c0.1,0,0.1,0,0.2-0.1
		c0,0.1,0,0.1,0,0.2c0.1,0.1,0.2,0.1,0.3,0.2c0,0.1,0,0.2,0,0.3c0.1,0.1,0.2,0.1,0.3,0.2c0,0.1,0,0.2,0,0.3c0.1,0.1,0.2,0.1,0.3,0.2
		c0,0.1,0,0.2,0,0.3c0.1,0.1,0.2,0.1,0.3,0.2c0,0.1,0,0.2,0,0.3c0,0.1,0.1,0.1,0.2,0.1c-0.2,0.1-0.2,0.3-0.2,0.3
		c0,0.1,0.3,0,0.6-0.1l10.3,16.1c-0.6,0.4-0.9,0.8-0.9,0.9c0.1,0.1,0.6-0.1,1.2-0.4l0.9,1.4l0.2-0.2l-0.9-1.4c0.6-0.4,1-0.8,0.9-0.9
		C208.4,213,207.8,213.2,207.3,213.5z M194.6,197.3c0.8,1.3,2.1,2.3,2.7,3.7c0.1,0.3,0.1,0.6,0,0.9c-0.3,0.7-0.9,0.4-1.3,0
		c-0.3-0.3-0.5-0.7-0.7-1.1c-0.2-0.6-0.3-1.4-0.6-2c-0.5-1-1.2-2.5-0.7-3.7c0.1-0.3,0.4-0.5,0.7-0.5
		C193.8,195.4,194.1,196.4,194.6,197.3z"/>
	<path fill="#666766" d="M208.6,192.7c-0.5-0.6-1.3-1-1.8-1.7c-0.4-0.6-0.9-1.1-1.5-1.5c-0.6-0.4-1.5-0.9-2.2-0.5
		c-0.3,0.2-0.6,0.5-0.6,0.9c-0.3,0.2-0.6,0.5-0.5,0.6c0,0.1,0.2,0,0.4,0c0,0.1,0,0.1,0,0.2c0.1,0.1,0.2,0.1,0.3,0.2
		c0,0.1-0.1,0.2,0,0.3c0.1,0.1,0.2,0.1,0.3,0.2c0,0.1,0,0.2,0,0.3c0.1,0.1,0.2,0.1,0.3,0.2c0,0.1,0,0.2,0,0.3
		c0.1,0.1,0.2,0.1,0.3,0.2c0,0.1,0,0.2,0,0.3c0,0.1,0.1,0.1,0.2,0.1c-0.2,0.1-0.2,0.3-0.2,0.3c0,0.1,0.3,0,0.6-0.1l10.3,16.1
		c-0.6,0.4-0.9,0.8-0.9,0.9c0.1,0.1,0.6-0.1,1.2-0.4l0.9,1.4l0.2-0.2l-0.9-1.4c0.6-0.4,1-0.8,0.9-0.9c-0.1-0.1-0.6,0.1-1.2,0.4
		l-10.2-16.3c0.3-0.2,0.4-0.4,0.4-0.4c0-0.1-0.2,0-0.4,0c0-0.1,0-0.1,0-0.2c-0.1-0.1-0.2-0.1-0.3-0.2c0-0.1,0-0.2,0-0.3
		c-0.1-0.1-0.2-0.1-0.3-0.2c0-0.1,0-0.2,0-0.3c-0.1-0.1-0.2-0.1-0.3-0.2c0-0.1,0-0.2,0-0.3c-0.1-0.1-0.2-0.1-0.3-0.2
		c0-0.1,0-0.2,0-0.3c0-0.1-0.1-0.1-0.1-0.1c0.1-0.1,0.1-0.1,0.2-0.2c1.4-0.3,2.3,2.4,2.8,3.4c0.3,0.7,0.7,1.5,1.3,1.9
		c0.5,0.4,1.3,0.3,1.6-0.2C209.6,194.2,209,193.1,208.6,192.7z M208.9,193.8c0.2,0.6,0.2,1.1-0.5,1.2c-0.4,0-0.6-0.1-0.9-0.4
		c-1.1-1.1-2.3-6.3-4.6-5c0.1-0.3,0.4-0.4,0.7-0.4c1.2,0,2.4,1.3,3,2.2c0.4,0.5,1.1,0.9,1.5,1.4C208.5,193,208.7,193.4,208.9,193.8z
		"/>
</g>
<path opacity="0.1" fill="#666766" d="M206,177.5c-2-1.8-5.1-1.6-6.9,0.4c-1.8,2-1.6,5.1,0.4,6.9c2,1.8,5.1,1.6,6.9-0.4
	C208.2,182.3,208,179.2,206,177.5z M204.9,184.9c0,0-0.6-0.4-1.4-1c0.3-0.3,0.7-0.6,1-0.9l1.3,1.2
	C205.5,184.5,205.2,184.7,204.9,184.9z M199.3,178.3l1.3,1.2c-0.3,0.3-0.6,0.7-0.8,1.1c-0.6-0.6-1-1-1.2-1.2
	C198.9,179,199.1,178.7,199.3,178.3z M200.6,177.2c0.2,0.2,0.7,0.5,1.3,1c-0.3,0.3-0.7,0.6-1,0.9l-1.3-1.2
	C200,177.7,200.3,177.4,200.6,177.2z M206.8,182.6c-0.2,0.4-0.4,0.8-0.7,1.2l-1.3-1.2c0.3-0.3,0.6-0.7,0.8-1
	C206.3,182.2,206.7,182.7,206.8,182.6L206.8,182.6z M204.4,182.3l-1.3-1.2l0.9-1c0.4,0.4,0.8,0.8,1.2,1.1
	C205,181.5,204.7,181.9,204.4,182.3z M204.4,179.7l0.9-1c0.3,0.2,0.5,0.5,0.7,0.8c-0.1,0.4-0.2,0.8-0.5,1.3
	C205.1,180.4,204.8,180,204.4,179.7z M205.6,178.3l0.3-0.3c0.1,0.2,0.2,0.5,0.2,0.8C205.9,178.6,205.7,178.5,205.6,178.3z
	 M206.5,178.9c0.2,0.3,0.3,0.6,0.4,0.9c-0.1-0.2-0.3-0.3-0.4-0.5C206.5,179.2,206.5,179,206.5,178.9z M205.5,177.7l-0.3,0.3
	c-0.2-0.2-0.3-0.3-0.5-0.4C205,177.5,205.2,177.6,205.5,177.7z M204.1,177.2c-0.2-0.1-0.4-0.3-0.5-0.4c0.3,0.1,0.6,0.2,0.9,0.3
	C204.4,177.1,204.3,177.1,204.1,177.2z M204.8,178.4l-0.9,1c-0.4-0.4-0.8-0.7-1.2-1c0.4-0.3,0.8-0.5,1.2-0.6
	C204.3,177.9,204.6,178.1,204.8,178.4z M203.7,179.7l-0.9,1l-1.3-1.2c0.3-0.3,0.7-0.6,1-0.9C202.8,179,203.2,179.3,203.7,179.7z
	 M201.1,179.9l1.3,1.2l-0.9,1c-0.4-0.4-0.8-0.8-1.2-1.1C200.5,180.6,200.8,180.2,201.1,179.9z M201.1,182.5l-0.8,0.9
	c-0.3-0.2-0.5-0.5-0.8-0.8c0.1-0.4,0.2-0.8,0.5-1.2C200.4,181.8,200.8,182.1,201.1,182.5z M200,183.8l-0.3,0.3
	c-0.1-0.2-0.2-0.5-0.2-0.8C199.6,183.5,199.8,183.6,200,183.8z M199,183.3c-0.2-0.3-0.3-0.6-0.4-0.9c0.1,0.2,0.3,0.3,0.4,0.5
	C199,183,199,183.1,199,183.3z M200,184.5l0.3-0.3c0.2,0.2,0.4,0.3,0.5,0.5C200.6,184.6,200.3,184.6,200,184.5z M201.4,185
	c0.2,0.1,0.4,0.3,0.6,0.4c-0.3-0.1-0.7-0.2-1-0.3C201.1,185,201.3,185,201.4,185z M200.7,183.7l0.8-0.9c0.4,0.4,0.8,0.7,1.2,1
	c-0.4,0.3-0.8,0.5-1.2,0.6C201.2,184.2,201,184,200.7,183.7z M201.9,182.4l0.9-1l1.3,1.2c-0.3,0.3-0.7,0.6-1,0.9
	C202.7,183.2,202.3,182.8,201.9,182.4z M207,182.2c-0.2-0.2-0.6-0.6-1.1-1.1c0.2-0.4,0.4-0.8,0.5-1.2c0.4,0.5,0.7,0.9,0.7,0.9l0,0
	C207.1,181.3,207.1,181.8,207,182.2z M202.6,176.7L202.6,176.7c0,0,0.4,0.3,1,0.6c-0.4,0.2-0.7,0.4-1.1,0.6c-0.5-0.4-1-0.8-1.2-1
	C201.6,176.8,202.1,176.7,202.6,176.7z M198.5,179.9c0.2,0.3,0.6,0.7,1.1,1.1c-0.2,0.4-0.4,0.8-0.5,1.2c-0.4-0.4-0.6-0.8-0.8-0.9
	C198.4,180.9,198.4,180.4,198.5,179.9z M202.9,185.4L202.9,185.4c0,0-0.4-0.3-0.9-0.7c0.4-0.2,0.7-0.4,1.1-0.6c0.5,0.4,1,0.8,1.3,1
	C203.9,185.3,203.4,185.4,202.9,185.4z"/>
<path opacity="0.1" fill="#666766" d="M75.7,165.6c3.5-3.2,3.8-8.7,0.5-12.3c-3.2-3.5-8.7-3.8-12.3-0.5c-3.5,3.2-3.8,8.8-0.5,12.3
	C66.7,168.6,72.2,168.8,75.7,165.6z M62.7,162.3c0.1-0.1,0.9-1,2.1-2.2c0.4,0.6,0.9,1.2,1.4,1.9l-2.4,2.2
	C63.3,163.6,62.9,163,62.7,162.3z M75.2,153.6l-2.4,2.2c-0.6-0.6-1.1-1.1-1.7-1.6c1.1-0.9,2-1.6,2.4-1.9
	C74.1,152.7,74.7,153.1,75.2,153.6z M77,156.1c-0.3,0.4-1.1,1.2-2.1,2.2c-0.4-0.6-0.9-1.3-1.4-1.9l2.4-2.2
	C76.3,154.8,76.7,155.4,77,156.1z M66.3,166.2c-0.7-0.3-1.3-0.8-1.9-1.4l2.4-2.2c0.6,0.6,1.1,1.1,1.7,1.6c-1.3,1.1-2.3,1.8-2.3,1.8
	L66.3,166.2z M67.4,162l2.4-2.2l1.7,1.8c-0.8,0.7-1.5,1.4-2.2,1.9C68.6,163.1,68,162.6,67.4,162z M72,162.3l1.6,1.7
	c-0.5,0.4-1,0.8-1.5,1.2c-0.7-0.2-1.4-0.6-2.2-1.1C70.6,163.5,71.3,162.9,72,162.3z M74.2,164.6l0.5,0.5c-0.4,0.2-0.9,0.3-1.4,0.2
	C73.6,165.2,73.9,164.9,74.2,164.6z M73,166.3c-0.5,0.2-1.1,0.4-1.7,0.5c0.3-0.2,0.6-0.4,1-0.7C72.6,166.2,72.8,166.2,73,166.3z
	 M75.4,164.6l-0.5-0.5c0.3-0.3,0.6-0.6,0.8-0.9C75.7,163.7,75.6,164.2,75.4,164.6z M76.5,162.3c0.3-0.3,0.5-0.6,0.8-0.9
	c-0.2,0.6-0.4,1.1-0.7,1.6C76.6,162.8,76.6,162.5,76.5,162.3z M74.3,163.4l-1.6-1.7c0.7-0.6,1.4-1.3,2-1.9c0.4,0.8,0.7,1.6,0.9,2.3
	C75.2,162.5,74.7,162.9,74.3,163.4z M72.1,161l-1.7-1.8l2.4-2.2c0.5,0.6,1,1.3,1.4,1.9C73.6,159.6,72.8,160.3,72.1,161z M72.2,156.4
	l-2.4,2.2l-1.7-1.8c0.8-0.7,1.5-1.3,2.2-1.9C71,155.3,71.6,155.8,72.2,156.4z M67.6,156.1l-1.5-1.6c0.5-0.4,1-0.8,1.5-1.2
	c0.7,0.2,1.4,0.6,2.1,1C69,154.8,68.3,155.5,67.6,156.1z M65.4,153.8l-0.6-0.6c0.4-0.2,0.9-0.3,1.5-0.2
	C66.1,153.2,65.8,153.5,65.4,153.8z M66.6,152.1c0.6-0.3,1.1-0.4,1.7-0.6c-0.3,0.2-0.6,0.4-1,0.7C67.1,152.2,66.8,152.1,66.6,152.1z
	 M64.2,153.8l0.6,0.6c-0.3,0.3-0.6,0.6-0.9,0.9C63.9,154.7,64,154.2,64.2,153.8z M63.1,156.2c-0.3,0.3-0.6,0.6-0.8,0.9
	c0.2-0.6,0.4-1.2,0.7-1.7C63,155.6,63,155.9,63.1,156.2z M65.4,155.1l1.5,1.6c-0.7,0.7-1.4,1.3-2,1.9c-0.4-0.8-0.7-1.5-0.9-2.2
	C64.5,156,64.9,155.5,65.4,155.1z M67.5,157.4l1.7,1.8l-2.4,2.2c-0.5-0.6-1-1.3-1.4-1.9C66,158.8,66.7,158.1,67.5,157.4z M67,166.5
	c0.4-0.3,1.2-0.9,2.2-1.8c0.7,0.5,1.4,0.8,2,1.1c-1,0.7-1.7,1.1-1.7,1.1l0,0.1C68.7,166.9,67.8,166.8,67,166.5z M77.6,159.6
	L77.6,159.6c-0.1,0-0.5,0.7-1.3,1.6c-0.2-0.7-0.5-1.4-0.9-2.1c0.8-0.8,1.5-1.6,1.9-2C77.5,157.9,77.6,158.7,77.6,159.6z M72.6,151.9
	c-0.5,0.4-1.3,1-2.2,1.8c-0.7-0.5-1.3-0.8-2-1.1c0.8-0.6,1.5-1,1.7-1.2C70.9,151.4,71.8,151.6,72.6,151.9z M62,158.8L62,158.8
	c0.1,0,0.5-0.6,1.3-1.5c0.2,0.7,0.5,1.4,0.9,2.1c-0.9,0.9-1.6,1.6-1.9,2.1C62.1,160.5,62,159.6,62,158.8z"/>
<path opacity="0.1" fill="#666766" d="M173.5,14.2c1.5-1.9,1.2-4.7-0.7-6.3c-1.9-1.5-4.7-1.2-6.2,0.7c-1.5,1.9-1.2,4.7,0.7,6.2
	C169.1,16.4,171.9,16.1,173.5,14.2z M166.6,13.6c0,0,0.4-0.6,0.9-1.3c0.3,0.3,0.5,0.6,0.9,0.8l-1,1.3
	C167.1,14.2,166.8,13.9,166.6,13.6z M172.3,8.2l-1,1.3c-0.3-0.3-0.7-0.5-1-0.7c0.5-0.5,0.9-1,1.1-1.1C171.7,7.8,172,8,172.3,8.2z
	 M173.4,9.3c-0.1,0.2-0.5,0.7-0.9,1.3c-0.3-0.3-0.5-0.6-0.9-0.8l1-1.3C173,8.7,173.2,9,173.4,9.3z M168.8,15.2
	c-0.4-0.1-0.7-0.3-1.1-0.5l1-1.3c0.3,0.3,0.7,0.5,1,0.7C169.1,14.7,168.7,15.1,168.8,15.2L168.8,15.2z M169,13.1l1-1.3l1,0.8
	c-0.3,0.4-0.7,0.8-1,1.2C169.7,13.5,169.3,13.3,169,13.1z M171.4,12.8l0.9,0.7c-0.2,0.3-0.4,0.5-0.6,0.7c-0.4-0.1-0.8-0.2-1.2-0.4
	C170.7,13.6,171.1,13.2,171.4,12.8z M172.7,13.9l0.3,0.2c-0.2,0.1-0.4,0.2-0.7,0.2C172.4,14.2,172.5,14,172.7,13.9z M172.2,14.8
	c-0.3,0.2-0.5,0.3-0.8,0.4c0.1-0.1,0.3-0.3,0.4-0.4C171.9,14.8,172.1,14.8,172.2,14.8z M173.2,13.8l-0.3-0.2
	c0.1-0.2,0.2-0.3,0.4-0.5C173.3,13.3,173.3,13.5,173.2,13.8z M173.6,12.5c0.1-0.2,0.2-0.4,0.3-0.5c0,0.3-0.1,0.6-0.2,0.9
	C173.7,12.7,173.7,12.6,173.6,12.5z M172.6,13.2l-0.9-0.7c0.3-0.4,0.6-0.8,0.9-1.1c0.3,0.4,0.5,0.7,0.6,1.1
	C173,12.7,172.8,13,172.6,13.2z M171.3,12.2l-1-0.8l1-1.3c0.3,0.3,0.6,0.6,0.9,0.9C171.9,11.4,171.6,11.8,171.3,12.2z M171,9.8
	l-1,1.3l-1-0.8c0.3-0.4,0.7-0.8,1-1.2C170.3,9.4,170.7,9.6,171,9.8z M168.6,10.1l-0.9-0.7c0.2-0.3,0.4-0.5,0.7-0.7
	c0.4,0.1,0.7,0.2,1.2,0.4C169.3,9.3,168.9,9.7,168.6,10.1z M167.4,9.1l-0.3-0.3c0.2-0.1,0.4-0.2,0.8-0.2
	C167.7,8.7,167.5,8.9,167.4,9.1z M167.8,8.1c0.3-0.2,0.5-0.3,0.8-0.4c-0.1,0.1-0.3,0.3-0.4,0.4C168.1,8.1,168,8.1,167.8,8.1z
	 M166.8,9.1l0.3,0.3c-0.1,0.2-0.3,0.4-0.4,0.5C166.7,9.6,166.7,9.4,166.8,9.1z M166.4,10.4c-0.1,0.2-0.2,0.4-0.3,0.5
	c0-0.3,0.1-0.6,0.2-0.9C166.3,10.2,166.3,10.3,166.4,10.4z M167.5,9.7l0.9,0.7c-0.3,0.4-0.6,0.8-0.9,1.1c-0.3-0.4-0.5-0.7-0.6-1
	C167.1,10.2,167.3,10,167.5,9.7z M168.7,10.7l1,0.8l-1,1.3c-0.3-0.3-0.6-0.6-0.9-0.9C168.1,11.5,168.4,11.1,168.7,10.7z M169.1,15.3
	c0.2-0.2,0.5-0.6,1-1.1c0.4,0.2,0.8,0.3,1.1,0.4c-0.4,0.4-0.8,0.7-0.8,0.7l0,0C170,15.5,169.6,15.4,169.1,15.3z M174,11.1L174,11.1
	c0,0-0.2,0.4-0.5,0.9c-0.2-0.3-0.4-0.7-0.6-1c0.4-0.5,0.6-0.9,0.8-1.2C173.8,10.2,173.9,10.6,174,11.1z M170.9,7.6
	c-0.2,0.2-0.6,0.6-1,1.1c-0.4-0.2-0.7-0.3-1.1-0.4c0.4-0.4,0.7-0.6,0.8-0.7C170,7.4,170.4,7.5,170.9,7.6z M166,11.8L166,11.8
	c0,0,0.2-0.4,0.6-0.9c0.2,0.3,0.4,0.7,0.6,1c-0.4,0.5-0.7,1-0.8,1.2C166.2,12.7,166.1,12.3,166,11.8z"/>
<g id="Burger_20_" opacity="0.1">
	<path fill="#666766" d="M123.4,204.1c0-0.9,0.7-1.7,1.6-1.6l20.5,0.8c0.8,0,1.5,0.8,1.5,1.8l0,0c0,0.9-0.8,1.7-1.6,1.6l-20.5-0.8
		C124,205.8,123.3,205,123.4,204.1L123.4,204.1z"/>
	<path fill="#666766" d="M125.1,203.9c0,0,2.6,2.1,9.9,2.3c7.3,0.3,10.1-1.6,10.1-1.6s1.2,1,1.1,3.8c-0.1,1.5-0.9,1.3-0.9,1.3
		s-2.9-0.4-10.4-0.7c-7.6-0.3-10.9-0.1-10.9-0.1s-0.4,0.1-0.4-1.4C123.8,204.7,125.1,203.9,125.1,203.9z"/>
	<path fill="#666766" d="M123.2,208.2c0-0.9,0.7-1.6,1.6-1.6l20.5,0.8c0.8,0,1.5,0.8,1.5,1.7l0,0c0,0.9-0.8,1.7-1.6,1.6l-20.5-0.8
		C123.8,209.9,123.2,209.2,123.2,208.2L123.2,208.2z"/>
	<path fill="#666766" d="M123.5,200.5c0.1-1.3,1.1-2.3,2.4-2.2l19,0.7c1.3,0,2.3,1.1,2.2,2.4l0,0c0,1.3-0.1,2.3-2.4,2.2l-19-0.7
		C123.4,202.8,123.4,201.7,123.5,200.5L123.5,200.5z"/>
	<path fill="#666766" d="M134.6,218.4c6.5,0.2,11.9-3,12-5.7c0.1-2.7,0.1-2.2-11.7-2.6c-11.8-0.4-11.8-0.9-11.9,1.7
		C123,214.5,128.1,218.1,134.6,218.4z M144,214.3c0.1-0.2,0.6-0.3,0.6-0.3s0.1,0.5,0,0.7c-0.1,0.2-0.3,0.2-0.5,0.1
		C143.9,214.6,143.9,214.4,144,214.3z M136.9,217.1c-0.1,0.1-0.6,0.2-0.6,0.2s0-0.5,0.1-0.7c0.1-0.1,0.3-0.2,0.5,0
		C137,216.7,137,216.9,136.9,217.1z M140.6,212c0.2-0.1,0.4-0.1,0.5,0.1c0.1,0.2,0.1,0.4-0.1,0.5c-0.2,0.1-0.7,0.1-0.7,0.1
		S140.5,212.1,140.6,212z M140.4,215.6c0.2-0.1,0.7,0,0.7,0s-0.2,0.5-0.3,0.6c-0.2,0.1-0.4,0-0.5-0.1
		C140.1,215.9,140.2,215.7,140.4,215.6z M138.4,213.7c0.2,0,0.5,0.4,0.5,0.4s-0.4,0.3-0.6,0.3c-0.2,0-0.3-0.2-0.3-0.4
		C138.1,213.8,138.2,213.7,138.4,213.7z M137,211.3c0.2,0,0.3,0.2,0.3,0.3c0,0.2-0.2,0.3-0.3,0.3c-0.2,0-0.6-0.3-0.6-0.3
		S136.8,211.3,137,211.3z M134,213.8c0.1-0.1,0.7-0.1,0.7-0.1s0,0.5-0.2,0.6c-0.1,0.1-0.4,0.1-0.5,0
		C133.8,214.2,133.9,213.9,134,213.8z M132.2,211.3c0.1-0.1,0.6-0.1,0.6-0.1s0,0.5-0.2,0.6c-0.1,0.1-0.4,0.1-0.5,0
		C132,211.6,132,211.4,132.2,211.3z M132.2,216.4c0.2,0,0.6,0.3,0.6,0.3s-0.3,0.4-0.5,0.4c-0.2,0-0.4-0.1-0.4-0.3
		C131.8,216.6,132,216.4,132.2,216.4z M130.7,213.5c0.2,0,0.4,0.1,0.4,0.3c0,0.2-0.2,0.6-0.2,0.6s-0.4-0.3-0.5-0.5
		C130.4,213.7,130.5,213.5,130.7,213.5z M129,215.7c0,0-0.5,0.1-0.7-0.1c-0.2-0.1-0.2-0.3-0.1-0.5c0.1-0.2,0.3-0.2,0.5-0.1
		C128.9,215.2,129,215.7,129,215.7z M128.3,211.3c0,0,0.4,0.3,0.4,0.5c0,0.2-0.1,0.4-0.3,0.4c-0.2,0-0.4-0.1-0.4-0.3
		C128,211.8,128.3,211.3,128.3,211.3z M125.6,213.3c0.2,0,0.4,0.1,0.4,0.3c0,0.2-0.1,0.4-0.3,0.4c-0.2,0-0.6-0.2-0.6-0.2
		S125.5,213.3,125.6,213.3z"/>
</g>
<g id="Burger_19_" opacity="0.1">
	<path fill="#666766" d="M76.2,24.4c0.1,0.2,0.1,0.4-0.1,0.5l-3.5,2.3c-0.1,0.1-0.3,0-0.5-0.1l0,0c-0.1-0.2-0.1-0.4,0.1-0.5l3.5-2.3
		C75.9,24.2,76.1,24.3,76.2,24.4L76.2,24.4z"/>
	<path fill="#666766" d="M75.9,24.7c0,0-0.7,0-1.9,0.8c-1.3,0.8-1.5,1.5-1.5,1.5s-0.3,0-0.6-0.5c-0.2-0.3,0-0.3,0-0.3
		s0.5-0.3,1.8-1.1c1.3-0.9,1.8-1.3,1.8-1.3s0.1-0.1,0.2,0.2C76.1,24.4,75.9,24.7,75.9,24.7z"/>
	<path fill="#666766" d="M75.8,23.7c0.1,0.2,0.1,0.4-0.1,0.5l-3.5,2.3c-0.1,0.1-0.3,0-0.5-0.1l0,0c-0.1-0.2-0.1-0.4,0.1-0.5l3.5-2.3
		C75.5,23.5,75.7,23.6,75.8,23.7L75.8,23.7z"/>
	<path fill="#666766" d="M76.6,25.1c0.1,0.2,0.1,0.5-0.1,0.7l-3.3,2.1c-0.2,0.1-0.5,0.1-0.7-0.1l0,0c-0.1-0.2-0.3-0.4,0.1-0.7
		l3.3-2.1C76.4,24.7,76.5,24.9,76.6,25.1L76.6,25.1z"/>
	<path fill="#666766" d="M72.6,23.4c-1.1,0.7-1.6,1.9-1.3,2.4c0.3,0.5,0.2,0.4,2.3-1c2-1.3,2.1-1.2,1.8-1.7
		C75.1,22.7,73.8,22.7,72.6,23.4z M71.6,25.2c0,0-0.1,0.1-0.1,0.1s-0.1-0.1-0.1-0.1C71.4,25.2,71.4,25.1,71.6,25.2
		C71.5,25.1,71.6,25.1,71.6,25.2z M72.4,23.9c0,0,0.1-0.1,0.1-0.1s0.1,0.1,0.1,0.1C72.6,23.9,72.5,24,72.4,23.9
		C72.4,23.9,72.4,23.9,72.4,23.9z M72.4,25.2C72.4,25.2,72.3,25.2,72.4,25.2c-0.1,0-0.1,0-0.1,0c0,0,0.1-0.1,0.1-0.1
		S72.4,25.1,72.4,25.2z M72,24.5c0,0-0.1,0.1-0.1,0.1s0-0.1,0-0.1C71.9,24.4,71.9,24.4,72,24.5C72,24.5,72,24.5,72,24.5z M72.6,24.6
		c0,0-0.1,0-0.1,0s0-0.1,0.1-0.1C72.5,24.5,72.6,24.5,72.6,24.6C72.6,24.6,72.6,24.6,72.6,24.6z M73.1,24.9
		C73.1,24.9,73,24.9,73.1,24.9c-0.1,0-0.1-0.1-0.1-0.1c0,0,0.1,0,0.1,0S73.1,24.8,73.1,24.9z M73.3,24.1
		C73.3,24.1,73.2,24.2,73.3,24.1c-0.1,0.1-0.1,0-0.1,0C73.2,24,73.2,24,73.3,24.1C73.3,24,73.3,24,73.3,24.1z M73.9,24.3
		c0,0-0.1,0.1-0.1,0.1s-0.1-0.1,0-0.1C73.8,24.2,73.8,24.2,73.9,24.3C73.9,24.2,73.9,24.2,73.9,24.3z M73.3,23.4c0,0-0.1,0-0.1,0
		s0-0.1,0-0.1C73.2,23.3,73.3,23.3,73.3,23.4C73.3,23.4,73.3,23.4,73.3,23.4z M73.9,23.7c0,0-0.1,0-0.1,0c0,0,0-0.1,0-0.1
		s0.1,0,0.1,0C73.9,23.7,73.9,23.7,73.9,23.7z M73.9,23.2c0,0,0.1-0.1,0.1-0.1c0,0,0.1,0,0.1,0.1c0,0,0,0.1-0.1,0.1
		C74,23.2,73.9,23.2,73.9,23.2z M74.5,23.8c0,0-0.1,0-0.1,0c0,0,0-0.1,0-0.1c0,0,0.1,0,0.1,0C74.5,23.7,74.5,23.8,74.5,23.8z
		 M74.8,23.2c0,0-0.1,0-0.1,0c0,0,0-0.1,0-0.1c0,0,0.1,0,0.1,0S74.8,23.2,74.8,23.2z"/>
</g>
<g id="Burger_18_" opacity="0.1">
	<path fill="#666766" d="M213,46.5c-0.2,0.3-0.6,0.4-0.9,0.2l-6.5-4.6c-0.3-0.2-0.3-0.6-0.1-0.9l0,0c0.2-0.3,0.6-0.4,0.9-0.2
		l6.5,4.6C213.1,45.8,213.2,46.2,213,46.5L213,46.5z"/>
	<path fill="#666766" d="M212.4,46.2c0,0-0.4-1.2-2.7-2.9c-2.3-1.6-3.6-1.6-3.6-1.6s-0.2-0.6,0.5-1.5c0.3-0.5,0.6-0.2,0.6-0.2
		s0.8,0.8,3.3,2.5c2.4,1.7,3.5,2.4,3.5,2.4s0.2,0-0.2,0.5C212.9,46.2,212.4,46.2,212.4,46.2z"/>
	<path fill="#666766" d="M213.9,45.2c-0.2,0.3-0.6,0.4-0.9,0.2l-6.5-4.6c-0.3-0.2-0.3-0.6-0.1-0.9l0,0c0.2-0.3,0.6-0.4,0.9-0.2
		l6.5,4.6C214.1,44.5,214.1,44.9,213.9,45.2L213.9,45.2z"/>
	<path fill="#666766" d="M212.2,47.7c-0.3,0.4-0.9,0.5-1.3,0.2l-6-4.3c-0.4-0.3-0.5-0.9-0.2-1.3l0,0c0.3-0.4,0.5-0.7,1.3-0.2l6,4.3
		C212.7,46.9,212.4,47.3,212.2,47.7L212.2,47.7z"/>
	<path fill="#666766" d="M212.4,39.4c-2.1-1.5-4.5-1.6-5.1-0.7c-0.6,0.8-0.5,0.7,3.3,3.4c3.8,2.7,3.6,2.8,4.2,2
		C215.3,43.2,214.4,40.9,212.4,39.4z M208.4,38.8c-0.1,0-0.3,0-0.3,0s0.1-0.2,0.1-0.2c0.1,0,0.1,0,0.2,0.1
		C208.5,38.7,208.5,38.7,208.4,38.8z M211.3,39.4c0.1,0,0.2,0.1,0.2,0.1s-0.1,0.2-0.2,0.2c-0.1,0-0.1,0-0.2-0.1
		C211.2,39.5,211.3,39.4,211.3,39.4z M209,40.2c-0.1,0-0.1-0.1-0.1-0.1c0-0.1,0.1-0.1,0.1-0.1c0.1,0,0.2,0.1,0.2,0.1
		S209.1,40.2,209,40.2z M209.9,39.1c-0.1,0-0.2-0.2-0.2-0.2s0.2-0.1,0.2-0.1c0.1,0,0.1,0.1,0.1,0.1C210,39.1,210,39.1,209.9,39.1z
		 M210.1,40.1c-0.1,0-0.1-0.2-0.1-0.2s0.2,0,0.3,0c0.1,0,0.1,0.1,0,0.2C210.3,40.2,210.2,40.2,210.1,40.1z M210.1,41.2
		c-0.1,0-0.1-0.1,0-0.2c0-0.1,0.1-0.1,0.2,0c0.1,0,0.1,0.2,0.1,0.2S210.1,41.3,210.1,41.2z M211.6,41.1c-0.1,0-0.2-0.1-0.2-0.1
		s0.1-0.2,0.2-0.2c0.1,0,0.1,0,0.2,0.1C211.7,41,211.7,41,211.6,41.1z M211.6,42.3c-0.1,0-0.2-0.1-0.2-0.1s0.1-0.2,0.2-0.2
		c0.1,0,0.1,0,0.2,0.1C211.8,42.2,211.7,42.3,211.6,42.3z M212.7,40.6c-0.1,0-0.1-0.2-0.1-0.2s0.2,0,0.3,0c0.1,0,0.1,0.1,0.1,0.2
		C212.9,40.6,212.8,40.6,212.7,40.6z M212.6,41.9c-0.1,0-0.1-0.1-0.1-0.2c0-0.1,0.2-0.2,0.2-0.2s0.1,0.2,0.1,0.3
		C212.7,41.9,212.7,41.9,212.6,41.9z M213.6,41.5c0,0,0.2,0.1,0.2,0.2c0,0.1,0,0.1-0.1,0.2c-0.1,0-0.1,0-0.2-0.1
		C213.5,41.7,213.6,41.5,213.6,41.5z M212.9,43.1c0,0-0.1-0.2,0-0.3c0-0.1,0.1-0.1,0.2-0.1c0.1,0,0.1,0.1,0.1,0.2
		C213.1,43,212.9,43.1,212.9,43.1z M214.2,43c-0.1,0-0.1-0.1-0.1-0.2c0-0.1,0.1-0.1,0.2-0.1c0.1,0,0.2,0.2,0.2,0.2
		S214.3,43,214.2,43z"/>
</g>
<g id="Cake_24_" opacity="0.1">
	<path fill="#666766" d="M41.9,74.7c-1.3,0.1-6.1,0.4-6.1,0.4L33.7,80l11.4,2.7l2.2-4.9C47.4,77.4,42.9,74.6,41.9,74.7z"/>
	<path fill="#666766" d="M46.7,80.8l0.2-0.8l-12.7-3L34,77.8l1.9,0.4c0.1,0.1,0.1,0.2,0,0.4c-0.1,0.2-0.2,0.2-0.2,0.3
		c0,0.1,0,0.2,0.1,0.2c0.1,0,0.2,0,0.2-0.1c0-0.1,0-0.2,0.1-0.3c0.1-0.1,0.2-0.3,0.3-0.3l3.1,0.7c0.1,0.1,0.1,0.3,0,0.5
		c-0.1,0.3-0.3,0.4-0.3,0.5c-0.1,0.1,0,0.3,0.1,0.3c0.1,0,0.3,0,0.4-0.2c0.1-0.2,0-0.3,0.1-0.6c0.1-0.2,0.3-0.4,0.4-0.4l0.9,0.2
		c0.1,0.1,0.1,0.2,0,0.4c-0.1,0.2-0.2,0.2-0.2,0.3c0,0.1,0,0.2,0.1,0.2c0.1,0,0.2,0,0.2-0.1c0-0.1,0-0.2,0.1-0.4
		c0.1-0.1,0.3-0.3,0.4-0.3c0,0,0,0,0,0L46.7,80.8z"/>
</g>
<g id="Cake_23_" opacity="0.1">
	<path fill="#666766" d="M260.1,131.2c0.2,1,0.9,4.7,0.9,4.7l4,1.2l0.9-9.2l-4-1.2C261.7,126.7,259.9,130.5,260.1,131.2z"/>
	<path fill="#666766" d="M264.3,126.9l-0.6-0.1l-1,10.2l0.6,0.1l0.2-1.5c0-0.1,0.2-0.1,0.3-0.1c0.1,0,0.2,0.1,0.3,0.1
		c0.1,0,0.1,0,0.1-0.1c0-0.1,0-0.1-0.1-0.2c-0.1,0-0.2,0-0.3,0c-0.1,0-0.2-0.1-0.3-0.2l0.3-2.5c0.1-0.1,0.3-0.1,0.4-0.1
		c0.2,0.1,0.3,0.2,0.4,0.2c0.1,0,0.2,0,0.2-0.1c0-0.1,0-0.2-0.2-0.3c-0.1,0-0.2,0-0.4-0.1c-0.1,0-0.3-0.2-0.4-0.3l0.1-0.7
		c0-0.1,0.2-0.1,0.3-0.1c0.1,0,0.2,0.1,0.3,0.1c0.1,0,0.1,0,0.1-0.1c0-0.1,0-0.1-0.1-0.2c-0.1,0-0.2,0-0.3,0c-0.1,0-0.3-0.2-0.3-0.3
		c0,0,0,0,0,0L264.3,126.9z"/>
</g>
<g id="Cake_22_" opacity="0.1">
	<path fill="#666766" d="M96.4,163.1c-1.4,1.6-6.8,7.2-6.8,7.2l2.8,8.2l16.6-9.4l-2.8-8.2C106,160.3,97.5,161.9,96.4,163.1z"/>
	<path fill="#666766" d="M108.8,165l-0.7-1.2l-18.4,10.4l0.7,1.2l2.8-1.6c0.2,0,0.4,0.2,0.4,0.4c0.1,0.3,0,0.5,0.1,0.6
		c0,0.1,0.2,0.2,0.3,0.1c0.1-0.1,0.2-0.2,0.1-0.4c-0.1-0.2-0.2-0.3-0.3-0.5c-0.1-0.2,0-0.6,0.1-0.7l4.6-2.6c0.2,0.1,0.5,0.3,0.6,0.6
		c0.1,0.4,0.1,0.8,0.1,1c0.1,0.2,0.3,0.3,0.5,0.2c0.2-0.1,0.3-0.3,0.2-0.6c-0.1-0.3-0.3-0.4-0.4-0.8c-0.1-0.3-0.1-0.7,0.1-1l1.3-0.7
		c0.2,0,0.4,0.2,0.5,0.4c0.1,0.3,0,0.5,0.1,0.6c0,0.1,0.2,0.2,0.3,0.1c0.1-0.1,0.2-0.2,0.1-0.4c-0.1-0.2-0.2-0.3-0.3-0.5
		c-0.1-0.3,0-0.7,0.1-0.8c0,0,0,0,0,0L108.8,165z"/>
</g>
<g id="Coffee_12_" opacity="0.1">
	<path fill="#666766" d="M154.3,187.2c0.9-3,3.8-4.9,5.9-5.3l2.5-0.6l2.7-0.6c3.6-0.8,9.4,1.3,11.5,10.3c0.8,3.6-2.3,6.2-10,8.1
		c-6.4,1.5-10.1,1-11.7-1.2l-0.6,0.2c-0.4,0.1-0.7,0.2-1,0.2c-2.5,0.2-4.7-2.2-4.9-5.2c-0.2-3,1.7-5.7,4.2-5.8c0.2,0,0.5,0,0.8,0
		L154.3,187.2z"/>
	<path fill="#666766" d="M154.3,194.9c-0.3-1.7-0.4-3.2-0.4-4.6l-0.7,0c-1.1,0.1-1.9,1.2-1.8,2.5c0.1,1.3,1,2.3,2.1,2.3L154.3,194.9
		z"/>
	<path fill="#666766" d="M156.7,197.3c-0.3-1.4,3.5-3.5,8.6-4.7c5.1-1.2,9.5-1.1,9.8,0.3c0.3,1.4-3.5,3.5-8.6,4.7
		C161.5,198.8,157.1,198.7,156.7,197.3z"/>
</g>
<path opacity="0.1" fill="#666766" d="M135.7,181.4l5.7-1.2l0.1-2.3l0.3-6c0.2,0.1,0.5,0.2,0.9,0.2c0.9,0,1.6-0.4,1.6-1
	c0-0.6-0.7-1.1-1.5-1.1c-0.9,0-1.6,0.4-1.6,1c0,0,0,0,0,0h0l-0.4,7l-4.2,0.9l0.3-5.9c0.3,0.1,0.6,0.2,0.9,0.2c0.9,0,1.6-0.4,1.7-1
	c0-0.6-0.7-1.1-1.5-1.1c-0.9,0-1.6,0.4-1.7,1l0,0L135.7,181.4z"/>
<path opacity="0.1" fill="#666766" d="M179.8,80.7l-7.7-1.4l-1.3,2.8l-3.5,7.3c-0.2-0.3-0.6-0.5-1-0.7c-1.1-0.5-2.2-0.3-2.5,0.4
	c-0.3,0.7,0.3,1.7,1.3,2.2c1.1,0.5,2.2,0.3,2.5-0.4c0,0,0,0,0-0.1l0,0l4-8.6l5.7,1l-3.4,7.1c-0.2-0.3-0.6-0.5-1-0.7
	c-1.1-0.5-2.2-0.3-2.6,0.4c-0.3,0.7,0.3,1.7,1.3,2.2c1.1,0.5,2.2,0.3,2.6-0.4l0,0L179.8,80.7z"/>
<path opacity="0.1" fill="#666766" d="M252.3,196.9l8.2,6.1c-0.3,0.2-0.7,0.5-0.9,0.8c-0.7,1-0.8,2.2-0.1,2.7
	c0.7,0.5,1.8,0.1,2.5-0.9c0.7-1,0.8-2.2,0.1-2.7c0,0,0,0-0.1,0l0,0l-9.1-6.8L252.3,196.9z"/>
<g id="Paperclip_28_" opacity="0.1">
	<path fill="#666766" d="M40.8,51.7c-0.9,1.1-2.6,1.2-3.7,0.3l-7.1-6c-0.9-0.7-1-2-0.3-2.9c0.7-0.9,2-1,2.9-0.3l6.5,5.4
		c0.6,0.5,0.7,1.5,0.2,2.1c-0.5,0.6-1.5,0.7-2.1,0.2l-4.4-3.7l0.5-0.6l4.4,3.7c0.3,0.3,0.8,0.2,1.1-0.1c0.3-0.3,0.2-0.8-0.1-1.1
		l-6.5-5.4c-0.6-0.5-1.4-0.4-1.9,0.2c-0.5,0.6-0.4,1.4,0.2,1.9l7.1,6c0.8,0.7,2,0.6,2.6-0.2c0.7-0.8,0.6-2-0.2-2.6l-4.7-3.9l0.5-0.6
		l4.7,3.9C41.6,48.9,41.8,50.6,40.8,51.7z"/>
</g>
<g id="_x31_Self_7_">
	<defs>
		<rect id="SVGID_1_" x="93.1" y="100.8" width="92.6" height="65.4"/>
	</defs>
	<clipPath id="SVGID_2_">
		<use xlink:href="#SVGID_1_"  overflow="visible"/>
	</clipPath>
	<path opacity="0.48" clip-path="url(#SVGID_2_)" fill="#31373F" d="M122.5,138.6v2.5h-9.8v-2.5h3.6v-9c-0.6,0.8-2.8,1.9-4.2,1.9
		V129c1.4,0,3.9-2,4.2-2.4h2.9v12.1H122.5z"/>
	<path opacity="0.48" clip-path="url(#SVGID_2_)" fill="#31373F" d="M124.2,139.8l1-1.7c1.4,1,2.9,1.5,4.3,1.5
		c1.5,0,2.4-0.6,2.4-1.7c0-1-1-1.3-3.1-1.8c-3-0.7-4.1-1.4-4.1-3.2c0-2.4,2-3.8,4.6-3.8c1.7,0,3.4,0.6,4.6,1.5l-1.1,1.5
		c-1.2-0.9-2.4-1.3-3.6-1.3c-1.3,0-2.3,0.5-2.3,1.7c0,1,0.7,1.2,2.6,1.7c3.3,0.8,4.7,1.5,4.7,3.5c0,2.2-1.9,3.7-4.8,3.7
		C127.7,141.4,125.5,140.8,124.2,139.8"/>
	<path opacity="0.48" clip-path="url(#SVGID_2_)" fill="#31373F" d="M136.2,135.3c0-3.4,2.4-6.2,6.2-6.2c3.7,0,6.1,2.9,6.1,6
		c0,0.4,0,0.7-0.1,0.9h-9.5c0.2,2.1,1.7,3.5,3.6,3.5c1.3,0,2.7-0.7,3.1-1.8l2.1,0.6c-0.8,1.8-2.8,3-5.3,3
		C138.7,141.4,136.2,138.6,136.2,135.3 M146,134.4c-0.2-2-1.7-3.4-3.6-3.4c-1.9,0-3.4,1.4-3.6,3.4H146z"/>
	<path opacity="0.48" clip-path="url(#SVGID_2_)" fill="#31373F" d="M150.9,124.6h2.5v13.1c0,0.9,0.5,1.4,1.3,1.4
		c0.3,0,0.8-0.1,1.2-0.3l0.4,2c-0.7,0.3-1.8,0.5-2.6,0.5c-1.7,0-2.7-1-2.7-2.7V124.6z"/>
	<path opacity="0.48" clip-path="url(#SVGID_2_)" fill="#31373F" d="M158.8,141.2v-8.5h-1.6v-1.9h1.6v-1.6c0-2.9,1.5-4.7,3.8-4.7
		c1,0,1.9,0.3,2.7,0.7l-0.5,1.9c-0.4-0.3-1.1-0.5-1.7-0.5c-1.2,0-1.8,0.9-1.8,2.6v1.6h3v1.9h-3v8.5H158.8z"/>
	<path opacity="0.48" clip-path="url(#SVGID_2_)" fill="#31373F" d="M122.1,117.4v-1.3c-9.5,0-17.1,7.7-17.1,17.1
		c0,9.5,7.7,17.1,17.1,17.1v-1.3c-8.8,0-15.9-7.1-15.9-15.9C106.2,124.6,113.3,117.4,122.1,117.4"/>
	<path clip-path="url(#SVGID_2_)" fill="#EFAD1E" d="M103.7,135.1c-1-1.1-0.8-2.9,0.3-3.8c1.1-1,2.9-0.8,3.8,0.3
		c1,1.1,0.8,2.9-0.3,3.8C106.4,136.4,104.6,136.2,103.7,135.1"/>
	<path clip-path="url(#SVGID_2_)" fill="#31373F" d="M105.7,136.7c-1,0-1.9-0.4-2.5-1.2c-0.6-0.7-0.9-1.5-0.8-2.4
		c0.1-0.9,0.5-1.7,1.2-2.3c0.6-0.5,1.4-0.8,2.2-0.8c1,0,1.9,0.4,2.5,1.2c1.2,1.4,1,3.5-0.4,4.7C107.3,136.4,106.5,136.7,105.7,136.7
		 M105.7,131.2c-0.5,0-1,0.2-1.4,0.5c-0.4,0.4-0.7,0.9-0.7,1.4c0,0.6,0.1,1.1,0.5,1.5c0.7,0.9,2.1,1,3,0.2c0.9-0.8,1-2.1,0.2-3
		C106.9,131.5,106.4,131.2,105.7,131.2"/>
	<path opacity="0.48" clip-path="url(#SVGID_2_)" fill="#31373F" d="M156.8,117.6v-1.3c9.5,0,17.1,7.7,17.1,17.1
		c0,9.5-7.7,17.1-17.1,17.1v-1.3c8.8,0,15.9-7.1,15.9-15.9C172.6,124.7,165.5,117.6,156.8,117.6"/>
	<path clip-path="url(#SVGID_2_)" fill="#00B597" d="M172.9,136.2c-1.5-0.1-2.6-1.4-2.5-2.9c0.1-1.5,1.4-2.6,2.9-2.5
		c1.5,0.1,2.6,1.4,2.5,2.9C175.7,135.2,174.4,136.3,172.9,136.2"/>
	<path clip-path="url(#SVGID_2_)" fill="#31373F" d="M173.1,136.8c-0.1,0-0.2,0-0.3,0c-0.9-0.1-1.7-0.5-2.3-1.2
		c-0.6-0.7-0.9-1.5-0.8-2.4c0.1-1.8,1.7-3.2,3.6-3.1c0.9,0.1,1.7,0.5,2.3,1.2c0.6,0.7,0.9,1.5,0.8,2.4
		C176.3,135.4,174.9,136.8,173.1,136.8 M173.1,131.3c-1.1,0-2,0.9-2.1,1.9c0,0.6,0.1,1.1,0.5,1.5c0.4,0.4,0.9,0.7,1.4,0.7
		c1.2,0.1,2.2-0.8,2.3-1.9c0-0.6-0.1-1.1-0.5-1.5c-0.4-0.4-0.9-0.7-1.4-0.7C173.3,131.3,173.2,131.3,173.1,131.3"/>
</g>
</svg>
