<?xml version="1.0" encoding="utf-8"?>
<!-- Generator: Adobe Illustrator 18.1.0, SVG Export Plug-In . SVG Version: 6.00 Build 0)  -->
<svg version="1.1" id="Layer_1" xmlns="http://www.w3.org/2000/svg" xmlns:xlink="http://www.w3.org/1999/xlink" x="0px" y="0px"
	 viewBox="45.7 90.2 520.4 458.6" enable-background="new 45.7 90.2 520.4 458.6" xml:space="preserve">
<path fill="#E06257" stroke="#E06257" stroke-width="18" stroke-miterlimit="10" d="M306,539.8c-3.1,0-6.1-1.2-8.6-3.7L96.1,336.6
	c-8.6-8-15.3-17.1-21.4-26.9c-33-54.5-24.5-124.2,21.4-169.5c26.3-26.3,61.8-41,99.1-41c25.1,0,50.2,6.7,71.6,19.6
	c9.8,5.5,19,12.9,27.5,21.4c4.3,4.3,8,8.6,11.6,12.9c3.7-4.3,7.3-8.6,11.6-12.9c8.6-8,17.7-15.3,27.5-21.4
	c21.4-12.9,46.5-19.6,71.6-19.6c37.3,0,72.8,14.7,99.1,41c45.3,45.3,54.5,115.1,21.4,169.5c-6.1,9.8-12.9,19-21.4,26.9L314.6,536.1
	C312.1,538.6,309.1,539.8,306,539.8z M195.2,123.7c-31.2,0-60,12.2-82,33.7c-37.3,37.3-44.7,94.9-17.7,139.5
	c4.9,8,11,15.9,17.7,22.6L306,510.4l192.8-190.9c6.7-6.7,12.9-14.1,17.7-22.6c26.9-45.3,20.2-102.8-17.7-139.5
	c-22-21.4-51.4-33.7-82-33.7c-20.8,0-41.6,5.5-59.4,15.9c-8,4.9-15.9,10.4-22.6,17.7c-7.3,7.3-13.5,15.3-18.4,23.3
	c-2.4,3.7-6.1,6.1-10.4,6.1l0,0c-4.3,0-8.6-2.4-10.4-6.1c-4.9-8.6-11-16.5-18.4-23.3c-6.7-6.7-14.7-12.9-22.6-17.1
	C236.8,129.2,216,123.7,195.2,123.7z"/>
</svg>
