<?xml version="1.0" encoding="utf-8"?>
<!-- Generator: Adobe Illustrator 18.1.0, SVG Export Plug-In . SVG Version: 6.00 Build 0)  -->
<svg version="1.1" id="Layer_1" xmlns="http://www.w3.org/2000/svg" xmlns:xlink="http://www.w3.org/1999/xlink" x="0px" y="0px"
	 viewBox="66.8 80.3 478.4 478.4" enable-background="new 66.8 80.3 478.4 478.4" xml:space="preserve">
<g>
	<path fill="#71B9D9" stroke="#71B9D9" stroke-miterlimit="10" d="M266.1,436c0,10,3.2,18.1,9.5,24.6c6.5,6.3,14.5,9.6,24.1,9.6
		c9.8,0,17.9-3.3,24.4-9.6c6.6-6.5,9.9-14.6,9.9-24.6c0-9.9-3.3-18.1-9.9-24.5c-6.4-6.5-14.6-9.6-24.4-9.6c-9.6,0-17.7,3.2-24.1,9.6
		C269.2,417.9,266.1,426.2,266.1,436z M277.6,368.2h45.9c-1.2-9.4-0.6-14,2.2-21.5c2.9-7.6,6.7-14.7,11.4-21.4
		c4.6-6.7,10-13.2,16-19.4c5.8-6.1,11.4-12.6,16.6-19.2c5.1-6.7,9.5-13.8,12.9-21.2c3.5-7.6,5.2-15.8,5.2-25.2
		c0-12.1-2.1-22.5-6.1-31.5c-4.1-9.1-10-16.7-17.5-22.8c-7.6-6.2-16.6-10.8-26.8-13.9c-10.3-3-21.5-4.6-33.7-4.6
		c-16.7,0-31.7,3.7-44.9,10.8c-13.4,7.1-25,16.2-34.6,27.4l29.1,25.8c6.6-7.1,13.8-12.5,21.3-16.7c7.7-4,16.1-6.1,25.5-6.1
		c11.6,0,20.6,3.2,27.2,9.6c6.5,6.5,9.8,14.9,9.8,25.5c0,6.7-1.7,12.9-5,18.8c-3.4,5.9-7.6,11.8-12.6,17.8c-5,6-10.3,12.2-15.9,18.4
		c-5.6,6.3-10.6,13-15,20.3c-4.4,7.3-7.7,15.4-10,24.1C276.2,351.9,276.1,357.8,277.6,368.2z M67.3,319.5
		c0,131.8,106.9,238.7,238.7,238.7c131.8,0,238.7-106.9,238.7-238.7S437.8,80.8,306,80.8C174.2,80.8,67.3,187.7,67.3,319.5z
		 M111.3,319.5c0-107.5,87.2-194.7,194.7-194.7S500.7,212,500.7,319.5S413.5,514.2,306,514.2S111.3,427,111.3,319.5z"/>
</g>
</svg>
