<?xml version="1.0" encoding="utf-8"?>
<!-- Generator: Adobe Illustrator 18.1.0, SVG Export Plug-In . SVG Version: 6.00 Build 0)  -->
<svg version="1.1" id="Layer_1" xmlns:sketch="http://www.bohemiancoding.com/sketch/ns"
	 xmlns="http://www.w3.org/2000/svg" xmlns:xlink="http://www.w3.org/1999/xlink" x="0px" y="0px" viewBox="5.6 125.8 603.1 432.4"
	 enable-background="new 5.6 125.8 603.1 432.4" xml:space="preserve">
<title>Oval 18</title>
<desc>Created with Sketch.</desc>
<g sketch:type="MSPage">
	<g transform="translate(-161.000000, -3167.000000)" sketch:type="MSArtboardGroup">
		<path sketch:type="MSShapeGroup" fill="#43A3CD" d="M314.8,3476.2V3394l-148.2,115.6l148.2,115.6v-80.4c0.2,0,0.4,0,0.6,0h236.3
			c7.3,0,13.3-6,13.3-13.3v-42c0-7.3-6-13.3-13.3-13.3H315.4C315.2,3476.2,315,3476.2,314.8,3476.2z M358.9,3416.3
			c34.6-73,108.9-123.5,195-123.5c119.2,0,215.8,96.8,215.8,216.2c0,119.4-96.6,216.2-215.8,216.2c-86.1,0-160.4-50.5-195-123.5
			h71.7c28.1,37.5,72.9,61.8,123.3,61.8c85.1,0,154.1-69.1,154.1-154.4c0-85.3-69-154.4-154.1-154.4c-50.4,0-95.2,24.3-123.3,61.8
			H358.9L358.9,3416.3z"/>
	</g>
</g>
</svg>
