<?xml version="1.0" encoding="utf-8"?>
<!-- Generator: Adobe Illustrator 16.0.0, SVG Export Plug-In . SVG Version: 6.00 Build 0)  -->
<!DOCTYPE svg PUBLIC "-//W3C//DTD SVG 1.1//EN" "http://www.w3.org/Graphics/SVG/1.1/DTD/svg11.dtd">
<svg version="1.1" id="Layer_1" xmlns:sketch="http://www.bohemiancoding.com/sketch/ns"
	 xmlns="http://www.w3.org/2000/svg" xmlns:xlink="http://www.w3.org/1999/xlink" x="0px" y="0px" width="612px" height="139.091px"
	 viewBox="0 309.068 612 139.091" enable-background="new 0 309.068 612 139.091" xml:space="preserve">
<title>more</title>
<description>Created with Sketch (http://www.bohemiancoding.com/sketch)</description>
<g sketch:type="MSPage">
	<path sketch:type="MSShapeGroup" fill="#999999" d="M69.545,448.159c38.409,0,69.545-31.137,69.545-69.545
		c0-38.409-31.136-69.545-69.545-69.545C31.137,309.068,0,340.205,0,378.614C0,417.022,31.137,448.159,69.545,448.159
		L69.545,448.159z M306,448.159c38.409,0,69.546-31.137,69.546-69.545c0-38.409-31.137-69.545-69.546-69.545
		c-38.409,0-69.545,31.136-69.545,69.545C236.455,417.022,267.591,448.159,306,448.159L306,448.159z M542.454,448.159
		c38.409,0,69.546-31.137,69.546-69.545c0-38.409-31.137-69.545-69.546-69.545c-38.408,0-69.545,31.136-69.545,69.545
		C472.909,417.022,504.046,448.159,542.454,448.159L542.454,448.159z"/>
</g>
</svg>
