<?xml version="1.0" encoding="utf-8"?>
<!-- Generator: Adobe Illustrator 18.1.0, SVG Export Plug-In . SVG Version: 6.00 Build 0)  -->
<svg version="1.1" id="Layer_1" xmlns="http://www.w3.org/2000/svg" xmlns:xlink="http://www.w3.org/1999/xlink" x="0px" y="0px"
	 viewBox="0 0 220 219.2" enable-background="new 0 0 220 219.2" xml:space="preserve">
<g id="suGiQq.tif">
	<g>
		<g>
			<path fill="#8AC140" d="M0,109.2c0-0.7,0-1.3,0-2c1-1.7,0.3-3.5,0.5-5.2c0-1.6,0-3.1,0-4.7C0.2,80.7,5.2,65.8,13.8,51.9
				c1.1-1.8,2.3-3.7,4.6-4.2c1.9,0.1,3.1,1.3,3.9,2.7c5.4,9.1,11.6,17.8,15.3,27.9c0.2,6.4-2.9,12.2-3.8,18.4
				c-3.4,23.7,2.1,44.9,17.6,63.3c13.7,16.1,31.2,24.9,52.2,27.1c2.2,0.2,4.3,0.6,5.5,2.8c1,5.3-1.9,9.6-3.3,14.3
				c-1.3,4.8-3.2,9.4-5.3,13.9c-7.5,0.4-14.9,0.1-22.1-2.1c-36-11.1-60.3-34.6-74-69.5C1.1,138,0.8,129,0.5,120.1c0-1.6,0-3.1,0-4.7
				C0.2,113.3,1.1,111.2,0,109.2z"/>
			<path fill="#F5C716" d="M220,112.2c0,1.7,0,3.3,0,5c-1.1,2.3-0.8,4.9-0.8,7.3c-0.6,19.9-9.1,36.7-20.6,52.1
				c-15.1,20.1-35.1,33.3-59.4,40c-7.5,2.1-15.5,1.4-23.1,2.7c-1,0-2,0-3,0c-2.3-0.8-4.7-0.8-7,0c-1.3,0-2.7,0-4,0
				c-0.6-0.4-1.3-0.7-1.3-1.6c4.2-10.8,9.6-20.9,17.3-29.6c10.2-2.4,20.5-4.3,29.8-9.6c26-15.1,40.4-37.1,41.2-67.7
				c0.4-15.5-3.8-29.5-11.8-42.6c-1.6-2.6-5.3-5.5-1.4-9.2c10.5-1.5,21-1.3,31.5-0.1c2.7,0.8,3.7,3,4.8,5.3
				c5.6,11.6,7.3,24.1,7.4,36.8c0,1.6,0,3.3,0,4.9C219.8,108,218.9,110.2,220,112.2z"/>
			<path display="none" fill="#FFFFFF" d="M423.2,151.8c-1.3-14.2-4.4-28-11.5-40.6c-2.9-2.3-4.9-5.2-6.9-8.3
				c-17-26.6-41.1-42.9-72-48.3c-33.5-5.9-63.6,2.6-89.8,24.6c-6.6,5.5-11.5,12.4-17.5,18.4c-0.6,0.9-1.6,1.3-2.6,1.5
				c-10.4,14.6-16.1,30.9-18,48.6c-0.2,0.8-0.5,0.8-0.9,0.1c0-31.8,0-63.6-0.1-95.4c0-2.7,0.1-3.7,3.4-3.7
				c71.1,0.1,142.2,0.1,213.2,0c3.3,0,3.4,1.1,3.4,3.7c-0.1,33.1-0.1,66.3-0.1,99.4C423.7,152.6,423.4,152.5,423.2,151.8z"/>
			<path display="none" fill="#FFFFFF" d="M320,269.9c2.5-2.1,5.6-1.3,8.5-1.7c50.5-7.5,87.9-45.6,94.4-96.3c0.2-1.4-0.5-3.1,1.2-4
				c0,32.8-0.1,65.7,0.1,98.5c0,3-0.6,3.6-3.6,3.6C387,269.8,353.5,269.9,320,269.9z"/>
			<path display="none" fill="#FFFFFF" d="M305.3,268.6c0.2,0.4,0.5,0.9,0.7,1.3c-32.8,0-65.5,0-98.3,0.1c-3.1,0-3.8-0.7-3.8-3.8
				c0.1-31.8,0.1-63.5,0.1-95.3c0.5-0.7,0.7-0.6,0.8,0.2c5.4,42.7,28.2,72.5,67.4,89.8c10.1,4.5,20.7,7,31.8,7.7
				C304.4,268.3,304.8,268.3,305.3,268.6z"/>
			<path display="none" fill="#FDECC0" d="M310,269.9c2.3-1.5,4.7-1.6,7,0C314.7,269.9,312.3,269.9,310,269.9z"/>
			<path fill="#97C652" d="M204,159.9c1.5,1.9,0.9,4,0.9,6.1c-0.4,0.4-0.7,0.4-0.9-0.1C204,163.9,204,161.9,204,159.9z"/>
			<path fill="#FCE5A5" d="M220,112.2c-1.8-1.8-0.8-4-0.8-6c0.3-0.6,0.6-0.5,0.8,0C220,108.2,220,110.2,220,112.2z"/>
			<path fill="#B0D27F" d="M0,115.2c0.3,0,0.6,0.1,0.9,0.1c0,1.7,0,3.4-0.1,5.1c0,0-0.4,0-0.4,0L0,120.2C0,118.5,0,116.9,0,115.2z"
				/>
			<path fill="#9BC859" d="M0.9,102.1c0.1,1.8,0.5,3.6-0.9,5.1c0-1.7,0-3.3,0-5C0.2,101.7,0.5,101.6,0.9,102.1z"/>
			<path fill="#FDECC0" d="M220,106.2c-0.3,0-0.6,0-0.8,0c0-1.7,0-3.3,0-5c0.3,0,0.6,0,0.8,0.1C220,102.9,220,104.5,220,106.2z"/>
			<path fill="#B6D589" d="M0.9,102.1c-0.3,0-0.6,0.1-0.9,0.1c0-1.7,0-3.3,0-5c0.3-0.1,0.6-0.1,0.9-0.1
				C0.9,98.7,0.9,100.4,0.9,102.1z"/>
			<path display="none" fill="#FFFFFF" d="M379.2,111.3c3.6,6.8,8.2,13.1,10.9,20.5c18.4,49.8-14,102.3-66.8,108.2
				c-0.5,0.1-1,0.2-1.4,0.4c-3.2,1.4-6.4,4.3-9.8,0.4c-11.1-1.2-22-3.3-32.2-8.2c-36.8-17.8-54.5-60.5-40.8-99
				c0.5-1.4,0.8-2.9,1.2-4.3c-0.2-4.8,2.2-8.6,4.7-12.3c14.2-22.3,34.4-35,60.7-38.1c25.6-3.1,47.5,5.1,66.4,22.1
				C375.2,103.7,378.7,106.6,379.2,111.3z"/>
			<path fill="#D64728" d="M42.3,67.3c-2,3.7-4,7.5-6,11.2c-5.8-10-11.7-20.1-17.5-30.1c0.5-0.8,1-1.5,1.5-2.3
				c2-1.4,3.6-0.2,4.9,1.1c5.2,4.9,10.3,9.9,15.1,15.2C41.5,63.8,42.1,65.5,42.3,67.3z"/>
			<path fill="#83B842" d="M108.1,190.1c3.3-0.1,6.6-0.3,9.8-0.4c-5.5,9.4-11.1,18.8-16.6,28.2c-0.4,0-0.9,0.1-1.3,0.1
				C101.5,208.3,105.5,199.4,108.1,190.1z"/>
			<path fill="#E64B25" d="M42.3,67.3C36.5,61.4,30.8,55.5,25,49.7c-1.4-1.4-2.5-3.1-4.7-3.5C39.2,19.8,64.9,5.1,96.9,0.9
				c43.7-5.7,88.8,17.6,109.4,56.5c0.5,1,0.9,2.1,1.3,3.2c-10.8,0-21.6,0.1-32.4,0.1c-8.2-9-17-17.2-28.2-22.6
				c-37.1-18-79.9-6.7-103.2,27.4C43.4,66.1,42.8,66.7,42.3,67.3z"/>
			<path fill="#0EB6EA" d="M108.8,136.8c1.6-4.8,2.9-8.6,4.2-12.3c5.7-17.2,11.5-34.4,16.8-51.7c1.4-4.4,3.4-5.8,7.7-5.4
				c4.3,0.4,8.7,0.3,13,0c4.5-0.3,5,1.3,3.4,5.2c-10.2,26.5-20.3,53.1-30.4,79.7c-5.6,14.7-5.6,14.7-21.3,14
				c-2.4-0.1-3.5-0.9-4.3-3.1c-11.7-30.6-23.4-61.2-35.2-91.8c-1.1-2.9-0.5-4,2.6-3.9c5.2,0.1,10.3,0.3,15.5-0.1
				c3.8-0.2,5.2,1.4,6.3,4.7c6.5,19.7,13.1,39.4,19.7,59.1C107.3,132.7,107.8,134.2,108.8,136.8z"/>
		</g>
	</g>
</g>
</svg>
