<?xml version="1.0" encoding="utf-8"?>
<!-- Generator: Adobe Illustrator 18.1.0, SVG Export Plug-In . SVG Version: 6.00 Build 0)  -->
<svg version="1.1" id="Layer_1" xmlns:sketch="http://www.bohemiancoding.com/sketch/ns"
	 xmlns="http://www.w3.org/2000/svg" xmlns:xlink="http://www.w3.org/1999/xlink" x="0px" y="0px" viewBox="-222.3 395.5 71.3 59.5"
	 enable-background="new -222.3 395.5 71.3 59.5" xml:space="preserve">
<title>google git icon</title>
<desc>Created with Sketch.</desc>
<g id="Mobile-Portrait-7" transform="translate(-661.000000, -444.000000)" sketch:type="MSArtboardGroup">
	<g id="integrations" transform="translate(101.000000, 443.000000)" sketch:type="MSLayerGroup">
		<g id="google-fit" transform="translate(560.000000, 1.000000)" sketch:type="MSShapeGroup">
			<g id="google-git-icon">
				<path id="Path-11" display="none" fill="#F7F7FA" d="M-187,475.9c30.4,0,55-24.6,55-55s-24.6-55-55-55s-55,24.6-55,55
					S-217.4,475.9-187,475.9z"/>
				<g id="google-fit-logo" transform="translate(19.000000, 29.000000)">
					<path id="Path-33" fill="#860F4F" d="M-190.8,367.1c17.8-1.8,27.2,16.9,15.8,29.6c0,0-27.6,29.2-29.8,29.2
						C-202.9,419.3-192.6,373.5-190.8,367.1z"/>
					<path id="Path-32" fill="#C31361" d="M-195.3,367.8c17.1-5,18.6,21,14,27.3c-3.2,5.8-23.5,30.5-23.5,30.9
						C-204.9,426-195.8,370.7-195.3,367.8z"/>
					<path id="Path-31" fill="#FF9304" d="M-205.5,377.1c0.4-2.4,3-6.7,5.1-8.6c8-6.5,12.7,9.2,12.7,12.9c0,0,0.9,6.3-1.4,12.6
						c0,0-15.8,35.9-16.4,31.7V377.1z"/>
					<path id="Path-30" fill="#DC493C" d="M-205.4,425.9c-2.1,0-3.7-3.2-21.7-20c-6.4-6.7-22.7-18.8-9-33.6c15.9-15,28.5,4,30.6,4.9
						C-205.4,377.1-205.4,414.1-205.4,425.9z"/>
				</g>
			</g>
		</g>
	</g>
</g>
</svg>
