<?xml version="1.0" encoding="utf-8"?>
<!-- Generator: Adobe Illustrator 18.1.0, SVG Export Plug-In . SVG Version: 6.00 Build 0)  -->
<svg version="1.1" id="Layer_1" xmlns:sketch="http://www.bohemiancoding.com/sketch/ns"
	 xmlns="http://www.w3.org/2000/svg" xmlns:xlink="http://www.w3.org/1999/xlink" x="0px" y="0px" viewBox="-234.2 364.2 70.4 81.9"
	 enable-background="new -234.2 364.2 70.4 81.9" xml:space="preserve">
<title>githubicon</title>
<desc>Created with Sketch.</desc>
<g id="Page-1" sketch:type="MSPage">
	<g id="Mobile-Portrait-7" transform="translate(-382.000000, -444.000000)" sketch:type="MSArtboardGroup">
		<g id="integrations" transform="translate(101.000000, 443.000000)" sketch:type="MSLayerGroup">
			<g id="github_1_" transform="translate(280.000000, 0.000000)">
				<g id="githubicon" transform="translate(0.609023, 0.235955)">
					<g id="github-_x2B_-GitHub" transform="translate(18.536311, 28.354378)" sketch:type="MSShapeGroup">
						<path id="github" d="M-230.3,416.5c9.5,2.8,21.6,2.7,31.4-0.5c0,1.1-2.2-6.5-3-11.6c-0.7-5.1-0.8-12.8-2.5-14.5
							c3.1-0.8,34.2,0,17.4-39.3c1.8-4.8,0-12.6-0.9-13.9c-5.6,0.1-13.8,5.4-13.8,5.4c-10.7-2.2-25.6,0.2-25.6,0.2
							c-5.9-4.5-13.7-5.4-13.7-5.4c-2.5,4-1.6,13.8-1.6,13.8c-15.7,39.3,15.3,39,18.1,39.3c-2.4,2.2-1.8,6.2-2.3,7.4
							c-16.9,5.9-14.6-13.5-25.7-8.9c8.8,6.5,6.7,19.1,25.1,16.4C-227.2,404.8-229.1,415.5-230.3,416.5z"/>
					</g>
				</g>
			</g>
		</g>
	</g>
</g>
</svg>
