<?xml version="1.0" encoding="utf-8"?>
<!-- Generator: Adobe Illustrator 16.0.4, SVG Export Plug-In . SVG Version: 6.00 Build 0)  -->
<!DOCTYPE svg PUBLIC "-//W3C//DTD SVG 1.1//EN" "http://www.w3.org/Graphics/SVG/1.1/DTD/svg11.dtd">
<svg version="1.1" xmlns="http://www.w3.org/2000/svg" xmlns:xlink="http://www.w3.org/1999/xlink" x="0px" y="0px" width="377px"
	 height="388px" viewBox="0 0 377 388" enable-background="new 0 0 377 388" xml:space="preserve">
<g id="Layer_1">
	<circle display="none" fill="#AEB8BF" cx="190" cy="192" r="178.519"/>
	<g id="Twitter" display="none">
		<g>
			<path display="inline" fill="#FFFFFF" d="M299.234,124.246c-8.032,3.568-16.674,5.977-25.742,7.055
				c9.26-5.543,16.359-14.326,19.707-24.798c-8.661,5.136-18.25,8.87-28.462,10.879c-8.174-8.709-19.824-14.153-32.715-14.153
				c-24.751,0-44.817,20.064-44.817,44.82c0,3.507,0.394,6.93,1.16,10.216c-37.251-1.871-70.283-19.713-92.39-46.833
				c-3.858,6.617-6.065,14.317-6.065,22.538c0,15.548,7.91,29.272,19.938,37.305c-7.343-0.234-14.258-2.252-20.301-5.608
				c-0.005,0.186-0.005,0.377-0.005,0.567c0,21.711,15.45,39.823,35.957,43.95c-3.761,1.018-7.722,1.566-11.81,1.566
				c-2.892,0-5.7-0.277-8.435-0.805c5.705,17.805,22.258,30.766,41.868,31.125c-15.34,12.023-34.662,19.189-55.666,19.189
				c-3.614,0-7.183-0.211-10.691-0.627c19.84,12.725,43.397,20.139,68.706,20.139c82.449,0,127.528-68.299,127.528-127.531
				c0-1.94-0.04-3.88-0.126-5.802C285.629,141.132,293.229,133.233,299.234,124.246z"/>
		</g>
	</g>
	<g id="Layer_3" display="none">
		<g display="inline">
			<g id="messages">
				<path fill="#FFFFFF" d="M158.337,205.689c-0.542,0.013-1.08,0.034-1.625,0.034c-5.896,0-11.721-0.8-17.309-2.38l-3.292-0.931
					l-18.193,3.412l5.072-8.476l-7.891-8.042c-5.359-5.465-11.75-14.628-11.75-27.236c0-24.072,23.938-43.655,53.362-43.655
					c28.75,0,52.25,18.7,53.312,42.013c4.673-1.028,9.529-1.643,14.516-1.815c-2.09-30.559-31.65-54.791-67.827-54.791
					c-37.532,0-67.956,26.079-67.956,58.247c0,14.266,5.993,27.329,15.925,37.455l-15.925,26.62l46.682-8.753
					c6.559,1.853,13.552,2.871,20.821,2.911C156.285,215.268,157.007,210.377,158.337,205.689z"/>
				<path fill="#FFFFFF" d="M291.244,220.572c0-30.227-28.584-54.727-63.848-54.727c-35.262,0-63.848,24.5-63.848,54.727
					c0,30.226,28.586,54.728,63.848,54.728c6.983,0,13.698-0.976,19.988-2.752l43.859,8.224l-14.965-25.008
					C285.615,246.249,291.244,233.976,291.244,220.572z M194.561,234.254c-6.045,0-10.945-4.898-10.945-10.945
					s4.9-10.945,10.945-10.945c6.045,0,10.945,4.898,10.945,10.945S200.605,234.254,194.561,234.254z M227.396,234.254
					c-6.047,0-10.945-4.898-10.945-10.945s4.898-10.945,10.945-10.945s10.945,4.898,10.945,10.945S233.443,234.254,227.396,234.254z
					 M260.232,234.254c-6.046,0-10.945-4.898-10.945-10.945s4.899-10.945,10.945-10.945c6.047,0,10.945,4.898,10.945,10.945
					S266.279,234.254,260.232,234.254z"/>
			</g>
		</g>
	</g>
	<g id="Layer_4" display="none">
		<g display="inline">
			<g>
				<path fill="#FFFFFF" d="M279.342,103.556c-2.422,0-56.461,0.335-89.342,26.963c-32.88-26.628-86.921-26.963-89.342-26.963
					h-8.272v165.449h8.272c43.162,0,70.195,8.106,80.685,11.995h17.241c10.343-3.878,37.182-11.995,80.758-11.995h8.272V103.556
					H279.342z M181.728,263.59c-13.262-4.326-37.51-10.223-72.797-11.033V120.491c16.055,1.177,51.678,5.881,72.797,24.684V263.59z
					 M271.069,252.557c-35.288,0.811-59.536,6.707-72.797,11.033V145.175c21.12-18.804,56.746-23.508,72.797-24.684V252.557z"/>
			</g>
		</g>
	</g>
</g>
<g id="Layer_5">
	<g id="Layer_6">
		<circle fill="#0097C4" cx="188.5" cy="192.001" r="176.667"/>
	</g>
	<g id="Wrench" display="none">
		<g display="inline">
			<g id="settings_x5F_custom">
				<path fill="#FFFFFF" d="M201.244,231.958c-5.35,2.021-11.14,3.141-17.186,3.167c-27.236,0.12-49.495-21.938-49.615-49.176
					s21.94-49.495,49.176-49.615c27.237-0.121,49.494,21.939,49.615,49.176c0.028,6.484-1.203,12.686-3.459,18.374
					c5.143,5.574,12.266,13.257,20.111,21.699c-0.521-1.936-0.41-4.081,0.453-5.763l4.612-11.175
					c0.987-3.025,4.397-5.512,7.579-5.525l5.676-0.025c3.182-0.014,6.152-2.602,6.602-5.751c0,0,0.851-5.951,0.822-12.021
					c-0.025-5.799-0.815-11.237-0.815-11.237c-0.457-3.148-3.435-5.714-6.616-5.698l-5.633,0.024
					c-3.182,0.014-6.592-2.449-7.576-5.475l-4.705-11.393c-1.455-2.83-0.812-6.993,1.426-9.254l3.992-4.027
					c2.24-2.26,2.41-6.111,0.377-8.559l-16.423-16.374c-2.454-2.025-6.296-1.832-8.535,0.427l-3.974,4.009
					c-2.24,2.259-6.39,2.923-9.222,1.473l-11.551-4.731c-3.028-0.976-5.519-4.377-5.532-7.559l-0.025-5.654
					c-0.014-3.181-2.604-6.144-5.754-6.584c0,0-5.699-0.795-11.633-0.77c-5.934,0.026-11.625,0.872-11.625,0.872
					c-3.147,0.468-5.71,3.453-5.696,6.635l0.025,5.654c0.013,3.182-2.445,6.604-5.465,7.606l-11.508,4.834
					c-2.82,1.475-6.975,0.848-9.235-1.392l-4.008-3.973c-2.26-2.241-6.103-2.398-8.539-0.353l-16.276,16.52
					c-2.01,2.467-1.806,6.315,0.454,8.556l4.027,3.991c2.259,2.24,2.939,6.398,1.509,9.24l-4.597,11.433
					c-0.958,3.034-4.344,5.528-7.526,5.542l-5.634,0.025c-3.181,0.014-6.136,2.604-6.566,5.758c0,0-0.741,5.445-0.716,11.244
					c0.027,6.069,0.93,12.013,0.93,12.013c0.477,3.146,3.472,5.708,6.653,5.694l5.676-0.023c3.181-0.014,6.615,2.441,7.628,5.458
					l4.711,11.134c1.478,2.816,0.855,6.971-1.385,9.231l-3.974,4.009c-2.24,2.26-2.398,6.103-0.353,8.539l16.52,16.276
					c2.466,2.011,6.315,1.806,8.556-0.454l3.992-4.026c2.24-2.259,6.397-2.937,9.238-1.503l11.057,4.479
					c3.03,0.969,5.521,4.365,5.536,7.547l0.025,5.654c0.014,3.182,2.604,6.145,5.755,6.584c0,0,5.699,0.795,11.633,0.77
					c5.935-0.026,11.626-0.872,11.626-0.872c3.146-0.468,5.71-3.454,5.696-6.635l-0.025-5.654c-0.013-3.181,2.447-6.6,5.47-7.596
					l11.015-4.577c0.528-0.271,1.102-0.471,1.7-0.6C211.995,243.366,205.363,236.329,201.244,231.958z"/>
				<path fill="#FFFFFF" d="M284.947,272.295c-23.082-24.761-61.615-66.139-67.299-72.533c-8.195-9.219-7.854-20.146-7.172-28
					c0.684-7.854-7.854-18.78-20.146-21.17c-12.293-2.391-33.463-0.342-20.488,7.17c12.976,7.513,18.78,11.61,16.731,17.756
					c-2.048,6.146-4.78,12.977-9.561,16.05c-4.78,3.073-6.488,3.073-9.561,1.024c-3.073-2.049-5.463-3.756-12.292-8.195
					s-8.878,1.707-4.78,8.195c4.098,6.487,12.634,22.878,24.926,22.194c12.293-0.683,20.262,2.252,25.952,8.195
					c0,0,37.834,40.133,63.154,67.078C275.632,289.536,284.02,282.548,284.947,272.295z"/>
			</g>
		</g>
	</g>
	<g id="Staffing" display="none">
		<g display="inline">
			<g id="g5609" transform="translate(-1938.8595,-6340.9023)">
				<path id="path3872-1" fill="#FFFFFF" d="M2127.358,6434.772c-18.099,0-17.878,15.797-17.878,15.797l-0.116,8.396
					c-1.479-0.02-1.832,1.446-1.832,4.368c0,4.379,2.679,8.963,5.106,11.331c0.823,3.442,2.394,6.474,4.509,8.786
					c-0.073,0.045-0.153,0.087-0.228,0.132l0,0c-7.214,4.401-15.812,7.38-21.43,10.361c-1.55,0.821-3.204,2.26-4.542,4.094
					c-0.912,1.261-1.705,2.611-2.387,4.011c-0.025,0.05-0.051,0.1-0.075,0.149c-0.094,0.194-0.185,0.392-0.273,0.588
					c-1.357,2.905-2.271,6.008-2.802,9.118c-0.011,0.058-0.022,0.116-0.033,0.174c-0.023,0.146-0.052,0.293-0.074,0.44
					c-0.095,0.538-0.188,1.07-0.266,1.599c-0.065,0.436-0.148,1.369-0.115,1.823c-0.004,0.028-0.007,0.055-0.009,0.083
					c-0.2,2.839,5.131,3.763,5.131,3.763c1.994,0.59,5.661,1.243,10.112,1.84c7.938,1.31,16.067,1.753,24.053,1.998
					c0.775,0.023,1.585,0.039,2.428,0.042c0.052,0,0.105,0,0.158,0c0.419,0,0.851,0.004,1.284,0
					c0.844-0.005,1.653-0.018,2.429-0.042c7.981-0.245,16.109-0.688,24.044-1.998c4.457-0.598,8.133-1.25,10.13-1.84
					c0,0,5.321-0.924,5.122-3.763c-0.005-0.028-0.008-0.055-0.01-0.083c0.033-0.454-0.049-1.388-0.115-1.823
					c-0.108-0.756-0.234-1.522-0.381-2.296c-0.589-3.401-1.631-6.792-3.216-9.921c-0.018-0.035-0.032-0.073-0.05-0.107
					c-0.653-1.31-1.398-2.57-2.255-3.755c-1.34-1.834-3-3.273-4.55-4.094c-5.618-2.98-14.218-5.96-21.43-10.361l0,0
					c-0.074-0.045-0.154-0.087-0.229-0.132c2.115-2.312,3.687-5.343,4.51-8.786c2.427-2.368,5.106-6.952,5.106-11.331
					c0-2.921-0.362-4.387-1.841-4.368l-0.107-8.396C2145.238,6450.57,2145.458,6434.772,2127.358,6434.772L2127.358,6434.772z"/>
				<path id="path5522" fill="#FFFFFF" d="M2127.355,6572.123c-7.416,0-13.424,7.798-13.424,17.425c0,6.335,2.604,11.887,6.5,14.938
					c-4.775,2.911-10.469,4.883-14.188,6.856c-1.026,0.543-2.118,1.502-3.005,2.717c-0.604,0.836-1.132,1.729-1.584,2.656
					c-0.017,0.032-0.031,0.062-0.048,0.096c-0.062,0.128-0.125,0.258-0.184,0.389c-0.899,1.924-1.506,3.981-1.857,6.042
					c-0.008,0.038-0.014,0.079-0.021,0.117c-0.016,0.097-0.032,0.196-0.047,0.293c-0.063,0.357-0.127,0.708-0.178,1.058
					c-0.043,0.289-0.098,0.907-0.075,1.209c0,0.018-0.006,0.037-0.007,0.054c-0.132,1.881,3.4,2.493,3.4,2.493
					c1.322,0.39,3.75,0.819,6.698,1.215c5.259,0.868,10.646,1.161,15.937,1.325c0.513,0.015,1.052,0.025,1.611,0.027h0.103
					c0.278,0,0.56,0,0.847,0c0.559,0,1.098-0.013,1.611-0.027c5.288-0.164,10.672-0.458,15.929-1.325
					c2.953-0.396,5.39-0.825,6.712-1.215c0,0,3.526-0.612,3.393-2.493c0-0.018-0.005-0.036-0.006-0.054
					c0.022-0.302-0.032-0.92-0.074-1.209c-0.073-0.501-0.155-1.01-0.253-1.522c-0.389-2.253-1.08-4.502-2.131-6.573
					c-0.011-0.024-0.021-0.047-0.034-0.069c-0.433-0.867-0.927-1.701-1.495-2.485c-0.887-1.215-1.984-2.173-3.011-2.717
					c-3.72-1.974-9.412-3.945-14.188-6.856c3.896-3.052,6.5-8.603,6.5-14.938
					C2140.787,6579.921,2134.771,6572.123,2127.355,6572.123L2127.355,6572.123z M2120.999,6604.903
					c0.177,0.123,0.357,0.239,0.539,0.354c0.195,0.123,0.394,0.239,0.595,0.349c0.166,0.092,0.335,0.178,0.505,0.259
					c-0.17-0.081-0.34-0.167-0.505-0.259c-0.202-0.109-0.399-0.226-0.595-0.349
					C2121.357,6605.146,2121.175,6605.026,2120.999,6604.903z M2133.719,6604.903c-0.177,0.123-0.358,0.242-0.539,0.354
					c-0.196,0.123-0.393,0.239-0.594,0.349c-0.167,0.092-0.335,0.178-0.506,0.259c0.171-0.081,0.339-0.167,0.506-0.259
					c0.2-0.109,0.398-0.226,0.594-0.349C2133.361,6605.143,2133.542,6605.026,2133.719,6604.903z M2122.842,6605.968
					c0.173,0.08,0.351,0.154,0.526,0.226c0.183,0.075,0.366,0.147,0.554,0.212c-0.188-0.064-0.37-0.137-0.554-0.212
					C2123.193,6606.123,2123.015,6606.048,2122.842,6605.968z M2131.875,6605.968c-0.172,0.08-0.35,0.154-0.525,0.226
					c-0.177,0.071-0.353,0.137-0.532,0.198c0.18-0.062,0.355-0.127,0.532-0.198
					C2131.525,6606.122,2131.703,6606.048,2131.875,6605.968z M2124.139,6606.474c0.171,0.054,0.34,0.104,0.513,0.149
					c0.185,0.049,0.373,0.092,0.56,0.13c-0.187-0.038-0.375-0.081-0.56-0.13C2124.48,6606.578,2124.309,6606.527,2124.139,6606.474z
					 M2130.47,6606.507c-0.134,0.042-0.269,0.081-0.404,0.116C2130.201,6606.588,2130.336,6606.549,2130.47,6606.507z"/>
				<path id="path3872-1-9" fill="#FFFFFF" d="M2064.635,6572.123c-7.416,0-13.424,7.798-13.424,17.425
					c0,6.335,2.605,11.887,6.5,14.938c-4.775,2.911-10.469,4.883-14.187,6.856c-1.026,0.543-2.118,1.502-3.005,2.717
					c-0.604,0.836-1.132,1.729-1.584,2.656c-0.016,0.032-0.031,0.062-0.047,0.096c-0.062,0.128-0.126,0.258-0.185,0.389
					c-0.899,1.924-1.506,3.981-1.857,6.042c-0.008,0.038-0.014,0.079-0.021,0.117c-0.016,0.097-0.032,0.196-0.048,0.293
					c-0.062,0.357-0.126,0.708-0.177,1.058c-0.043,0.289-0.098,0.907-0.075,1.209c0,0.018-0.006,0.037-0.006,0.054
					c-0.133,1.881,3.399,2.493,3.399,2.493c1.322,0.39,3.751,0.819,6.698,1.215c5.259,0.868,10.646,1.161,15.936,1.325
					c0.513,0.015,1.052,0.025,1.611,0.027h0.103c0.277,0,0.56,0,0.847,0c0.559,0,1.097-0.013,1.61-0.027
					c5.289-0.164,10.673-0.458,15.93-1.325c2.952-0.396,5.39-0.825,6.712-1.215c0,0,3.526-0.612,3.394-2.493
					c0-0.018-0.006-0.036-0.007-0.054c0.021-0.302-0.032-0.92-0.075-1.209c-0.072-0.501-0.154-1.01-0.252-1.522
					c-0.39-2.253-1.08-4.502-2.131-6.573c-0.012-0.024-0.022-0.047-0.034-0.069c-0.433-0.867-0.928-1.701-1.495-2.485
					c-0.887-1.215-1.984-2.173-3.011-2.717c-3.719-1.974-9.412-3.945-14.188-6.856c3.896-3.052,6.5-8.603,6.5-14.938
					C2078.065,6579.921,2072.052,6572.123,2064.635,6572.123L2064.635,6572.123z M2058.278,6604.903
					c0.177,0.123,0.357,0.239,0.539,0.354c0.195,0.123,0.394,0.239,0.595,0.349c0.166,0.092,0.335,0.178,0.505,0.259
					c-0.17-0.081-0.339-0.167-0.505-0.259c-0.202-0.109-0.399-0.226-0.595-0.349
					C2058.637,6605.146,2058.454,6605.026,2058.278,6604.903z M2070.998,6604.903c-0.176,0.123-0.358,0.242-0.539,0.354
					c-0.196,0.123-0.393,0.239-0.595,0.349c-0.166,0.092-0.335,0.178-0.505,0.259c0.17-0.081,0.339-0.167,0.505-0.259
					c0.201-0.109,0.398-0.226,0.595-0.349C2070.641,6605.143,2070.82,6605.026,2070.998,6604.903z M2060.121,6605.968
					c0.173,0.08,0.351,0.154,0.526,0.226c0.183,0.075,0.366,0.147,0.553,0.212c-0.188-0.064-0.369-0.137-0.553-0.212
					C2060.473,6606.123,2060.293,6606.048,2060.121,6605.968z M2069.155,6605.968c-0.173,0.08-0.352,0.154-0.526,0.226
					c-0.177,0.071-0.354,0.137-0.533,0.198c0.18-0.062,0.357-0.127,0.533-0.198S2068.982,6606.048,2069.155,6605.968z
					 M2061.418,6606.474c0.171,0.054,0.341,0.104,0.513,0.149c0.185,0.049,0.373,0.092,0.56,0.13
					c-0.187-0.038-0.375-0.081-0.56-0.13C2061.76,6606.578,2061.588,6606.527,2061.418,6606.474z M2067.748,6606.507
					c-0.134,0.042-0.268,0.081-0.403,0.116C2067.48,6606.588,2067.614,6606.549,2067.748,6606.507z"/>
				<path id="path5524" fill="#FFFFFF" d="M2190.075,6572.123c-7.414,0-13.423,7.798-13.423,17.425
					c0,6.335,2.605,11.887,6.501,14.938c-4.776,2.911-10.47,4.883-14.188,6.856c-1.027,0.543-2.118,1.502-3.005,2.717
					c-0.604,0.836-1.131,1.729-1.583,2.656c-0.017,0.032-0.032,0.062-0.049,0.096c-0.062,0.128-0.124,0.258-0.185,0.389
					c-0.899,1.924-1.505,3.981-1.856,6.042c-0.008,0.038-0.014,0.079-0.021,0.117c-0.016,0.097-0.032,0.196-0.048,0.293
					c-0.062,0.357-0.128,0.708-0.177,1.058c-0.044,0.289-0.098,0.907-0.076,1.209c0,0.018-0.006,0.037-0.007,0.054
					c-0.133,1.881,3.401,2.493,3.401,2.493c1.321,0.39,3.749,0.819,6.697,1.215c5.26,0.868,10.646,1.161,15.937,1.325
					c0.514,0.015,1.053,0.025,1.61,0.027h0.104c0.277,0,0.558,0,0.846,0c0.559,0,1.1-0.013,1.611-0.027
					c5.288-0.164,10.673-0.458,15.93-1.325c2.953-0.396,5.389-0.825,6.713-1.215c0,0,3.525-0.612,3.393-2.493
					c0-0.018-0.006-0.036-0.008-0.054c0.022-0.302-0.031-0.92-0.073-1.209c-0.073-0.501-0.156-1.01-0.254-1.522
					c-0.389-2.253-1.08-4.502-2.13-6.573c-0.011-0.024-0.022-0.047-0.035-0.069c-0.432-0.867-0.927-1.701-1.494-2.485
					c-0.887-1.215-1.983-2.173-3.012-2.717c-3.718-1.974-9.411-3.945-14.188-6.856c3.895-3.052,6.501-8.603,6.501-14.938
					C2203.508,6579.921,2197.491,6572.123,2190.075,6572.123L2190.075,6572.123z M2183.719,6604.903
					c0.178,0.123,0.357,0.239,0.54,0.354c0.195,0.123,0.393,0.239,0.594,0.349c0.168,0.092,0.335,0.178,0.506,0.259
					c-0.171-0.081-0.339-0.167-0.506-0.259c-0.201-0.109-0.398-0.226-0.594-0.349
					C2184.077,6605.146,2183.896,6605.026,2183.719,6604.903z M2196.438,6604.903c-0.176,0.123-0.357,0.242-0.538,0.354
					c-0.197,0.123-0.394,0.239-0.595,0.349c-0.166,0.092-0.334,0.178-0.505,0.259c0.171-0.081,0.339-0.167,0.505-0.259
					c0.201-0.109,0.398-0.226,0.595-0.349C2196.082,6605.143,2196.263,6605.026,2196.438,6604.903z M2185.562,6605.968
					c0.172,0.08,0.351,0.154,0.525,0.226c0.185,0.075,0.368,0.147,0.554,0.212c-0.188-0.064-0.369-0.137-0.554-0.212
					C2185.913,6606.123,2185.734,6606.048,2185.562,6605.968z M2194.596,6605.968c-0.173,0.08-0.35,0.154-0.525,0.226
					s-0.354,0.137-0.532,0.198c0.179-0.062,0.356-0.127,0.532-0.198S2194.423,6606.048,2194.596,6605.968z M2186.86,6606.474
					c0.169,0.054,0.339,0.104,0.512,0.149c0.185,0.049,0.372,0.092,0.56,0.13c-0.188-0.038-0.375-0.081-0.56-0.13
					C2187.2,6606.578,2187.029,6606.527,2186.86,6606.474z M2193.189,6606.507c-0.133,0.042-0.268,0.081-0.403,0.116
					C2192.922,6606.588,2193.057,6606.549,2193.189,6606.507z"/>
				<path id="rect4481-6" fill="#FFFFFF" d="M2193.22,6548.938L2193.22,6548.938c0,1.733-1.405,3.139-3.141,3.139h-125.44
					c-1.734,0-3.141-1.405-3.141-3.139l0,0c0-1.734,1.406-3.14,3.141-3.14h125.44
					C2191.814,6545.798,2193.22,6547.203,2193.22,6548.938z"/>
				<path id="rect5553" fill="#FFFFFF" d="M2127.111,6552.076L2127.111,6552.076c-1.734,0-3.141-1.405-3.141-3.139v-16.766
					c0-1.734,1.406-3.14,3.141-3.14l0,0c1.734,0,3.141,1.406,3.141,3.14v16.766
					C2130.252,6550.671,2128.846,6552.076,2127.111,6552.076z"/>
				<path id="rect5555" fill="#FFFFFF" d="M2127.111,6568.842L2127.111,6568.842c-1.734,0-3.141-1.405-3.141-3.14v-16.765
					c0-1.734,1.406-3.14,3.141-3.14l0,0c1.734,0,3.141,1.405,3.141,3.14v16.765
					C2130.252,6567.437,2128.846,6568.842,2127.111,6568.842z"/>
				<path id="rect5557" fill="#FFFFFF" d="M2064.639,6568.842L2064.639,6568.842c-1.734,0-3.141-1.405-3.141-3.14v-16.765
					c0-1.734,1.406-3.14,3.141-3.14l0,0c1.733,0,3.14,1.405,3.14,3.14v16.765
					C2067.778,6567.437,2066.372,6568.842,2064.639,6568.842z"/>
				<path id="rect5559" fill="#FFFFFF" d="M2190.079,6568.842L2190.079,6568.842c-1.733,0-3.139-1.405-3.139-3.14v-16.765
					c0-1.734,1.405-3.14,3.139-3.14l0,0c1.735,0,3.141,1.405,3.141,3.14v16.765
					C2193.22,6567.437,2191.814,6568.842,2190.079,6568.842z"/>
			</g>
		</g>
	</g>
	<g id="Puzzle">
		<g>
			<path fill="#FFFFFF" d="M233.854,204.56c-2.624-1.873-5.364-3.121-8.178-3.747c-1.663-0.319-3.396-0.439-5.186-0.341
				c-1.692,0.094-3.304,0.315-4.833,0.662c-1.148,0.317-2.301,0.73-3.453,1.239c-3.42,1.509-6.376,3.409-8.803,5.705
				c-2.299,2.429-4.199,5.386-5.708,8.804c-0.508,1.15-0.922,2.302-1.239,3.45c-0.346,1.531-0.57,3.142-0.662,4.833
				c-0.098,1.789,0.022,3.523,0.341,5.187c0.626,2.812,1.874,5.553,3.748,8.178c0.731,1.023,1.52,1.957,2.362,2.799
				c3.773,3.769,8.621,5.775,14.188,6.417c1.678,0.192,3.409,0.316,4.99,0.844c0.963,0.318,1.723,0.767,2.273,1.32
				c1.251,1.24,1.435,3.028,0.471,5.124c-0.593,1.286-1.449,2.53-2.438,3.544l-0.526,0.539c-0.738,0.737-1.204,1.203-1.324,1.324
				c-0.589,0.594-1.148,1.156-1.705,1.721l-0.557,0.55c-1.98,1.99-3.968,3.973-5.957,5.954c-4.282,4.293-8.572,8.575-12.863,12.86
				c-1.412,1.409-2.822,2.822-4.233,4.229c-0.65,0.65-1.33,1.202-2.027,1.654c-0.34,0.229-0.657,0.421-0.975,0.596
				c-3.688,1.859-7.794,1.113-11.145-2.236c-1.017-1.015-1.998-1.997-2.982-2.979c-5.69-5.69-11.377-11.385-17.077-17.068
				c-1.616-1.612-3.223-3.213-4.832-4.813c-1.151-1.146-2.382-2.23-3.679-3.211c-1.076-0.814-2.181-1.421-3.285-1.83
				c-3.981-1.377-7.791-0.378-10.285,2.495c-0.717,0.902-1.316,1.969-1.767,3.188c-0.645,1.741-0.865,3.661-1.11,5.523
				c-0.922,7.059-4.854,12.872-10.531,15.548c-1.407,0.687-2.915,1.184-4.496,1.463c-1.495,0.266-3,0.322-4.487,0.196
				c-5.006-0.254-9.308-2.463-12.888-6.127c-0.316-0.314-0.395-0.393-0.472-0.473c-3.665-3.579-5.874-7.882-6.127-12.887
				c-0.128-1.485-0.069-2.99,0.195-4.486c0.281-1.582,0.777-3.091,1.463-4.496c2.676-5.678,8.491-9.607,15.549-10.53
				c1.86-0.242,3.782-0.464,5.523-1.109c1.306-0.48,2.438-1.138,3.381-1.924c2.735-2.475,3.685-6.14,2.416-9.847
				c-0.523-1.384-1.129-2.488-1.944-3.562c-0.98-1.295-2.063-2.528-3.209-3.679c-1.601-1.608-3.204-3.216-4.806-4.822
				c-5.064-5.074-10.129-10.136-15.191-15.195l-1.888-1.888c-0.982-0.981-1.965-1.967-2.87-2.873
				c-3.46-3.462-4.206-7.565-2.345-11.253c0.173-0.318,0.366-0.633,0.58-0.95c0.468-0.722,1.019-1.401,1.668-2.052
				c1.409-1.411,2.82-2.822,4.231-4.232c4.284-4.292,8.567-8.583,12.86-12.865c1.981-1.988,3.961-3.977,5.954-5.955l0.549-0.558
				c0.562-0.559,1.127-1.116,1.69-1.674c0.15-0.152,0.617-0.619,1.354-1.358l0.538-0.525c1.015-0.99,2.258-1.843,3.544-2.438
				c2.096-0.964,3.881-0.78,5.125,0.471c0.553,0.549,1,1.31,1.32,2.272c0.524,1.582,0.649,3.312,0.842,4.991
				c0.642,5.566,2.649,10.413,6.417,14.187c0.845,0.842,1.775,1.63,2.798,2.362c2.625,1.874,5.366,3.121,8.179,3.747
				c1.664,0.318,3.397,0.439,5.187,0.341c1.691-0.094,3.303-0.317,4.833-0.662c1.147-0.318,2.299-0.732,3.452-1.24
				c3.42-1.509,6.375-3.409,8.802-5.706c2.299-2.426,4.198-5.384,5.707-8.802c0.509-1.151,0.922-2.302,1.241-3.451
				c0.346-1.531,0.569-3.142,0.663-4.833c0.097-1.789-0.023-3.522-0.342-5.187c-0.626-2.812-1.873-5.553-3.747-8.177
				c-0.732-1.023-1.521-1.957-2.363-2.8c-3.773-3.768-8.622-5.775-14.188-6.417c-1.678-0.192-3.409-0.315-4.992-0.843
				c-0.962-0.319-1.722-0.767-2.272-1.321c-1.25-1.241-1.435-3.028-0.47-5.124c0.592-1.287,1.449-2.53,2.438-3.544l0.525-0.538
				c0.739-0.738,1.206-1.204,1.327-1.325c0.588-0.594,1.147-1.157,1.704-1.721l0.557-0.549c1.979-1.99,3.967-3.973,5.956-5.953
				c4.282-4.294,8.572-8.575,12.864-12.858c1.411-1.412,2.822-2.823,4.233-4.231c0.651-0.649,1.33-1.201,2.027-1.654
				c0.339-0.229,0.657-0.421,0.975-0.595c3.688-1.86,7.794-1.113,11.145,2.235c1.016,1.016,1.998,1.998,2.982,2.98
				c5.69,5.69,11.378,11.385,17.075,17.068c1.616,1.612,3.223,3.213,4.832,4.814c1.151,1.145,2.383,2.229,3.681,3.208
				c1.075,0.815,2.179,1.422,3.283,1.831c3.98,1.377,7.791,0.378,10.285-2.495c0.718-0.903,1.316-1.97,1.767-3.187
				c0.646-1.742,0.864-3.663,1.109-5.523c0.922-7.061,4.854-12.874,10.531-15.549c1.408-0.687,2.915-1.181,4.496-1.464
				c1.496-0.265,3.001-0.321,4.487-0.195c5.006,0.254,9.308,2.462,12.888,6.127c0.316,0.314,0.396,0.393,0.473,0.472
				c3.665,3.578,5.873,7.882,6.128,12.887c0.128,1.486,0.069,2.991-0.196,4.486c-0.28,1.582-0.777,3.091-1.463,4.496
				c-2.677,5.678-8.491,9.607-15.549,10.529c-1.86,0.243-3.782,0.465-5.523,1.11c-1.305,0.482-2.438,1.138-3.381,1.925
				c-2.735,2.473-3.686,6.138-2.416,9.846c0.523,1.383,1.129,2.488,1.943,3.563c0.98,1.295,2.063,2.527,3.21,3.678
				c1.601,1.608,3.203,3.214,4.808,4.821c5.691,5.706,11.388,11.394,17.077,17.084c0.982,0.982,1.966,1.966,2.871,2.873
				c3.459,3.461,4.204,7.566,2.344,11.254c-0.174,0.317-0.365,0.633-0.579,0.949c-0.468,0.722-1.02,1.401-1.67,2.053
				c-1.408,1.411-2.82,2.821-4.23,4.232c-4.284,4.292-8.567,8.583-12.86,12.865c-1.98,1.987-3.962,3.976-5.954,5.955l-0.549,0.558
				c-0.562,0.559-1.127,1.114-1.689,1.673c-0.151,0.153-0.617,0.619-1.354,1.359l-0.539,0.524c-1.014,0.989-2.258,1.844-3.544,2.439
				c-2.096,0.964-3.882,0.78-5.124-0.472c-0.554-0.55-1.002-1.31-1.32-2.272c-0.526-1.581-0.65-3.312-0.845-4.99
				c-0.641-5.567-2.648-10.414-6.416-14.188C235.811,206.08,234.878,205.29,233.854,204.56z"/>
		</g>
	</g>
	<g id="Launch" display="none">
		<g display="inline">
			<g id="g10099" transform="matrix(0.84955132,0,0,0.84955132,-857.2889,-14631.306)">
				<path id="path5361-7-0" fill="#FFFFFF" d="M1308.115,17420.666c1.804,0,3.445,1.641,3.445,3.443v133.846
					c0,1.801-1.641,3.443-3.445,3.443h-31.862c-1.802,0-3.444-1.643-3.444-3.443v-133.846c0-1.803,1.641-3.443,3.444-3.443H1308.115
					z"/>
				<path id="path5363-2-9" fill="#FFFFFF" d="M1204.784,17497.229c1.804,0,3.444,1.641,3.444,3.445v57.281
					c0,1.801-1.64,3.443-3.444,3.443h-31.86c-1.804,0-3.444-1.643-3.445-3.443v-57.281c0.001-1.805,1.641-3.445,3.445-3.445
					H1204.784z"/>
				<path id="path5365-2-0" fill="#FFFFFF" d="M1153.119,17512.631c1.803,0,3.444,1.643,3.445,3.443v41.881
					c-0.001,1.801-1.642,3.443-3.445,3.443h-31.861c-1.802,0-3.443-1.643-3.443-3.443v-41.881c0-1.801,1.64-3.443,3.443-3.443
					H1153.119z"/>
				<path id="path5367-8-0" fill="#FFFFFF" d="M1308.355,17367.646c-0.309,0.012-0.616,0.068-0.909,0.17l-29.267,10.219
					c-1.028,0.35-1.837,1.279-2.045,2.352c-0.209,1.07,0.194,2.24,1.016,2.951l9.13,7.943
					c-42.887,50.623-84.078,78.096-114.66,92.961c-31.16,15.148-51.026,17.158-51.026,17.158c-0.809,0.086-1.578,0.502-2.09,1.133
					c-0.511,0.633-0.761,1.471-0.678,2.279c0.084,0.809,0.501,1.576,1.132,2.088c0.63,0.512,1.467,0.762,2.277,0.68
					c0,0,21.189-2.244,53.097-17.756c31.303-15.215,73.201-43.242,116.621-94.473l9.59,8.344c0.817,0.713,2.02,0.943,3.039,0.588
					c1.021-0.357,1.82-1.289,2.023-2.357l5.884-30.588c0.174-0.91-0.085-1.898-0.684-2.604
					C1310.206,17368.027,1309.278,17367.615,1308.355,17367.646L1308.355,17367.646z"/>
				<path id="path5369-2-6" fill="#FFFFFF" d="M1256.448,17465.658c1.805,0.004,3.445,1.643,3.445,3.447v88.85
					c0,1.801-1.64,3.443-3.445,3.443h-31.86c-1.803,0-3.443-1.643-3.443-3.443v-88.85c0-1.805,1.64-3.447,3.443-3.447H1256.448z"/>
				<path id="path11920-1" fill="#FFFFFF" d="M1343.707,17333.709c-0.42-0.389-0.601-0.334-0.719-0.354
					c-0.116-0.023-0.18-0.023-0.236-0.023c-0.105,0-0.172,0.004-0.244,0.012c-0.139,0.012-0.279,0.025-0.453,0.051
					c-0.351,0.047-0.813,0.123-1.374,0.221c-1.125,0.195-2.638,0.482-4.298,0.824c-3.069,0.639-6.587,1.451-9.044,2.25l14.731,13.6
					c0.598-2.518,1.123-6.09,1.506-9.207c0.206-1.686,0.371-3.227,0.472-4.365c0.051-0.572,0.086-1.039,0.107-1.391
					c0.007-0.178,0.016-0.318,0.014-0.457c0-0.07-0.002-0.137-0.011-0.24c-0.005-0.053-0.011-0.115-0.041-0.229
					c-0.029-0.115,0.014-0.297-0.41-0.689V17333.709z M1325.537,17337.443c-0.199-0.006-0.4,0.023-0.585,0.1
					c-14.687,5.922-24.881,18.15-32.487,30.268c-1.25,0.207-3.78,0.502-6.184,0.746c-2.671,0.275-5.049,0.49-5.049,0.49
					c-0.368,0.031-0.719,0.221-0.952,0.506l-11.816,14.529c-0.441,0.543-0.377,1.422,0.138,1.893l2.819,2.605
					c0.451,0.414,1.19,0.471,1.701,0.135l9.834-6.52l1.164,0.404c-0.389,0.746-0.786,1.506-1.159,2.23
					c-0.272,0.531-0.146,1.238,0.292,1.645l12.703,11.729c0.443,0.408,1.16,0.479,1.673,0.16c0.687-0.43,1.408-0.887,2.121-1.334
					l0.497,1.129l-5.715,10.324c-0.295,0.535-0.178,1.266,0.27,1.684l2.819,2.604c0.512,0.475,1.394,0.465,1.9-0.012l13.541-12.936
					c0.266-0.256,0.424-0.621,0.427-0.99c0,0,0.028-2.385,0.085-5.07c0.054-2.418,0.146-4.963,0.253-6.225
					c11.471-8.549,22.85-19.68,27.583-34.797c0.059-0.189,0.075-0.391,0.052-0.59l-15.924-14.701V17337.443z M1324.859,17354.148
					c2.352,2.172,2.501,5.834,0.332,8.184c-2.172,2.352-5.839,2.5-8.191,0.328c-2.351-2.17-2.493-5.836-0.322-8.186
					S1322.509,17351.979,1324.859,17354.148z"/>
			</g>
		</g>
	</g>
	<g id="Certification" display="none">
		<g display="inline">
			<title></title>
			<desc></desc>
			<g id="Page-1">
				<g id="icon-137-document-certificate">
					<path id="document-certificate" fill="none" stroke="#FFFFFF" stroke-width="6.5" stroke-miterlimit="10" d="M227.062,247.033
						v6.403h12.188c3.365,0,6.094-2.713,6.094-6.053V143.749h-24.388c-6.724,0-12.175-5.404-12.175-12.224v-30.433h-60.964
						c-3.351,0-6.067,2.773-6.067,6.064v140.216c0,3.351,2.77,6.063,6.094,6.063h48.75l0,0v-6.403
						c-3.77-3.844-6.094-9.111-6.094-14.925c0-11.776,9.548-21.328,21.328-21.328s21.328,9.552,21.328,21.328
						C233.156,237.922,230.832,243.189,227.062,247.033L227.062,247.033L227.062,247.033z M202.688,251.383v23.989l9.141-9.141
						l9.141,9.141v-23.989c-2.771,1.315-5.87,2.054-9.141,2.054S205.458,252.698,202.688,251.383L202.688,251.383L202.688,251.383z
						 M227.062,259.53h12.203c6.721,0,12.172-5.476,12.172-12.134V137.655l0,0l-36.562-42.656h-67.013
						c-6.743,0-12.206,5.475-12.206,12.235v140.062c0,6.759,5.43,12.234,12.172,12.234h48.765v30.469l15.234-15.234l15.234,15.234
						V259.53L227.062,259.53L227.062,259.53z M214.875,104.14v27.368c0,3.398,2.746,6.147,6.073,6.147h22.568L214.875,104.14
						L214.875,104.14z M153.938,137.655v6.094h42.656v-6.094H153.938L153.938,137.655z M153.938,119.374v6.094h42.656v-6.094
						H153.938L153.938,119.374z M153.938,155.937v6.094h79.219v-6.094H153.938L153.938,155.937z M153.938,174.218v6.094h79.219
						v-6.094H153.938L153.938,174.218z M153.938,192.499v6.094h79.219v-6.094H153.938L153.938,192.499z M211.828,247.343
						c8.415,0,15.234-6.819,15.234-15.234s-6.819-15.234-15.234-15.234s-15.234,6.819-15.234,15.234
						S203.413,247.343,211.828,247.343L211.828,247.343z"/>
				</g>
			</g>
		</g>
	</g>
</g>
</svg>
