<?xml version="1.0" encoding="utf-8"?>
<!-- Generator: Adobe Illustrator 18.1.0, SVG Export Plug-In . SVG Version: 6.00 Build 0)  -->
<svg version="1.1" id="Layer_1" xmlns="http://www.w3.org/2000/svg" xmlns:xlink="http://www.w3.org/1999/xlink" x="0px" y="0px"
	 viewBox="0 0 109.5 152.9" enable-background="new 0 0 109.5 152.9" xml:space="preserve">
<g>
	<g>
		<path fill="#F94877" d="M96.1,0c0,0-70.3,0-81.5,0C3.3,0,0,8.5,0,13.8c0,5.3,0,129.5,0,129.5c0,6,3.2,8.2,5,9
			c1.8,0.7,6.8,1.4,9.8-2.1c0,0,38.5-44.7,39.2-45.3c1-1,1-1,2-1c2,0,16.8,0,24.9,0c10.5,0,12.1-7.5,13.2-11.9
			c0.9-3.7,11.1-55.9,14.5-72.5C111.3,6.8,108.1,0,96.1,0z M94.1,92c0.9-3.7,11.1-55.9,14.5-72.5 M91.3,22.1l-3.4,17.8
			c-0.4,1.9-2.8,4-5.1,4c-2.2,0-31.8,0-31.8,0c-3.6,0-6.1,2.4-6.1,6v3.9c0,3.6,2.6,6.1,6.1,6.1c0,0,24.4,0,26.9,0
			c2.5,0,5,2.8,4.5,5.5C81.9,68,79.3,81.4,79,82.9c-0.3,1.5-2,4-5,4c-2.5,0-22,0-22,0c-4,0-5.2,0.5-7.9,3.9
			C41.4,94,17.3,123,17.3,123c-0.2,0.3-0.5,0.2-0.5-0.1V21.8c0-2.3,2-5,5-5c0,0,62.9,0,65.4,0C89.6,16.8,91.9,19.1,91.3,22.1z"/>
	</g>
</g>
</svg>
