<?xml version="1.0" encoding="utf-8"?>
<!-- Generator: Adobe Illustrator 18.1.0, SVG Export Plug-In . SVG Version: 6.00 Build 0)  -->
<svg version="1.1" id="Layer_1" xmlns="http://www.w3.org/2000/svg" xmlns:xlink="http://www.w3.org/1999/xlink" x="0px" y="0px"
	 viewBox="0 0 176.1 176.2" enable-background="new 0 0 176.1 176.2" xml:space="preserve">
<g id="Jl0hsW.tif">
	<g>
		<g>
			<path fill="#F26122" d="M176,1.1c0,57,0,114,0.1,171c0,3.4-0.7,4.1-4.1,4.1c-55.7-0.1-111.3-0.1-167,0c-3.4,0-4.1-0.7-4.1-4.1
				C1,115.1,1,58.1,1,1.1C59.3,1.1,117.7,1.1,176,1.1z M119.9,99.1c-0.6-1.3-1.2-2.7-1.9-4c-12.3-24.2-24.7-48.4-37.1-72.6
				c-0.4-0.8-0.5-1.9-1.9-2.2C65.8,46.3,52.6,72.3,39.2,99c7.3,0,13.4-0.2,19.6,0.1c3.3,0.1,5-0.9,6.5-3.9
				c4.5-9.4,9.3-18.6,14.3-28.4c1.4,2.7,2.6,4.9,3.7,7.1c4.4,8.4,7.8,17.2,12.9,25.2c-5,0-10,0-15-0.1c-2.6,0-3.1,0.5-1.7,3.1
				c8.7,16.6,17.1,33.3,25.7,50c0.8,1.5,1.1,3.5,3.3,4.7c9.3-18.5,18.5-36.9,27.8-55.3c1.2-2.3-0.2-2.5-1.9-2.5
				C129.5,99.1,124.7,99.1,119.9,99.1z"/>
			<path fill="#FFFAF7" d="M176,1.1c-58.3,0-116.7,0-175,0c-0.3-1.6,0.9-1,1.5-1c57.3,0,114.7,0,172,0C175.1,0.1,176.3-0.5,176,1.1z
				"/>
			<path fill="#FFFAF7" d="M96.1,99.1c-5.1-8-8.5-16.8-12.9-25.2c-1.1-2.2-2.3-4.4-3.7-7.1c-4.9,9.8-9.8,19-14.3,28.4
				c-1.5,3.1-3.2,4.1-6.5,3.9C52.6,98.8,46.5,99,39.2,99C52.6,72.3,65.8,46.3,79,20.3c1.4,0.3,1.5,1.4,1.9,2.2
				C93.3,46.6,105.7,70.8,118,95c0.7,1.3,1.2,2.7,1.9,4L120,99c-8,0-16,0-24,0L96.1,99.1z"/>
			<path fill="#FAB084" d="M119.9,99.1c4.8,0,9.7,0,14.5,0c1.7,0,3.1,0.2,1.9,2.5c-9.3,18.4-18.5,36.8-27.8,55.3
				c-2.2-1.2-2.5-3.1-3.3-4.7c-8.6-16.7-17-33.4-25.7-50C78,99.5,78.5,99,81.1,99c5,0,10,0,15,0.1c0,0-0.1-0.1-0.1-0.1
				c3.8,7.7,7.6,15.3,11.9,24.1c4.4-8.8,8.3-16.4,12.2-24.1C120,99,119.9,99.1,119.9,99.1z"/>
			<path fill="#F26122" d="M120,99c-3.9,7.7-7.7,15.3-12.2,24.1c-4.3-8.7-8.1-16.4-11.9-24.1C104,99,112,99,120,99z"/>
		</g>
	</g>
</g>
</svg>
