<?xml version="1.0" encoding="UTF-8" standalone="no"?>
<svg width="110px" height="110px" viewBox="0 0 110 110" version="1.1" xmlns="http://www.w3.org/2000/svg" xmlns:xlink="http://www.w3.org/1999/xlink" xmlns:sketch="http://www.bohemiancoding.com/sketch/ns">
    <!-- Generator: Sketch 3.2.2 (9983) - http://www.bohemiancoding.com/sketch -->
    <title>twittericon 2</title>
    <desc>Created with Sketch.</desc>
    <defs></defs>
    <g id="Page-1" stroke="none" stroke-width="1" fill="none" fill-rule="evenodd" sketch:type="MSPage">
        <g id="Int1_desktop" sketch:type="MSArtboardGroup" transform="translate(-121.000000, -624.000000)">
            <g id="integrations" sketch:type="MSLayerGroup" transform="translate(101.000000, 443.000000)">
                <g id="twtiter-2" transform="translate(20.000000, 181.000000)" sketch:type="MSShapeGroup">
                    <g id="twittericon-2">
                        <path d="M55,110 C85.3756612,110 110,85.3756612 110,55 C110,24.6243388 85.3756612,0 55,0 C24.6243388,0 0,24.6243388 0,55 C0,85.3756612 24.6243388,110 55,110 Z" id="Path-1" fill="#DD2649"></path>
                        <path d="M45.0167852,65.3197257 C16.3717978,82.111781 18.7947149,35.200852 39.7109916,42.5952588 C52.8880394,48.8508915 41.4465509,70.775586 67.7855469,77.0293774 C97.4304684,80.8948985 94.8436488,55.7653295 77.9294313,52.4286941 C61.0727733,49.2664254 73.538136,34.8594828 81.6122034,45.8574663 L89.4841674,45.8461047 C85.0027903,27.1633663 59.9879197,34.3858261 59.9879197,45.8574661 C59.9879197,62.5953464 82.6364002,57.9797601 81.6122034,65.3197257 C80.1475665,72.4655124 70.3122259,71.5729894 63.1196181,66.4135281 C53.7224578,57.4382498 57.195125,46.3045602 48.4977121,38.8254685 C39.7835217,30.2980731 15.3426968,32.8212605 15.3426968,55.3545295 C17.0439269,89.4854112 48.4977121,73.0778548 48.4977121,73.0778548 C48.4977121,73.0778548 46.2288891,67.4047611 45.0167852,65.3197257 Z" id="Path-12" fill="#F7F7FA"></path>
                    </g>
                </g>
            </g>
        </g>
    </g>
</svg>