<?xml version="1.0" encoding="utf-8"?>
<!-- Generator: Adobe Illustrator 18.1.0, SVG Export Plug-In . SVG Version: 6.00 Build 0)  -->
<svg version="1.1" class="share-img" xmlns="http://www.w3.org/2000/svg" xmlns:xlink="http://www.w3.org/1999/xlink" x="0px" y="0px"
	 viewBox="-29.1 142.9 612 649.2" enable-background="new -29.1 142.9 612 649.2" xml:space="preserve">
<path class="share-img" d="M480.8,587.9c-28.6,0-54.4,11.7-72.9,30.7L172.6,490.1c1.6-7.3,2.5-14.9,2.5-22.6c0-7.8-0.9-15.4-2.5-22.6
	l235.3-128.5c18.5,18.9,44.4,30.7,73,30.7c56.4,0,102.1-45.7,102.1-102.1c0-56.4-45.7-102.1-102.1-102.1S378.7,188.6,378.7,245
	c0,7.8,0.9,15.3,2.5,22.6L145.8,396c-18.5-18.9-44.3-30.6-72.8-30.6c-56.4,0-102.1,45.7-102.1,102.1c0,56.4,45.7,102.1,102.1,102.1
	c28.5,0,54.3-11.7,72.8-30.6l235.4,128.4c-1.6,7.3-2.5,14.8-2.5,22.6c0,56.4,45.7,102.1,102.1,102.1S582.9,746.4,582.9,690
	S537.2,587.9,480.8,587.9z"/>
</svg>
