<?xml version="1.0" encoding="utf-8"?>
<!-- Generator: Adobe Illustrator 18.1.0, SVG Export Plug-In . SVG Version: 6.00 Build 0)  -->
<svg version="1.1" id="Layer_1" xmlns="http://www.w3.org/2000/svg" xmlns:xlink="http://www.w3.org/1999/xlink" x="0px" y="0px"
	 viewBox="256 263.3 612 550.9" enable-background="new 256 263.3 612 550.9" xml:space="preserve">
<g>
	<path fill="#FFFFFF" d="M562,814.2c-3.3,0-6.6-1.2-9-3.7c-27.5-27.5-54.6-53.8-80.9-79.2C351.4,614.2,256,521.8,256,441.6
		c0-98.2,79.9-178.3,178.3-178.3c48.5,0,94.3,19.5,127.7,54c33.5-34.4,79.2-54,127.7-54c98.2,0,178.3,79.9,178.3,178.3
		c0,79.9-89.1,166.3-212.3,285.8c-27.3,26.5-55.5,53.8-84.7,83.2C568.6,813,565.3,814.2,562,814.2z M434.3,288.8
		c-84.2,0-152.7,68.6-152.7,152.7c0,69.3,96.6,163,208.3,271.4c23.5,22.7,47.5,46.2,72.1,70.5c26.2-26.1,51.5-50.5,76.1-74.5
		c114.2-110.8,204.5-198.4,204.5-267.5c-0.1-84.2-68.6-152.7-152.9-152.7c-45.8,0-88.8,20.4-117.9,55.7c-4.8,5.9-14.9,5.9-19.7,0
		C523.1,309.2,480,288.8,434.3,288.8z"/>
</g>
</svg>
