<?xml version="1.0" encoding="UTF-8" standalone="no"?>
<svg width="24px" height="24px" viewBox="0 0 24 24" version="1.1" xmlns="http://www.w3.org/2000/svg" xmlns:xlink="http://www.w3.org/1999/xlink" xmlns:sketch="http://www.bohemiancoding.com/sketch/ns">
    <!-- Generator: Sketch 3.2.2 (9983) - http://www.bohemiancoding.com/sketch -->
    <title>leftdot</title>
    <desc>Created with Sketch.</desc>
    <defs></defs>
    <g id="Page-1" stroke="none" stroke-width="1" fill="none" fill-rule="evenodd" sketch:type="MSPage">
        <g id="Mobile-Portrait-7" sketch:type="MSArtboardGroup" transform="translate(-91.000000, -124.000000)">
            <g id="Avatar" sketch:type="MSLayerGroup" transform="translate(91.000000, 39.000000)">
                <g id="logo" transform="translate(0.000000, 85.000000)" sketch:type="MSShapeGroup">
                    <g id="leftdot">
                        <path d="M5.81929153,17.9301647 C2.30345322,13.8570365 2.80025646,7.73598799 6.92754491,4.25717313 C11.0166177,0.782143712 17.2075504,1.26667941 20.7233887,5.33980757 C24.239227,9.41293574 23.7424238,15.5339843 19.6151353,19.0127992 C15.5260625,22.4878286 9.33512984,22.0032929 5.81929153,17.9301647" id="Fill-2389" fill="#E6A82C"></path>
                        <path d="M11.9648809,4.52596991 C10.1687461,4.52596991 8.41082696,5.16570844 7.03506414,6.32783701 C5.46822316,7.63759756 4.55104795,9.46217727 4.35996978,11.4722433 C4.20710724,13.4785239 4.85677302,15.4318084 6.15610457,16.9611242 C8.7929833,20.0083995 13.837447,20.4020847 16.8946977,17.8052762 C20.1048109,15.1024756 20.4869672,10.3328273 17.7736572,7.17198904 C16.3214632,5.48747042 14.1813877,4.52596991 11.9648809,4.52596991 L11.9648809,4.52596991 Z M11.9648809,23.9187539 C8.44904259,23.9187539 5.12428245,22.4045799 2.86956006,19.7623462 C0.805915834,17.351024 -0.225906279,14.288607 0.0416031577,11.1315542 C0.309112594,7.97450128 1.76130668,5.10514148 4.20710724,3.04965022 C6.34718274,1.22128506 9.136924,0.214359327 11.9648809,0.214359327 C15.4807192,0.214359327 18.8054794,1.72853337 21.0602017,4.37076707 C25.3403527,9.34104335 24.7671182,16.8399903 19.7226546,21.083463 C17.5825791,22.9118282 14.8310534,23.9187539 11.9648809,23.9187539 L11.9648809,23.9187539 Z" id="Fill-2390" fill="#E7E9EE"></path>
                    </g>
                </g>
            </g>
        </g>
    </g>
</svg>