<?xml version="1.0" encoding="UTF-8" standalone="no"?>
<svg width="110px" height="110px" viewBox="0 0 110 110" version="1.1" xmlns="http://www.w3.org/2000/svg" xmlns:xlink="http://www.w3.org/1999/xlink" xmlns:sketch="http://www.bohemiancoding.com/sketch/ns">
    <!-- Generator: Sketch 3.3 (11970) - http://www.bohemiancoding.com/sketch -->
    <title>rescuetime</title>
    <desc>Created with Sketch.</desc>
    <defs></defs>
    <g id="Page-1" stroke="none" stroke-width="1" fill="none" fill-rule="evenodd" sketch:type="MSPage">
        <g id="Mobile-Portrait-13" sketch:type="MSArtboardGroup" transform="translate(-389.000000, -584.000000)">
            <g id="rescuetime" sketch:type="MSLayerGroup" transform="translate(389.000000, 584.000000)">
                <path d="M55,110 C85.3756612,110 110,85.3756612 110,55 C110,24.6243388 85.3756612,0 55,0 C24.6243388,0 0,24.6243388 0,55 C0,85.3756612 24.6243388,110 55,110 Z" id="Path-4" fill="#FFFFFF" sketch:type="MSShapeGroup"></path>
                <g id="rescue-time-logo" transform="translate(25.000000, 25.000000)" sketch:type="MSShapeGroup">
                    <path d="M60.7665135,29.4900662 L60.7665148,37.0900683 C60.7665153,40.4084713 58.0830221,43.0985685 54.7597582,43.0985685 L49.5989138,43.0985685 C46.2814732,43.0985685 43.5921562,45.7811827 43.5921562,49.0966714 L43.5921562,54.8905304 C43.5921562,58.2031912 40.9049296,60.8886333 37.5941104,60.8886333 L23.4458354,60.8886333 C20.1332062,60.8886333 17.4477896,58.2060191 17.4477896,54.8905304 L17.4477896,49.0966714 C17.4477896,45.7840106 14.7634211,43.0985685 11.4513172,43.0985685 L6.01991327,43.0985685 C2.70815304,43.0985685 0.0234409158,40.4099664 0.0234409158,37.0900683 L0.0234409158,29.4900663 L60.7665135,29.4900662 Z" id="Path-45-Copy" fill="#C5C7D3"></path>
                    <path d="M11.4513172,17.5896657 C14.7630774,17.5896657 17.4477895,14.8947646 17.4477895,11.5941386 L17.4477895,6.09247684 C17.4477895,2.78123863 20.1350161,0.0969497022 23.4458353,0.0969497022 L37.5941102,0.0969497022 C40.9067394,0.0969497022 43.5921559,2.79185079 43.5921559,6.09247684 L43.5921559,11.5941386 C43.5921559,14.9053768 46.2756496,17.5896657 49.5989134,17.5896657 L54.7597579,17.5896657 C58.0771984,17.5896657 60.7665154,20.2831101 60.7665154,23.5913432 L60.7665154,36.9808829 C60.7665154,40.2955179 58.0830217,42.9825604 54.7597579,42.9825604 L49.5989134,42.9825604 C46.2814729,42.9825604 43.5921559,45.6632805 43.5921559,48.9823743 L43.5921559,54.8888195 C43.5921559,58.2024252 40.9049293,60.8886333 37.5941102,60.8886333 L23.4458353,60.8886333 C20.133206,60.8886333 17.4477895,58.2079133 17.4477895,54.8888195 L17.4477895,48.9823743 C17.4477895,45.6687686 14.763421,42.9825604 11.4513172,42.9825604 L6.01991323,42.9825604 C2.70815302,42.9825604 0.0234409158,40.289116 0.0234409158,36.9808829 L0.0234409158,23.5913432 C0.0234409158,20.2767082 2.70780942,17.5896657 6.01991323,17.5896657 L11.4513172,17.5896657 Z" id="Path-45" stroke="#AE211A" stroke-width="5"></path>
                    <path d="M34.3658161,27.3787676 C33.9418557,26.7623921 33.3663855,26.258329 32.6931493,25.9203221 L32.6931493,25.9203221 L32.3186698,8.01003725 L34.6663713,9.05192596 L30.7019868,3.23454962 L26.7376022,9.05192596 L28.9708971,8.01003725 L28.5951586,25.9805415 C27.2037551,26.7311792 26.2582781,28.2021955 26.2582781,29.8940397 C26.2582781,32.3482322 28.2477943,34.3377483 30.7019868,34.3377483 C32.6502683,34.3377483 34.3057055,33.0839328 34.9054233,31.3391769 L49.2859517,31.0384998 L48.244063,33.3862014 L54.0614394,29.4218168 L48.244063,25.4574322 L49.2859517,27.6907272 L34.3658161,27.3787676 Z" id="Oval-27" fill="#2D2D2D"></path>
                </g>
            </g>
        </g>
    </g>
</svg>