<?xml version="1.0" encoding="UTF-8" standalone="no"?>
<svg width="26px" height="24px" viewBox="0 0 26 24" version="1.1" xmlns="http://www.w3.org/2000/svg" xmlns:xlink="http://www.w3.org/1999/xlink" xmlns:sketch="http://www.bohemiancoding.com/sketch/ns">
    <!-- Generator: Sketch 3.2.2 (9983) - http://www.bohemiancoding.com/sketch -->
    <title>rightdot 2</title>
    <desc>Created with Sketch.</desc>
    <defs></defs>
    <g id="Page-1" stroke="none" stroke-width="1" fill="none" fill-rule="evenodd" sketch:type="MSPage">
        <g id="Mobile-Portrait-7" sketch:type="MSArtboardGroup" transform="translate(-473.000000, -299.000000)">
            <g id="Line-+-rightdot-2" sketch:type="MSLayerGroup" transform="translate(109.000000, 299.000000)">
                <g id="rightdot-2" transform="translate(364.032235, 0.000000)" sketch:type="MSShapeGroup">
                    <g id="Fill-2392-+-Fill-2393">
                        <path d="M11.6843741,21.3043985 C5.89265845,20.8804298 1.57967871,16.2092029 2.03151469,10.8717394 C2.48335066,5.53049044 7.57677435,1.54442728 13.36849,1.96839601 C19.1602056,2.39236474 23.4731854,7.06359165 23.0213494,12.4010551 C22.5695134,17.7423041 17.4760897,21.7283672 11.6843741,21.3043985" id="Fill-2392" fill="#0DAC8B"></path>
                        <path d="M12.9816011,4.52571199 C8.75077334,4.52571199 5.17716156,7.57677268 4.84855358,11.4719854 C4.68424959,13.478266 5.34146555,15.4315505 6.77912546,16.9608663 C8.17570938,18.4977529 10.1884333,19.4251845 12.3654611,19.5841728 C16.8427448,19.9135057 20.8271166,16.7602382 21.1557246,12.660612 C21.3200286,10.6543314 20.6628126,8.70104691 19.2251527,7.17173113 C17.8285688,5.63484448 15.8158449,4.70362744 13.638817,4.5484246 L12.9816011,4.52571199 L12.9816011,4.52571199 Z M13.0226771,23.918496 L11.9957771,23.8844271 C8.54539335,23.6345884 5.46469354,22.169625 3.20551368,19.7620883 C0.987409818,17.3507661 -0.0805661166,14.2883491 0.165889868,11.1312962 C0.740953833,4.69605657 6.86127746,-0.243936233 14.008501,0.24817033 C17.4588848,0.498009046 20.5395846,1.96297243 22.7987645,4.37050915 C25.0168683,6.77804588 26.0848443,9.84424831 25.8383883,13.0013012 C25.3044003,19.1223497 19.6769887,23.918496 13.0226771,23.918496 L13.0226771,23.918496 Z" id="Fill-2393" fill="#E7E9EE"></path>
                    </g>
                </g>
            </g>
        </g>
    </g>
</svg>