<?xml version="1.0" encoding="UTF-8" standalone="no"?>
<svg width="110px" height="110px" viewBox="0 0 110 110" version="1.1" xmlns="http://www.w3.org/2000/svg" xmlns:xlink="http://www.w3.org/1999/xlink" xmlns:sketch="http://www.bohemiancoding.com/sketch/ns">
    <!-- Generator: Sketch 3.2.2 (9983) - http://www.bohemiancoding.com/sketch -->
    <title>tick</title>
    <desc>Created with Sketch.</desc>
    <defs></defs>
    <g id="Page-1" stroke="none" stroke-width="1" fill="none" fill-rule="evenodd" sketch:type="MSPage">
        <g id="Mobile-Portrait-10" sketch:type="MSArtboardGroup" transform="translate(-382.000000, -444.000000)">
            <g id="integrations" sketch:type="MSLayerGroup" transform="translate(101.000000, 443.000000)">
                <g id="github" transform="translate(280.000000, 0.000000)" sketch:type="MSShapeGroup">
                    <g id="tick" transform="translate(1.000000, 1.000000)">
                        <path d="M55,110 C85.3756612,110 110,85.3756612 110,55 C110,24.6243388 85.3756612,0 55,0 C24.6243388,0 0,24.6243388 0,55 C0,85.3756612 24.6243388,110 55,110 Z M18.8955078,64.8486328 L23.8671875,58.2441406 C33.6572266,62.25 35.2333984,62.0419922 40.8173827,64.8486328 C49.2387694,57.4882812 59.2871094,49.9394531 84.4853516,29.5908203 L87.6318359,36.2314453 C87.6318359,36.2314453 57.1679687,67.1005859 42.4619141,86.8974609 C35.0371094,79.3603516 18.8955078,64.8486328 18.8955078,64.8486328 Z" id="Oval-18" fill-opacity="0.854138361" fill="#000000"></path>
                        <path d="M18.8955078,64.8486328 L23.8671875,58.2441406 C33.6572266,62.25 35.2333984,62.0419922 40.8173827,64.8486328 C49.2387694,57.4882812 59.2871094,49.9394531 84.4853516,29.5908203 L87.6318359,36.2314453 C87.6318359,36.2314453 57.1679687,67.1005859 42.4619141,86.8974609 C35.0371094,79.3603516 18.8955078,64.8486328 18.8955078,64.8486328 Z" id="Path-2" fill="#0DAC8B"></path>
                    </g>
                </g>
            </g>
        </g>
    </g>
</svg>