<?xml version="1.0" encoding="utf-8"?>
<!-- Generator: Adobe Illustrator 18.1.0, SVG Export Plug-In . SVG Version: 6.00 Build 0)  -->
<svg version="1.1" id="Layer_1" xmlns="http://www.w3.org/2000/svg" xmlns:xlink="http://www.w3.org/1999/xlink" x="0px" y="0px"
	 viewBox="25.5 34.1 561.6 570.8" enable-background="new 25.5 34.1 561.6 570.8" xml:space="preserve">
<g>
	<g>
		<path fill="#4FB296" stroke="#4FB296" stroke-width="20" stroke-miterlimit="10" d="M341.5,65.5V120c0,9.8,6.7,18.4,15.3,20.8
			c12.9,3.1,25.1,8.6,36.7,15.3c3.1,2.4,6.7,3.1,11,3.1c5.5,0,11-2.4,15.3-6.7l36.7-37.9l51.4,52L470,204.4
			c-6.7,6.7-8.6,17.1-3.1,26.3c6.7,11.6,11.6,23.9,15.3,36.7c2.4,9.8,11,15.3,20.8,15.3h53.2v73.4h-53.2c-9.8,0-18.4,6.7-20.8,15.3
			c-3.1,12.9-8.6,26.3-15.3,36.7c-4.3,8.6-3.1,18.4,3.1,26.3l37.9,37.9l-50.8,52l-36.7-37.9c-4.3-4.3-9.8-6.7-15.3-6.7
			c-3.1,0-7.3,1.2-11,3.1c-11.6,6.7-23.9,11.6-36.7,15.3c-8.6,3.1-15.3,11-15.3,20.8v54.5h-71.6V519c0-9.8-6.7-18.4-15.3-20.8
			c-12.9-3.1-25.1-8.6-36.7-15.3c-3.1-2.4-6.7-3.1-11-3.1c-5.5,0-11,2.4-15.3,6.7l-36.7,37.9l-51.4-52l37.9-37.9
			c6.7-6.7,8.6-17.1,3.1-26.3c-6.7-11.6-11.6-23.9-15.3-36.7c-2.4-9.8-11-15.3-20.8-15.3h-52v-73.4h53.2c9.8,0,18.4-6.7,20.8-15.3
			c3.1-12.9,8.6-26.3,15.3-36.7c4.3-8.6,3.1-18.4-3.1-26.3L104,166.5l50.8-52l36.7,37.9c4.3,4.3,9.8,6.7,15.3,6.7
			c3.1,0,7.3-1.2,11-3.1c11.6-6.7,23.9-11.6,36.7-15.3c8.6-3.1,15.3-11,15.3-20.8V65.5H341.5 M363.5,44.1H248.5V120
			c-14.1,4.3-28.2,9.8-41,17.1l-52-53.2l-81.4,82.6l52,53.2c-7.3,12.9-12.9,26.9-17.1,41H35.5v116.9h74.7c4.3,14.1,9.8,28.2,17.1,41
			l-52,53.9l81.4,82.6l52-53.2c12.9,7.3,26.9,12.9,41,17.1v75.9h115.1V519c14.1-4.3,28.2-9.8,41-17.1l52,53.2l81.4-82.6l-52-53.2
			c7.3-12.9,12.9-26.9,17.1-41h72.8V260.7h-74.7c-4.3-14.1-9.8-28.2-17.1-41l52-53.2l-82-82l-52,53.2c-12.9-7.3-26.9-12.9-41-17.1
			V44.1H363.5z"/>
	</g>
	<g>
		<path fill="#4FB296" stroke="#4FB296" stroke-width="20" stroke-miterlimit="10" d="M306,268.7c28.2,0,49.6,22.6,49.6,50.8
			c0,28.2-22.6,50.8-49.6,50.8s-49.6-22.6-49.6-50.8C256.4,291.3,277.8,268.7,306,268.7 M306,246.7c-40.4,0-71.6,32.4-71.6,72.8
			s32.4,72.8,71.6,72.8s71.6-32.4,71.6-72.8S346.4,246.7,306,246.7L306,246.7z"/>
	</g>
</g>
</svg>
