<?xml version="1.0" encoding="utf-8"?>
<!-- Generator: Adobe Illustrator 18.1.0, SVG Export Plug-In . SVG Version: 6.00 Build 0)  -->
<svg version="1.1" id="Layer_1" xmlns="http://www.w3.org/2000/svg" xmlns:xlink="http://www.w3.org/1999/xlink" x="0px" y="0px"
	 viewBox="0 0 125.5 125.4" enable-background="new 0 0 125.5 125.4" xml:space="preserve">
<g id="gUhwMA.tif">
	<g>
		<g>
			<path fill="#1A5CAB" d="M81.6,40.3c-0.4,8.2,1.1,20.2-0.5,32.1c-3.9,28.4-23.7,47.9-52.1,51.8c-5.3,0.7-10.6,1.3-15.9,1.1
				c-1.6,0-3.4-0.1-4.9-0.7c-5.6-2.2-8.6-10.2-7.2-18.2c1.3-7.1,5.4-11,11.9-11.3c8.3-0.3,16.1-2.3,23.3-6.5
				c8.7-5.1,13.5-12.6,13.6-22.8c0.1-10,0-20,0.4-30c0.2-4.1-1.4-4.7-4.9-4.5c-9.2,0.3-18.3,0.6-27.5,0.4
				C5.8,31.5-1.3,21.6,2.3,10.6c1.9-5.8,6.3-9.5,12.6-9.6C36,0.9,57.2,1,78.4,0.8c3.3,0,3.2,1.8,3.2,4.2
				C81.6,15.5,81.6,26,81.6,40.3z"/>
			<path fill="#1A5CAB" d="M94.8,63.4c0-15.5-0.1-31,0-46.5C95,6.7,101.1,0,110,0c7.4,0,13.4,4.9,14.8,12.3c0.4,2.1,0.6,4.3,0.6,6.5
				c0,30,0.1,60,0,90c0,12.4-9.4,19.3-20.6,15.7c-6.5-2.1-9.9-7-10-14.5C94.8,94.4,94.8,78.9,94.8,63.4z"/>
			<path fill="#F69221" d="M35.9,62.9C36,73,28,81.1,18.1,81.1C8.5,81,0.2,72.8,0,63.3c-0.2-9.6,8.3-18.1,18.1-18.1
				C27.9,45.2,35.8,53.1,35.9,62.9z"/>
		</g>
	</g>
</g>
</svg>
