<?xml version="1.0" encoding="UTF-8" standalone="no"?>
<svg width="110px" height="111px" viewBox="0 0 110 111" version="1.1" xmlns="http://www.w3.org/2000/svg" xmlns:xlink="http://www.w3.org/1999/xlink" xmlns:sketch="http://www.bohemiancoding.com/sketch/ns">
    <!-- Generator: Sketch 3.2.2 (9983) - http://www.bohemiancoding.com/sketch -->
    <title>instagramicon</title>
    <desc>Created with Sketch.</desc>
    <defs></defs>
    <g id="Page-1" stroke="none" stroke-width="1" fill="none" fill-rule="evenodd" sketch:type="MSPage">
        <g id="Mobile-Portrait-7" sketch:type="MSArtboardGroup" transform="translate(-519.000000, -445.000000)">
            <g id="integrations" sketch:type="MSLayerGroup" transform="translate(101.000000, 443.000000)">
                <g id="instragram" transform="translate(418.000000, 2.235955)" sketch:type="MSShapeGroup">
                    <g id="instagramicon">
                        <circle id="Path-10" fill="#175A83" cx="55" cy="55" r="55"></circle>
                        <g id="Group-2" transform="translate(24.270677, 24.764045)">
                            <rect id="Rectangle-9" fill="#F7F7FA" x="0" y="0" width="61" height="63" rx="10"></rect>
                            <path d="M6.46574818,26.2397461 C6.46574818,56.0625637 6.46574818,54.5953635 8.31073553,54.5318338 C8.31073553,54.5318338 49.0625832,54.5953635 52.5728316,54.5953635 C54.8324419,54.5953635 54.8324419,54.5953635 54.8324419,26.1023215 C54.8324419,26.1023215 51.8823575,26.3821862 49.5926236,26.2474365 C54.8324419,58.8712424 6.46574818,57.9634373 11.9130471,26.3821862 C10.7047175,26.3821862 8.83536044,26.3821862 6.46574818,26.2397461 Z" id="Path-118" fill="#175A83"></path>
                            <ellipse id="Oval-41" fill="#175A83" cx="30.8465909" cy="31.1576087" rx="12.1306818" ry="11.9836957"></ellipse>
                            <rect id="Rectangle-10" fill="#175A83" x="42.2840909" y="6.84782609" width="12.4772727" height="12.326087" rx="3"></rect>
                        </g>
                    </g>
                </g>
            </g>
        </g>
    </g>
</svg>