<?xml version="1.0" encoding="utf-8"?>
<!-- Generator: Adobe Illustrator 18.1.0, SVG Export Plug-In . SVG Version: 6.00 Build 0)  -->
<svg version="1.1" id="Layer_1" xmlns:sketch="http://www.bohemiancoding.com/sketch/ns"
	 xmlns="http://www.w3.org/2000/svg" xmlns:xlink="http://www.w3.org/1999/xlink" x="0px" y="0px" viewBox="-223.2 392.7 72.7 57.2"
	 enable-background="new -223.2 392.7 72.7 57.2" xml:space="preserve">
<title>twittericon</title>
<desc>Created with Sketch.</desc>
<g id="Page-1" sketch:type="MSPage">
	<g id="Mobile-Portrait-7" transform="translate(-101.000000, -444.000000)" sketch:type="MSArtboardGroup">
		<g id="integrations" transform="translate(101.000000, 443.000000)" sketch:type="MSLayerGroup">
			<g id="twtiter" transform="translate(0.000000, 1.000000)" sketch:type="MSShapeGroup">
				<g id="twittericon">
					<path id="Path" fill="#4D97D4" d="M-186.5,410.9c-3.6-10.2,7-26.1,23.6-13.6c5.4,0,9.9-3.3,9.9-3.3l-4.7,6.7l7.2-1.1
						c0,0-4.4,3.9-7.2,7.1c0,13.9-12,58.6-65.5,37.9c14,0.7,21.7-6.5,21.7-6.5s-12-3.7-12.5-9.5l6-0.7c0,0-12.1-4.2-12.1-14.5l6.6,2
						c0,0-9.2-7.4-4.4-18.9C-217.9,396.3-201.5,411.6-186.5,410.9z"/>
				</g>
			</g>
		</g>
	</g>
</g>
</svg>
