<?xml version="1.0" encoding="utf-8"?>
<!-- Generator: Adobe Illustrator 18.1.0, SVG Export Plug-In . SVG Version: 6.00 Build 0)  -->
<svg version="1.1" id="Layer_1" xmlns="http://www.w3.org/2000/svg" xmlns:xlink="http://www.w3.org/1999/xlink" x="0px" y="0px"
	 viewBox="-1 12.9 613.9 611" enable-background="new -1 12.9 613.9 611" xml:space="preserve">
<path d="M468.6,12.9c-36.7,0-72.8,13.7-100.4,41.2l-74.7,74.7l40.6,40.6l74.7-74.7c32.8-32.8,86.9-32.9,121.9,0.6
	c34,32.6,33.2,86,0,121.3c-0.2,0.2-0.4,0.4-0.6,0.6L396.8,350.6c-32.8,32.8-87.5,33.5-122.5,0l-40,41.2
	c56.8,54.4,148,54.6,203.2-0.6l133.9-133.9c54.2-56.5,57-148-0.6-203.2C542.3,26.9,505.2,12.9,468.6,12.9z M275.5,204.2
	c-36.7,0-73.4,13.7-101,41.2L40.6,379.3c0,0.2,0,0.4,0,0.6c-54.2,56.5-57,148,0.6,203.2c56.8,54.4,147.5,54.6,202.6-0.6l76.5-76.5
	l-40.6-40.6l-76.5,76.5c-32.8,32.8-86.9,33.5-121.9,0c-34.2-32.8-33.2-86.6,0.6-121.9L215.2,286c32.8-32.8,87.5-32.9,122.5,0.6
	l40-41.2C349.3,218.2,312.2,204.1,275.5,204.2z"/>
</svg>
