<?xml version="1.0" encoding="utf-8"?>
<!-- Generator: Adobe Illustrator 18.1.0, SVG Export Plug-In . SVG Version: 6.00 Build 0)  -->
<svg version="1.1" id="Layer_1" xmlns="http://www.w3.org/2000/svg" xmlns:xlink="http://www.w3.org/1999/xlink" x="0px" y="0px"
	 viewBox="146.9 236.9 318.2 318.2" enable-background="new 146.9 236.9 318.2 318.2" xml:space="preserve">
<path fill="#231F20" d="M428.4,371.5h-28.2c2.4,7.3,3.7,15.9,3.7,24.5c0,53.9-44.1,97.9-97.9,97.9s-97.9-44.1-97.9-97.9
	c0-8.6,1.2-17.1,3.7-24.5h-28.2v134.6c0,7.3,4.9,12.2,12.2,12.2h220.3c7.3,0,12.2-4.9,12.2-12.2V371.5z M428.4,285.8
	c0-7.3-4.9-12.2-12.2-12.2h-36.7c-7.3,0-12.2,4.9-12.2,12.2v36.7c0,7.3,4.9,12.2,12.2,12.2h36.7c7.3,0,12.2-4.9,12.2-12.2V285.8z
	 M306,334.8c-34.3,0-61.2,26.9-61.2,61.2s26.9,61.2,61.2,61.2s61.2-26.9,61.2-61.2S340.3,334.8,306,334.8 M428.4,555.1H183.6
	c-20.8,0-36.7-15.9-36.7-36.7V273.6c0-20.8,15.9-36.7,36.7-36.7h244.8c20.8,0,36.7,15.9,36.7,36.7v244.8
	C465.1,539.2,449.2,555.1,428.4,555.1"/>
</svg>
